<?xml version="1.0" encoding="UTF-8" standalone="no"?>
<!-- Created with Inkscape (http://www.inkscape.org/) -->

<svg
   version="1.1"
   id="svg1"
   width="93.730469"
   height="62.383163"
   viewBox="0 0 93.730468 62.383163"
   xmlns="http://www.w3.org/2000/svg"
   xmlns:svg="http://www.w3.org/2000/svg">
  <defs
     id="defs1" />
  <g
     id="g283"
     transform="translate(-5090.8221,-243.48576)">
    <path
       id="path287"
       d="m 9.2002,-7.6629031 c -0.032227,0.017578 -0.046875,0.032227 -0.046875,0.046875 0,0.00879 0.014648,0.020508 0.046875,0.035156 0.7558594,0.3222657 1.338867,0.7910157 1.746094,1.40625 0.413086,0.6181641 0.621094,1.3535157 0.621094,2.203125 0,1.2363282 -0.392579,2.2089844 -1.171875,2.9179688 C 9.622075,-0.35040312 8.5966844,0.00115938 7.3252,0.00115938 H 2.35645 c -0.140625,0 -0.2109375,-0.0703125 -0.2109375,-0.2109375 V -14.483216 c 0,-0.140625 0.070312,-0.210937 0.2109375,-0.210937 h 4.828125 c 1.3037109,0 2.3320313,0.336914 3.082031,1.007812 0.75586,0.673829 1.136719,1.602539 1.136719,2.789063 0,0.782226 -0.193359,1.4472655 -0.574219,1.9921874 -0.375,0.5478515 -0.9199216,0.9609375 -1.628906,1.2421875 z M 3.340825,-13.709778 c -0.055664,0 -0.082031,0.0293 -0.082031,0.08203 v 5.4960939 c 0,0.064453 0.026367,0.09375 0.082031,0.09375 h 3.84375 c 0.9521484,0 1.7109375,-0.2519531 2.2734375,-0.7617188 0.5683595,-0.515625 0.8554685,-1.1953125 0.8554685,-2.0390621 0,-0.867188 -0.287109,-1.561524 -0.8554685,-2.085938 -0.5625,-0.521484 -1.3212891,-0.785156 -2.2734375,-0.785156 z M 7.3252,-1.0066531 c 0.9521484,0 1.7109375,-0.2753906 2.2734375,-0.8320313 0.5683595,-0.5537109 0.8554685,-1.2832031 0.8554685,-2.1914062 0,-0.9375 -0.292968,-1.6816406 -0.878906,-2.2382813 C 8.9892625,-6.8220828 8.2041063,-7.1004031 7.2197313,-7.1004031 H 3.340825 c -0.055664,0 -0.082031,0.029297 -0.082031,0.082031 v 5.9296875 c 0,0.055664 0.026367,0.082031 0.082031,0.082031 z m 11.068359,-9.7499999 c 1.233399,0 2.170899,0.322266 2.8125,0.9609374 0.647461,0.6416015 0.972657,1.5 0.972657,2.578125 v 7.00781248 c 0,0.140625 -0.07031,0.2109375 -0.210938,0.2109375 h -0.691406 c -0.140625,0 -0.210938,-0.0703125 -0.210938,-0.2109375 V -1.1941531 c 0,-0.029297 -0.01172,-0.049805 -0.03516,-0.058594 -0.02344,-0.014648 -0.04687,-0.011719 -0.07031,0.011719 -0.369141,0.4628906 -0.84375,0.8144531 -1.429688,1.05468748 -0.580078,0.234375 -1.224609,0.3515625 -1.933594,0.3515625 -0.969726,0 -1.790039,-0.24023438 -2.460937,-0.7265625 -0.673828,-0.49218748 -1.007813,-1.24218748 -1.007813,-2.24999998 0,-1.0371094 0.386719,-1.8574219 1.160157,-2.4609375 0.773437,-0.600586 1.831054,-0.9023438 3.175781,-0.9023438 h 2.519531 c 0.05274,0 0.08203,-0.026367 0.08203,-0.082031 v -0.9492188 c 0,-0.7792968 -0.222656,-1.4003906 -0.667968,-1.8632812 -0.439453,-0.459961 -1.113282,-0.6914063 -2.027344,-0.6914063 -0.711914,0 -1.297852,0.1494141 -1.757813,0.4453125 -0.46289,0.2900391 -0.75,0.6796875 -0.867187,1.171875 -0.04102,0.140625 -0.123047,0.2050782 -0.246094,0.1875 l -0.738281,-0.1054687 c -0.158203,-0.029297 -0.219727,-0.084961 -0.1875,-0.1640625 0.123047,-0.7558594 0.533203,-1.3652344 1.230469,-1.8281251 0.694336,-0.46875 1.558593,-0.703125 2.589843,-0.703125 z m -0.609375,9.96093738 c 0.881836,0 1.646485,-0.21386718 2.296875,-0.64453128 0.65625,-0.4365234 0.984375,-1.0429687 0.984375,-1.8164062 v -1.9101563 c 0,-0.052734 -0.0293,-0.082031 -0.08203,-0.082031 h -2.414062 c -1.001953,0 -1.804688,0.2109375 -2.414063,0.6328125 -0.609375,0.421875 -0.914062,1.0019531 -0.914062,1.734375 0,0.6884765 0.237304,1.2070312 0.714843,1.5585937 0.47461,0.35156253 1.083985,0.52734378 1.828125,0.52734378 z M 29.500005,-10.662903 c 0.474609,0 0.881836,0.08203 1.21875,0.246094 0.117187,0.04687 0.158203,0.137695 0.128906,0.269531 l -0.1875,0.6796874 c -0.04102,0.140625 -0.128906,0.1845703 -0.269531,0.1289062 -0.28125,-0.1171875 -0.632813,-0.1669922 -1.054688,-0.1523437 -0.782226,0.017578 -1.429687,0.3164062 -1.945312,0.9023437 -0.509766,0.5800782 -0.761719,1.2861328 -0.761719,2.1210938 v 6.25781248 c 0,0.140625 -0.07031,0.2109375 -0.210938,0.2109375 h -0.691406 c -0.140625,0 -0.210937,-0.0703125 -0.210937,-0.2109375 V -10.369934 c 0,-0.140625 0.07031,-0.210938 0.210937,-0.210938 h 0.691406 c 0.140625,0 0.210938,0.07031 0.210938,0.210938 v 1.4296871 c 0,0.041016 0.0059,0.064453 0.02344,0.070312 0.02344,0.00879 0.04102,-0.011719 0.05859,-0.058594 0.295899,-0.5390625 0.679688,-0.9609375 1.148438,-1.2656251 0.46875,-0.310547 1.013672,-0.46875 1.640625,-0.46875 z m 7.441406,9.84374988 c 0.65625,0 1.21875,-0.14648438 1.6875,-0.44531248 0.46875,-0.3046875 0.834961,-0.7207031 1.101562,-1.2539063 0.07031,-0.1230468 0.158204,-0.1582031 0.269532,-0.1054687 l 0.550781,0.2695312 c 0.123047,0.070312 0.158203,0.1640625 0.105469,0.28125 -0.304688,0.6796875 -0.793946,1.2246094 -1.464844,1.62890628 -0.665039,0.40722656 -1.441406,0.609375 -2.332031,0.609375 -0.984375,0 -1.822266,-0.23730469 -2.507813,-0.71484375 -0.679687,-0.47460933 -1.148437,-1.12500003 -1.40625,-1.94531253 -0.111328,-0.3515625 -0.1875,-0.7412109 -0.234375,-1.171875 -0.04102,-0.4365234 -0.05859,-0.984375 -0.05859,-1.640625 0,-0.6855468 0.01172,-1.2070312 0.03516,-1.5585937 0.02344,-0.3515625 0.07031,-0.6708985 0.140625,-0.9609375 0.216797,-0.881836 0.673828,-1.5878906 1.371093,-2.1210938 0.694336,-0.5390626 1.546875,-0.8085936 2.554688,-0.8085936 1.148437,0 2.0625,0.301758 2.742187,0.9023436 0.685547,0.5947266 1.116211,1.4150391 1.289063,2.4609375 0.03809,0.2666016 0.06445,0.5800782 0.08203,0.9375 0.01465,0.3603516 0.02344,0.8056641 0.02344,1.3359375 0,0.140625 -0.07031,0.2109375 -0.210938,0.2109375 h -6.84375 c -0.06445,0 -0.09375,0.029297 -0.09375,0.082031 0,0.899414 0.03516,1.4941406 0.105469,1.78125 0.155273,0.6884765 0.503906,1.2304687 1.042969,1.6289062 0.539062,0.3984375 1.221679,0.59765628 2.050781,0.59765628 z M 33.894536,-7.5808719 c -0.07031,0.2666016 -0.123047,0.8144532 -0.152344,1.640625 0,0.055664 0.0293,0.082031 0.09375,0.082031 h 5.859375 c 0.05273,0 0.08203,-0.026367 0.08203,-0.082031 0,-0.703125 -0.03516,-1.2304687 -0.105468,-1.5820312 -0.158203,-0.6708985 -0.498047,-1.209961 -1.019532,-1.6171875 -0.515625,-0.413086 -1.148437,-0.6210938 -1.898437,-0.6210938 -0.758789,0 -1.391602,0.1992188 -1.898438,0.5976563 -0.500976,0.3984375 -0.820312,0.9257812 -0.960936,1.5820312 z m 12.688477,7.58203128 c -0.125977,0 -0.210938,-0.05273438 -0.257813,-0.1640625 l -3.480469,-10.18359388 -0.02344,-0.09375 c 0,-0.09375 0.06152,-0.140625 0.1875,-0.140625 h 0.796875 c 0.123047,0 0.210937,0.05566 0.257812,0.164063 l 2.847657,8.6953121 c 0.01465,0.032227 0.03516,0.046875 0.05859,0.046875 0.0293,0 0.05273,-0.014648 0.07031,-0.046875 l 2.859375,-8.6953121 c 0.03809,-0.108399 0.120117,-0.164063 0.246094,-0.164063 l 0.785156,0.02344 c 0.146484,0 0.202148,0.07617 0.164062,0.222656 l -3.46875,10.17187488 c -0.04102,0.11132812 -0.123047,0.1640625 -0.246093,0.1640625 z M 57.835942,-10.733216 c 1.078125,0 1.948242,0.333985 2.613281,0.9960941 0.66211,0.65625 0.996094,1.5234375 0.996094,2.6015625 v 6.92578128 c 0,0.140625 -0.07031,0.2109375 -0.210937,0.2109375 h -0.691407 c -0.140625,0 -0.210937,-0.0703125 -0.210937,-0.2109375 V -6.9246219 c 0,-0.8261718 -0.254883,-1.5029297 -0.761719,-2.0273437 -0.500976,-0.5214844 -1.157226,-0.7851563 -1.96875,-0.7851563 -0.84375,0 -1.523437,0.2548828 -2.039062,0.7617188 -0.515625,0.5097656 -0.773438,1.1777344 -0.773438,2.0039062 v 6.76171878 c 0,0.140625 -0.07031,0.2109375 -0.210937,0.2109375 h -0.691407 c -0.140625,0 -0.210937,-0.0703125 -0.210937,-0.2109375 V -10.369934 c 0,-0.140625 0.07031,-0.210938 0.210937,-0.210938 h 0.691407 c 0.140625,0 0.210937,0.07031 0.210937,0.210938 v 1.0312496 c 0,0.041016 0.0059,0.064453 0.02344,0.070312 0.02344,0.00879 0.04102,-0.00293 0.05859,-0.035156 0.304688,-0.459961 0.706055,-0.8115236 1.207032,-1.0546876 0.506836,-0.249023 1.092773,-0.375 1.757813,-0.375 z m 10.898438,9.91406288 c 0.65625,0 1.21875,-0.14648438 1.6875,-0.44531248 0.46875,-0.3046875 0.834961,-0.7207031 1.101562,-1.2539063 0.07031,-0.1230468 0.158203,-0.1582031 0.269531,-0.1054687 l 0.550782,0.2695312 c 0.123047,0.070312 0.158203,0.1640625 0.105468,0.28125 -0.304687,0.6796875 -0.793945,1.2246094 -1.464843,1.62890628 -0.665039,0.40722656 -1.441407,0.609375 -2.332032,0.609375 -0.984375,0 -1.822265,-0.23730469 -2.507812,-0.71484375 -0.679688,-0.47460933 -1.148438,-1.12500003 -1.40625,-1.94531253 -0.111328,-0.3515625 -0.1875,-0.7412109 -0.234375,-1.171875 -0.04102,-0.4365234 -0.05859,-0.984375 -0.05859,-1.640625 0,-0.6855468 0.01172,-1.2070312 0.03516,-1.5585937 0.02344,-0.3515625 0.07031,-0.6708985 0.140625,-0.9609375 0.216797,-0.881836 0.673829,-1.5878906 1.371094,-2.1210938 0.694336,-0.5390626 1.546875,-0.8085936 2.554688,-0.8085936 1.148437,0 2.0625,0.301758 2.742187,0.9023436 0.685547,0.5947266 1.116211,1.4150391 1.289063,2.4609375 0.03809,0.2666016 0.06445,0.5800782 0.08203,0.9375 0.01465,0.3603516 0.02344,0.8056641 0.02344,1.3359375 0,0.140625 -0.07031,0.2109375 -0.210937,0.2109375 h -6.84375 c -0.06445,0 -0.09375,0.029297 -0.09375,0.082031 0,0.899414 0.03516,1.4941406 0.105469,1.78125 0.155273,0.6884765 0.503906,1.2304687 1.042968,1.6289062 0.539063,0.3984375 1.22168,0.59765628 2.050782,0.59765628 z M 65.687505,-7.5808719 c -0.07031,0.2666016 -0.123047,0.8144532 -0.152344,1.640625 0,0.055664 0.0293,0.082031 0.09375,0.082031 h 5.859375 c 0.05273,0 0.08203,-0.026367 0.08203,-0.082031 0,-0.703125 -0.03516,-1.2304687 -0.105469,-1.5820312 -0.158203,-0.6708985 -0.498046,-1.209961 -1.019531,-1.6171875 -0.515625,-0.413086 -1.148437,-0.6210938 -1.898437,-0.6210938 -0.758789,0 -1.391602,0.1992188 -1.898438,0.5976563 -0.500976,0.3984375 -0.820312,0.9257812 -0.960936,1.5820312 z m 2.273437,-4.4062501 c -0.08789,0 -0.146484,-0.02344 -0.175781,-0.07031 -0.02344,-0.05274 -0.01758,-0.117188 0.02344,-0.1875 l 1.289063,-2.308594 c 0.03809,-0.09375 0.120117,-0.140625 0.246094,-0.140625 h 0.609375 c 0.08496,0 0.140625,0.02344 0.164062,0.07031 0.0293,0.04687 0.02637,0.105469 -0.01172,0.175782 l -1.40625,2.308593 c -0.07031,0.102539 -0.158203,0.152344 -0.257812,0.152344 z M 82.764653,0.00115938 c -0.125976,0 -0.210937,-0.05273438 -0.257812,-0.1640625 l -3.480469,-10.18359388 -0.02344,-0.09375 c 0,-0.09375 0.06152,-0.140625 0.1875,-0.140625 h 0.796875 c 0.123047,0 0.210938,0.05566 0.257813,0.164063 l 2.847656,8.6953121 c 0.01465,0.032227 0.03516,0.046875 0.05859,0.046875 0.0293,0 0.05273,-0.014648 0.07031,-0.046875 l 2.859375,-8.6953121 c 0.03809,-0.108399 0.120118,-0.164063 0.246094,-0.164063 l 0.785156,0.02344 c 0.146485,0 0.202149,0.07617 0.164063,0.222656 l -3.46875,10.17187488 c -0.04102,0.11132812 -0.123047,0.1640625 -0.246094,0.1640625 z M 93.217778,-10.756653 c 1.233399,0 2.170899,0.322266 2.8125,0.9609374 0.647461,0.6416015 0.972656,1.5 0.972656,2.578125 v 7.00781248 c 0,0.140625 -0.07031,0.2109375 -0.210937,0.2109375 h -0.691406 c -0.140625,0 -0.210938,-0.0703125 -0.210938,-0.2109375 V -1.1941531 c 0,-0.029297 -0.01172,-0.049805 -0.03516,-0.058594 -0.02344,-0.014648 -0.04687,-0.011719 -0.07031,0.011719 -0.36914,0.4628906 -0.84375,0.8144531 -1.429687,1.05468748 -0.580078,0.234375 -1.224609,0.3515625 -1.933594,0.3515625 -0.969726,0 -1.790039,-0.24023438 -2.460937,-0.7265625 -0.673828,-0.49218748 -1.007813,-1.24218748 -1.007813,-2.24999998 0,-1.0371094 0.386719,-1.8574219 1.160156,-2.4609375 0.773438,-0.600586 1.831055,-0.9023438 3.175782,-0.9023438 h 2.519531 c 0.05273,0 0.08203,-0.026367 0.08203,-0.082031 v -0.9492188 c 0,-0.7792968 -0.222656,-1.4003906 -0.667969,-1.8632812 -0.439453,-0.459961 -1.113281,-0.6914063 -2.027343,-0.6914063 -0.711914,0 -1.297852,0.1494141 -1.757813,0.4453125 -0.46289,0.2900391 -0.75,0.6796875 -0.867187,1.171875 -0.04102,0.140625 -0.123047,0.2050782 -0.246094,0.1875 l -0.738281,-0.1054687 c -0.158203,-0.029297 -0.219727,-0.084961 -0.1875,-0.1640625 0.123047,-0.7558594 0.533203,-1.3652344 1.230468,-1.8281251 0.694336,-0.46875 1.558594,-0.703125 2.589844,-0.703125 z m -0.609375,9.96093738 c 0.881836,0 1.646485,-0.21386718 2.296875,-0.64453128 0.65625,-0.4365234 0.984375,-1.0429687 0.984375,-1.8164062 v -1.9101563 c 0,-0.052734 -0.0293,-0.082031 -0.08203,-0.082031 H 93.39356 c -1.001953,0 -1.804687,0.2109375 -2.414062,0.6328125 -0.609375,0.421875 -0.914063,1.0019531 -0.914063,1.734375 0,0.6884765 0.237305,1.2070312 0.714844,1.5585937 0.47461,0.35156253 1.083985,0.52734378 1.828125,0.52734378 z M 104.32422,-10.662903 c 0.47461,0 0.88184,0.08203 1.21875,0.246094 0.11719,0.04687 0.15821,0.137695 0.12891,0.269531 l -0.1875,0.6796874 c -0.041,0.140625 -0.12891,0.1845703 -0.26953,0.1289062 -0.28125,-0.1171875 -0.63281,-0.1669922 -1.05469,-0.1523437 -0.78223,0.017578 -1.42969,0.3164062 -1.94531,0.9023437 -0.50977,0.5800782 -0.76172,1.2861328 -0.76172,2.1210938 v 6.25781248 c 0,0.140625 -0.0703,0.2109375 -0.21094,0.2109375 h -0.6914 c -0.14063,0 -0.21094,-0.0703125 -0.21094,-0.2109375 V -10.369934 c 0,-0.140625 0.0703,-0.210938 0.21094,-0.210938 h 0.6914 c 0.14063,0 0.21094,0.07031 0.21094,0.210938 v 1.4296871 c 0,0.041016 0.006,0.064453 0.0234,0.070312 0.0234,0.00879 0.041,-0.011719 0.0586,-0.058594 0.2959,-0.5390625 0.67969,-0.9609375 1.14844,-1.2656251 0.46875,-0.310547 1.01367,-0.46875 1.64062,-0.46875 z m 4.40918,-2.039063 c -0.30468,0 -0.55664,-0.09668 -0.75,-0.292968 -0.19629,-0.19336 -0.29297,-0.448243 -0.29297,-0.761719 0,-0.304688 0.0967,-0.553711 0.29297,-0.75 0.19336,-0.193359 0.44532,-0.292969 0.75,-0.292969 0.31055,0 0.56543,0.09961 0.76172,0.292969 0.19336,0.196289 0.29297,0.445312 0.29297,0.75 0,0.313476 -0.0996,0.568359 -0.29297,0.761719 -0.19629,0.196289 -0.45117,0.292968 -0.76172,0.292968 z m -0.39843,12.67968788 c -0.14063,0 -0.21094,-0.0703125 -0.21094,-0.2109375 V -10.393372 c 0,-0.140625 0.0703,-0.210937 0.21094,-0.210937 h 0.6914 c 0.14063,0 0.21094,0.07031 0.21094,0.210937 v 10.16015638 c 0,0.140625 -0.0703,0.2109375 -0.21094,0.2109375 z m 8.42285,-10.73437488 c 1.2334,0 2.1709,0.322266 2.8125,0.9609374 0.64746,0.6416015 0.97265,1.5 0.97265,2.578125 v 7.00781248 c 0,0.140625 -0.0703,0.2109375 -0.21093,0.2109375 h -0.69141 c -0.14063,0 -0.21094,-0.0703125 -0.21094,-0.2109375 V -1.1941531 c 0,-0.029297 -0.0117,-0.049805 -0.0351,-0.058594 -0.0234,-0.014648 -0.0469,-0.011719 -0.0703,0.011719 -0.36914,0.4628906 -0.84375,0.8144531 -1.42968,1.05468748 -0.58008,0.234375 -1.22461,0.3515625 -1.9336,0.3515625 -0.96972,0 -1.79004,-0.24023438 -2.46094,-0.7265625 -0.67382,-0.49218748 -1.00781,-1.24218748 -1.00781,-2.24999998 0,-1.0371094 0.38672,-1.8574219 1.16016,-2.4609375 0.77344,-0.600586 1.83105,-0.9023438 3.17578,-0.9023438 h 2.51953 c 0.0527,0 0.082,-0.026367 0.082,-0.082031 v -0.9492188 c 0,-0.7792968 -0.22265,-1.4003906 -0.66797,-1.8632812 -0.43945,-0.459961 -1.11328,-0.6914063 -2.02734,-0.6914063 -0.71191,0 -1.29785,0.1494141 -1.75781,0.4453125 -0.46289,0.2900391 -0.75,0.6796875 -0.86719,1.171875 -0.041,0.140625 -0.12305,0.2050782 -0.24609,0.1875 L 113.125,-8.0613406 c -0.1582,-0.029297 -0.21972,-0.084961 -0.1875,-0.1640625 0.12305,-0.7558594 0.53321,-1.3652344 1.23047,-1.8281249 0.69434,-0.46875 1.5586,-0.703125 2.58985,-0.703125 z m -0.60938,9.96093738 c 0.88184,0 1.64649,-0.21386718 2.29688,-0.64453128 0.65625,-0.4365234 0.98437,-1.0429687 0.98437,-1.8164062 v -1.9101563 c 0,-0.052734 -0.0293,-0.082031 -0.082,-0.082031 h -2.41406 c -1.00195,0 -1.80469,0.2109375 -2.41406,0.6328125 -0.60938,0.421875 -0.91407,1.0019531 -0.91407,1.734375 0,0.6884765 0.23731,1.2070312 0.71485,1.5585937 0.47461,0.35156253 1.08398,0.52734378 1.82812,0.52734378 z m 11.8916,-9.93750038 c 1.07813,0 1.94825,0.333985 2.61329,0.9960941 0.6621,0.65625 0.99609,1.5234375 0.99609,2.6015625 v 6.92578128 c 0,0.140625 -0.0703,0.2109375 -0.21094,0.2109375 h -0.6914 c -0.14063,0 -0.21094,-0.0703125 -0.21094,-0.2109375 V -6.9246219 c 0,-0.8261718 -0.25489,-1.5029297 -0.76172,-2.0273437 -0.50098,-0.5214844 -1.15723,-0.7851563 -1.96875,-0.7851563 -0.84375,0 -1.52344,0.2548828 -2.03906,0.7617188 -0.51563,0.5097656 -0.77344,1.1777344 -0.77344,2.0039062 v 6.76171878 c 0,0.140625 -0.0703,0.2109375 -0.21094,0.2109375 h -0.6914 c -0.14063,0 -0.21094,-0.0703125 -0.21094,-0.2109375 V -10.369934 c 0,-0.140625 0.0703,-0.210938 0.21094,-0.210938 h 0.6914 c 0.14063,0 0.21094,0.07031 0.21094,0.210938 v 1.0312496 c 0,0.041016 0.006,0.064453 0.0234,0.070312 0.0234,0.00879 0.041,-0.00293 0.0586,-0.035156 0.30469,-0.459961 0.70605,-0.8115236 1.20703,-1.0546876 0.50684,-0.249023 1.09277,-0.375 1.75781,-0.375 z m 11.52246,0.8906254 c 0,0.1347656 -0.0703,0.1992187 -0.21093,0.1992187 h -2.44922 c -0.0645,0 -0.0937,0.032227 -0.0937,0.09375 v 6.6328125 c 0,0.7119141 0.1582,1.2128907 0.48047,1.5 0.32812,0.2900391 0.84668,0.43359378 1.55859,0.43359378 h 0.49219 c 0.13183,0 0.19922,0.0703125 0.19922,0.2109375 v 0.5625 c 0,0.140625 -0.0674,0.2109375 -0.19922,0.2109375 l -0.63281,0.0234375 c -0.98438,0 -1.72852,-0.1875 -2.22657,-0.5625 -0.49218,-0.38085938 -0.74707,-1.07812498 -0.76172,-2.08593748 v -6.9257813 c 0,-0.061523 -0.0293,-0.09375 -0.082,-0.09375 h -1.2539 c -0.14063,0 -0.21094,-0.064453 -0.21094,-0.1992187 v -0.5273434 c 0,-0.140625 0.0703,-0.210938 0.21094,-0.210938 h 1.2539 c 0.0527,0 0.082,-0.02637 0.082,-0.08203 v -2.402344 c 0,-0.140625 0.0703,-0.210937 0.21094,-0.210937 h 0.67969 c 0.13184,0 0.19922,0.07031 0.19922,0.210937 v 2.402344 c 0,0.05566 0.0293,0.08203 0.0937,0.08203 h 2.44922 c 0.14062,0 0.21093,0.07031 0.21093,0.210938 z m 2.54883,14.0390625 c -0.10254,0 -0.15234,-0.070312 -0.15234,-0.2109375 V 3.4464719 c 0,-0.140625 0.0703,-0.2109375 0.21094,-0.2109375 h 0.082 c 0.53027,-0.017578 0.94336,-0.1054688 1.24219,-0.2695313 0.30468,-0.1582031 0.56543,-0.4541015 0.78515,-0.890625 0.2168,-0.430664 0.47461,-1.10156247 0.77344,-2.01562497 0.0234,-0.05566407 0.0234,-0.09375 0,-0.1171875 l -3.59766,-10.28906263 -0.0234,-0.09375 c 0,-0.09375 0.0645,-0.140625 0.19921,-0.140625 h 0.70313 c 0.13184,0 0.2168,0.05566 0.25781,0.164063 l 2.97656,8.9062496 c 0.0146,0.032227 0.0352,0.046875 0.0586,0.046875 0.0293,0 0.0527,-0.014648 0.0703,-0.046875 l 2.89453,-8.9062496 c 0.0469,-0.108399 0.13184,-0.164063 0.25781,-0.164063 h 0.71485 c 0.15527,0 0.21094,0.0791 0.16406,0.234375 l -3.96094,11.4140626 c -0.32812,0.9140625 -0.63281,1.584961 -0.91406,2.015625 -0.27539,0.4365235 -0.60644,0.7294922 -0.99609,0.8789063 -0.38379,0.1552734 -0.91993,0.234375 -1.60547,0.234375 z M -331.90039,44.24823 c 1.18653,0 2.14454,0.36914 2.8711,1.101562 0.72656,0.735352 1.08984,1.705078 1.08984,2.90625 0,1.195313 -0.36914,2.15625 -1.10156,2.882813 -0.73535,0.726562 -1.70508,1.089843 -2.90625,1.089843 h -4.37109 c -0.0557,0 -0.082,0.0293 -0.082,0.08203 v 6.46875 c 0,0.140625 -0.0703,0.210937 -0.21093,0.210937 h -0.69141 c -0.14062,0 -0.21094,-0.07031 -0.21094,-0.210937 V 44.459167 c 0,-0.140625 0.0703,-0.210937 0.21094,-0.210937 z m -0.082,7.03125 c 0.87305,0 1.58203,-0.272461 2.1211,-0.820313 0.53906,-0.553711 0.80859,-1.280273 0.80859,-2.179687 0,-0.905274 -0.26953,-1.634766 -0.80859,-2.191407 -0.53907,-0.55371 -1.24805,-0.832031 -2.1211,-0.832031 h -4.33593 c -0.0557,0 -0.082,0.0293 -0.082,0.08203 v 5.859375 c 0,0.05566 0.0264,0.08203 0.082,0.08203 z m 10.67871,-2.953125 c 0.47461,0 0.88184,0.08203 1.21875,0.246093 0.11719,0.04687 0.15821,0.137696 0.12891,0.269532 l -0.1875,0.679687 c -0.041,0.140625 -0.12891,0.184571 -0.26953,0.128906 -0.28125,-0.117187 -0.63281,-0.166992 -1.05469,-0.152343 -0.78223,0.01758 -1.42969,0.316406 -1.94531,0.902343 -0.50977,0.580079 -0.76172,1.286133 -0.76172,2.121094 v 6.257813 c 0,0.140625 -0.0703,0.210937 -0.21094,0.210937 h -0.6914 c -0.14063,0 -0.21094,-0.07031 -0.21094,-0.210937 V 48.619323 c 0,-0.140625 0.0703,-0.210937 0.21094,-0.210937 h 0.6914 c 0.14063,0 0.21094,0.07031 0.21094,0.210937 v 1.429688 c 0,0.04102 0.006,0.06445 0.0234,0.07031 0.0234,0.0088 0.041,-0.01172 0.0586,-0.05859 0.2959,-0.539063 0.67969,-0.960938 1.14844,-1.265625 0.46875,-0.310547 1.01367,-0.46875 1.64062,-0.46875 z m 4.40918,-2.039063 c -0.30468,0 -0.55664,-0.09668 -0.75,-0.292969 -0.19629,-0.193359 -0.29297,-0.448242 -0.29297,-0.761718 0,-0.304688 0.0967,-0.553711 0.29297,-0.75 0.19336,-0.19336 0.44532,-0.292969 0.75,-0.292969 0.31055,0 0.56543,0.09961 0.76172,0.292969 0.19336,0.196289 0.29297,0.445312 0.29297,0.75 0,0.313476 -0.0996,0.568359 -0.29297,0.761718 -0.19629,0.19629 -0.45117,0.292969 -0.76172,0.292969 z m -0.39843,12.679688 c -0.14063,0 -0.21094,-0.07031 -0.21094,-0.210938 V 48.595886 c 0,-0.140625 0.0703,-0.210938 0.21094,-0.210938 h 0.6914 c 0.14063,0 0.21094,0.07031 0.21094,0.210938 v 10.160156 c 0,0.140625 -0.0703,0.210938 -0.21094,0.210938 z m 15.41894,-10.710938 c 1.02246,0 1.83985,0.310547 2.44922,0.925781 0.61523,0.618165 0.92578,1.464844 0.92578,2.542969 v 7.054688 c 0,0.140625 -0.0674,0.210937 -0.19922,0.210937 h -0.67968 c -0.14063,0 -0.21094,-0.07031 -0.21094,-0.210937 v -6.84375 c 0,-0.826172 -0.24317,-1.479492 -0.72656,-1.957032 -0.47754,-0.483398 -1.10157,-0.726562 -1.875,-0.726562 -0.81446,0 -1.47071,0.240234 -1.96875,0.714844 -0.49219,0.46875 -0.73829,1.110351 -0.73829,1.921875 v 6.890625 c 0,0.140625 -0.0703,0.210937 -0.21093,0.210937 h -0.66797 c -0.14063,0 -0.21094,-0.07031 -0.21094,-0.210937 v -6.84375 c 0,-0.826172 -0.24023,-1.479492 -0.71484,-1.957032 -0.47754,-0.483398 -1.10157,-0.726562 -1.875,-0.726562 -0.82032,0 -1.47364,0.240234 -1.95703,0.714844 -0.48633,0.46875 -0.72657,1.110351 -0.72657,1.921875 v 6.890625 c 0,0.140625 -0.0703,0.210937 -0.21093,0.210937 h -0.69141 c -0.14063,0 -0.21094,-0.07031 -0.21094,-0.210937 V 48.619323 c 0,-0.140625 0.0703,-0.210937 0.21094,-0.210937 h 0.69141 c 0.14062,0 0.21093,0.07031 0.21093,0.210937 v 0.9375 c 0,0.03223 0.0117,0.05566 0.0352,0.07031 0.0293,0.01758 0.0527,0.0088 0.0703,-0.02344 0.28711,-0.445312 0.68262,-0.779296 1.1836,-1.007812 0.49804,-0.225586 1.06054,-0.339844 1.6875,-0.339844 0.73242,0 1.3623,0.161133 1.88671,0.480469 0.52149,0.313477 0.917,0.755859 1.1836,1.324219 0.0293,0.06445 0.0645,0.07031 0.10547,0.02344 0.29589,-0.600586 0.7207,-1.054687 1.27734,-1.359375 0.5625,-0.310547 1.21289,-0.46875 1.95703,-0.46875 z m 10.3711,-0.02344 c 1.23339,0 2.17089,0.322265 2.8125,0.960937 0.64746,0.641602 0.97265,1.5 0.97265,2.578125 v 7.007813 c 0,0.140625 -0.0703,0.210937 -0.21094,0.210937 h -0.6914 c -0.14063,0 -0.21094,-0.07031 -0.21094,-0.210937 v -0.984375 c 0,-0.0293 -0.0117,-0.0498 -0.0352,-0.05859 -0.0234,-0.01465 -0.0469,-0.01172 -0.0703,0.01172 -0.36914,0.46289 -0.84375,0.814453 -1.42969,1.054687 -0.58007,0.234375 -1.22461,0.351563 -1.93359,0.351563 -0.96973,0 -1.79004,-0.240235 -2.46094,-0.726563 -0.67383,-0.492187 -1.00781,-1.242187 -1.00781,-2.25 0,-1.037109 0.38672,-1.857422 1.16016,-2.460937 0.77343,-0.600586 1.83105,-0.902344 3.17578,-0.902344 h 2.51953 c 0.0527,0 0.082,-0.02637 0.082,-0.08203 v -0.949219 c 0,-0.779297 -0.22266,-1.400391 -0.66797,-1.863281 -0.43945,-0.459961 -1.11328,-0.691407 -2.02734,-0.691407 -0.71192,0 -1.29785,0.149415 -1.75781,0.445313 -0.4629,0.290039 -0.75,0.679687 -0.86719,1.171875 -0.041,0.140625 -0.12305,0.205078 -0.2461,0.1875 l -0.73828,-0.105469 c -0.1582,-0.0293 -0.21972,-0.08496 -0.1875,-0.164062 0.12305,-0.75586 0.53321,-1.365235 1.23047,-1.828125 0.69434,-0.46875 1.5586,-0.703125 2.58985,-0.703125 z m -0.60938,9.960937 c 0.88184,0 1.64648,-0.213867 2.29688,-0.644531 0.65625,-0.436523 0.98437,-1.042969 0.98437,-1.816406 v -1.910157 c 0,-0.05273 -0.0293,-0.08203 -0.082,-0.08203 h -2.41406 c -1.00196,0 -1.80469,0.210938 -2.41407,0.632813 -0.60937,0.421875 -0.91406,1.001953 -0.91406,1.734375 0,0.688476 0.23731,1.207031 0.71485,1.558593 0.4746,0.351563 1.08398,0.527344 1.82812,0.527344 z m 0.0469,-11.191406 c -0.0879,0 -0.14649,-0.02344 -0.17579,-0.07031 -0.0234,-0.05273 -0.0176,-0.117187 0.0234,-0.1875 l 1.28906,-2.308593 c 0.0381,-0.09375 0.12012,-0.140625 0.2461,-0.140625 h 0.60937 c 0.085,0 0.14063,0.02344 0.16407,0.07031 0.0293,0.04687 0.0264,0.105469 -0.0117,0.175781 l -1.40625,2.308594 c -0.0703,0.102539 -0.15821,0.152344 -0.25782,0.152344 z m 11.66894,1.324219 c 0.47461,0 0.88184,0.08203 1.21875,0.246093 0.11719,0.04687 0.1582,0.137696 0.12891,0.269532 l -0.1875,0.679687 c -0.041,0.140625 -0.12891,0.184571 -0.26953,0.128906 -0.28125,-0.117187 -0.63282,-0.166992 -1.05469,-0.152343 -0.78223,0.01758 -1.42969,0.316406 -1.94531,0.902343 -0.50977,0.580079 -0.76172,1.286133 -0.76172,2.121094 v 6.257813 c 0,0.140625 -0.0703,0.210937 -0.21094,0.210937 h -0.69141 c -0.14062,0 -0.21093,-0.07031 -0.21093,-0.210937 V 48.619323 c 0,-0.140625 0.0703,-0.210937 0.21093,-0.210937 h 0.69141 c 0.14062,0 0.21094,0.07031 0.21094,0.210937 v 1.429688 c 0,0.04102 0.006,0.06445 0.0234,0.07031 0.0234,0.0088 0.041,-0.01172 0.0586,-0.05859 0.2959,-0.539063 0.67969,-0.960938 1.14844,-1.265625 0.46875,-0.310547 1.01367,-0.46875 1.64062,-0.46875 z m 7.71387,-0.07031 c 1.07812,0 1.94824,0.333985 2.61328,0.996094 0.66211,0.65625 0.99609,1.523437 0.99609,2.601562 v 6.925782 c 0,0.140625 -0.0703,0.210937 -0.21093,0.210937 h -0.69141 c -0.14063,0 -0.21094,-0.07031 -0.21094,-0.210937 v -6.714844 c 0,-0.826172 -0.25488,-1.50293 -0.76172,-2.027344 -0.50097,-0.521484 -1.15722,-0.785156 -1.96875,-0.785156 -0.84375,0 -1.52343,0.254883 -2.03906,0.761719 -0.51562,0.509765 -0.77344,1.177734 -0.77344,2.003906 v 6.761719 c 0,0.140625 -0.0703,0.210937 -0.21093,0.210937 h -0.69141 c -0.14063,0 -0.21094,-0.07031 -0.21094,-0.210937 V 48.619323 c 0,-0.140625 0.0703,-0.210937 0.21094,-0.210937 h 0.69141 c 0.14062,0 0.21093,0.07031 0.21093,0.210937 v 1.03125 c 0,0.04102 0.006,0.06445 0.0234,0.07031 0.0234,0.0088 0.041,-0.0029 0.0586,-0.03516 0.30469,-0.459961 0.70606,-0.811524 1.20704,-1.054688 0.50683,-0.249023 1.09277,-0.375 1.75781,-0.375 z m 7.0957,10.734375 c -0.14062,0 -0.21094,-0.07031 -0.21094,-0.210937 V 48.619323 c 0,-0.140625 0.0703,-0.210937 0.21094,-0.210937 h 0.69141 c 0.14062,0 0.21093,0.07031 0.21093,0.210937 V 58.77948 c 0,0.140625 -0.0703,0.210937 -0.21093,0.210937 z m -0.21094,-11.988281 c -0.0879,0 -0.14648,-0.02344 -0.17578,-0.07031 -0.0234,-0.05273 -0.0176,-0.117187 0.0234,-0.1875 l 1.28906,-2.308593 c 0.0381,-0.09375 0.12012,-0.140625 0.2461,-0.140625 h 0.60937 c 0.085,0 0.14063,0.02344 0.16406,0.07031 0.0293,0.04687 0.0264,0.105469 -0.0117,0.175781 l -1.40625,2.308594 c -0.0703,0.102539 -0.1582,0.152344 -0.25781,0.152344 z m 16.56739,4.066406 c 0.085,0.328125 0.14062,0.697266 0.16406,1.101563 0.0293,0.407226 0.0469,0.922851 0.0469,1.546875 0,1.180664 -0.0762,2.0625 -0.22265,2.648437 -0.24317,0.852539 -0.69141,1.532227 -1.34766,2.039063 -0.65625,0.500976 -1.46191,0.75 -2.41406,0.75 -0.61817,0 -1.17188,-0.125977 -1.66406,-0.375 -0.49219,-0.249024 -0.88477,-0.603516 -1.17188,-1.066407 -0.0322,-0.0293 -0.0586,-0.04102 -0.082,-0.03516 -0.0176,0.0088 -0.0234,0.03223 -0.0234,0.07031 v 1.03125 c 0,0.140625 -0.0703,0.210937 -0.21094,0.210937 h -0.6914 c -0.14063,0 -0.21094,-0.07031 -0.21094,-0.210937 V 44.506042 c 0,-0.140625 0.0703,-0.210937 0.21094,-0.210937 h 0.6914 c 0.14063,0 0.21094,0.07031 0.21094,0.210937 v 5.15625 c 0,0.04687 0.0117,0.07617 0.0352,0.08203 0.0293,0.0088 0.0527,-0.01172 0.0703,-0.05859 0.28711,-0.459961 0.67969,-0.814453 1.17188,-1.066407 0.49218,-0.257812 1.04589,-0.386718 1.66406,-0.386718 0.97558,0 1.79297,0.257812 2.44922,0.773437 0.66211,0.509766 1.10449,1.195313 1.32422,2.0625 z m -1.17188,5.132813 c 0.0996,-0.28125 0.16992,-0.585938 0.21094,-0.914063 0.0381,-0.328125 0.0586,-0.858398 0.0586,-1.59375 0,-0.741211 -0.0234,-1.280273 -0.0703,-1.617187 -0.0469,-0.333985 -0.13477,-0.647461 -0.25781,-0.9375 -0.17285,-0.5625 -0.49805,-1.019532 -0.97266,-1.371094 -0.47754,-0.357422 -1.04297,-0.539063 -1.69922,-0.539063 -0.6416,0 -1.18359,0.181641 -1.6289,0.539063 -0.43946,0.351562 -0.73536,0.817383 -0.89063,1.394531 -0.10254,0.275391 -0.17285,0.583008 -0.21094,0.925781 -0.041,0.345704 -0.0586,0.887696 -0.0586,1.628907 0,0.720703 0.0147,1.248047 0.0469,1.582031 0.0381,0.336914 0.10547,0.638672 0.19922,0.902344 0.15528,0.585937 0.45118,1.063476 0.89063,1.429687 0.44531,0.360352 1.00195,0.539063 1.67578,0.539063 0.6709,0 1.24805,-0.178711 1.73437,-0.539063 0.49219,-0.366211 0.81446,-0.84375 0.97266,-1.429687 z m 8.20606,-7.96875 c 1.23339,0 2.17089,0.322265 2.8125,0.960937 0.64746,0.641602 0.97265,1.5 0.97265,2.578125 v 7.007813 c 0,0.140625 -0.0703,0.210937 -0.21094,0.210937 h -0.6914 c -0.14063,0 -0.21094,-0.07031 -0.21094,-0.210937 v -0.984375 c 0,-0.0293 -0.0117,-0.0498 -0.0352,-0.05859 -0.0234,-0.01465 -0.0469,-0.01172 -0.0703,0.01172 -0.36914,0.46289 -0.84375,0.814453 -1.42969,1.054687 -0.58007,0.234375 -1.2246,0.351563 -1.93359,0.351563 -0.96973,0 -1.79004,-0.240235 -2.46094,-0.726563 -0.67382,-0.492187 -1.00781,-1.242187 -1.00781,-2.25 0,-1.037109 0.38672,-1.857422 1.16016,-2.460937 0.77343,-0.600586 1.83105,-0.902344 3.17578,-0.902344 h 2.51953 c 0.0527,0 0.082,-0.02637 0.082,-0.08203 v -0.949219 c 0,-0.779297 -0.22266,-1.400391 -0.66797,-1.863281 -0.43945,-0.459961 -1.11328,-0.691407 -2.02734,-0.691407 -0.71192,0 -1.29785,0.149415 -1.75781,0.445313 -0.46289,0.290039 -0.75,0.679687 -0.86719,1.171875 -0.041,0.140625 -0.12305,0.205078 -0.2461,0.1875 l -0.73828,-0.105469 c -0.1582,-0.0293 -0.21972,-0.08496 -0.1875,-0.164062 0.12305,-0.75586 0.53321,-1.365235 1.23047,-1.828125 0.69434,-0.46875 1.5586,-0.703125 2.58985,-0.703125 z m -0.60938,9.960937 c 0.88184,0 1.64649,-0.213867 2.29688,-0.644531 0.65625,-0.436523 0.98437,-1.042969 0.98437,-1.816406 v -1.910157 c 0,-0.05273 -0.0293,-0.08203 -0.082,-0.08203 h -2.41406 c -1.00196,0 -1.80469,0.210938 -2.41407,0.632813 -0.60937,0.421875 -0.91406,1.001953 -0.91406,1.734375 0,0.688476 0.23731,1.207031 0.71485,1.558593 0.47461,0.351563 1.08398,0.527344 1.82812,0.527344 z m 11.71582,-9.867187 c 0.47461,0 0.88184,0.08203 1.21875,0.246093 0.11719,0.04687 0.1582,0.137696 0.12891,0.269532 l -0.1875,0.679687 c -0.041,0.140625 -0.12891,0.184571 -0.26953,0.128906 -0.28125,-0.117187 -0.63282,-0.166992 -1.05469,-0.152343 -0.78223,0.01758 -1.42969,0.316406 -1.94531,0.902343 -0.50977,0.580079 -0.76172,1.286133 -0.76172,2.121094 v 6.257813 c 0,0.140625 -0.0703,0.210937 -0.21094,0.210937 h -0.69141 c -0.14062,0 -0.21093,-0.07031 -0.21093,-0.210937 V 48.619323 c 0,-0.140625 0.0703,-0.210937 0.21093,-0.210937 h 0.69141 c 0.14062,0 0.21094,0.07031 0.21094,0.210937 v 1.429688 c 0,0.04102 0.006,0.06445 0.0234,0.07031 0.0234,0.0088 0.041,-0.01172 0.0586,-0.05859 0.2959,-0.539063 0.67969,-0.960938 1.14844,-1.265625 0.46875,-0.310547 1.01367,-0.46875 1.64062,-0.46875 z m 7.44141,9.84375 c 0.65625,0 1.21875,-0.146485 1.6875,-0.445313 0.46875,-0.304687 0.83496,-0.720703 1.10156,-1.253906 0.0703,-0.123047 0.1582,-0.158203 0.26953,-0.105469 l 0.55078,0.269531 c 0.12305,0.07031 0.15821,0.164063 0.10547,0.28125 -0.30469,0.679688 -0.79394,1.22461 -1.46484,1.628907 -0.66504,0.407226 -1.44141,0.609375 -2.33203,0.609375 -0.98438,0 -1.82227,-0.237305 -2.50782,-0.714844 -0.67968,-0.474609 -1.14843,-1.125 -1.40625,-1.945313 -0.11132,-0.351562 -0.1875,-0.74121 -0.23437,-1.171875 -0.041,-0.436523 -0.0586,-0.984375 -0.0586,-1.640625 0,-0.685546 0.0117,-1.207031 0.0352,-1.558593 0.0234,-0.351563 0.0703,-0.670899 0.14063,-0.960938 0.21679,-0.881836 0.67382,-1.58789 1.37109,-2.121094 0.69434,-0.539062 1.54687,-0.808593 2.55469,-0.808593 1.14843,0 2.0625,0.301758 2.74218,0.902343 0.68555,0.594727 1.11622,1.41504 1.28907,2.460938 0.0381,0.266602 0.0644,0.580078 0.082,0.9375 0.0146,0.360352 0.0234,0.805664 0.0234,1.335937 0,0.140625 -0.0703,0.210938 -0.21094,0.210938 h -6.84375 c -0.0645,0 -0.0937,0.0293 -0.0937,0.08203 0,0.899414 0.0351,1.494141 0.10547,1.78125 0.15527,0.688477 0.5039,1.230469 1.04297,1.628906 0.53906,0.398438 1.22168,0.597657 2.05078,0.597657 z m -3.04688,-6.761719 c -0.0703,0.266602 -0.12304,0.814453 -0.15234,1.640625 0,0.05566 0.0293,0.08203 0.0937,0.08203 h 5.85937 c 0.0527,0 0.082,-0.02637 0.082,-0.08203 0,-0.703125 -0.0351,-1.230469 -0.10546,-1.582031 -0.15821,-0.670899 -0.49805,-1.209961 -1.01954,-1.617188 -0.51562,-0.413086 -1.14843,-0.621094 -1.89843,-0.621094 -0.75879,0 -1.3916,0.199219 -1.89844,0.597657 -0.50098,0.398437 -0.82031,0.925781 -0.96094,1.582031 z m 12.69141,7.582031 c -0.12598,0 -0.21094,-0.05273 -0.25781,-0.164062 l -3.48047,-10.183594 -0.0234,-0.09375 c 0,-0.09375 0.0615,-0.140625 0.1875,-0.140625 h 0.79687 c 0.12305,0 0.21094,0.05566 0.25782,0.164062 l 2.84765,8.695313 c 0.0146,0.03223 0.0352,0.04687 0.0586,0.04687 0.0293,0 0.0527,-0.01465 0.0703,-0.04687 l 2.85937,-8.695313 c 0.0381,-0.108398 0.12012,-0.164062 0.2461,-0.164062 l 0.78515,0.02344 c 0.14649,0 0.20215,0.07617 0.16407,0.222657 l -3.46875,10.171875 c -0.041,0.111328 -0.12305,0.164062 -0.2461,0.164062 z m 11.25293,-10.734375 c 1.07812,0 1.94824,0.333985 2.61328,0.996094 0.66211,0.65625 0.99609,1.523437 0.99609,2.601562 v 6.925782 c 0,0.140625 -0.0703,0.210937 -0.21093,0.210937 h -0.69141 c -0.14063,0 -0.21094,-0.07031 -0.21094,-0.210937 v -6.714844 c 0,-0.826172 -0.25488,-1.50293 -0.76172,-2.027344 -0.50097,-0.521484 -1.15722,-0.785156 -1.96875,-0.785156 -0.84375,0 -1.52343,0.254883 -2.03906,0.761719 -0.51562,0.509765 -0.77344,1.177734 -0.77344,2.003906 v 6.761719 c 0,0.140625 -0.0703,0.210937 -0.21093,0.210937 h -0.69141 c -0.14063,0 -0.21094,-0.07031 -0.21094,-0.210937 V 48.619323 c 0,-0.140625 0.0703,-0.210937 0.21094,-0.210937 h 0.69141 c 0.14062,0 0.21093,0.07031 0.21093,0.210937 v 1.03125 c 0,0.04102 0.006,0.06445 0.0234,0.07031 0.0234,0.0088 0.041,-0.0029 0.0586,-0.03516 0.30469,-0.459961 0.70606,-0.811524 1.20704,-1.054688 0.50683,-0.249023 1.09277,-0.375 1.75781,-0.375 z m 10.62305,-0.02344 c 1.23339,0 2.17089,0.322265 2.8125,0.960937 0.64746,0.641602 0.97265,1.5 0.97265,2.578125 v 7.007813 c 0,0.140625 -0.0703,0.210937 -0.21094,0.210937 h -0.6914 c -0.14063,0 -0.21094,-0.07031 -0.21094,-0.210937 v -0.984375 c 0,-0.0293 -0.0117,-0.0498 -0.0352,-0.05859 -0.0234,-0.01465 -0.0469,-0.01172 -0.0703,0.01172 -0.36914,0.46289 -0.84375,0.814453 -1.42969,1.054687 -0.58007,0.234375 -1.22461,0.351563 -1.93359,0.351563 -0.96973,0 -1.79004,-0.240235 -2.46094,-0.726563 -0.67383,-0.492187 -1.00781,-1.242187 -1.00781,-2.25 0,-1.037109 0.38672,-1.857422 1.16016,-2.460937 0.77343,-0.600586 1.83105,-0.902344 3.17578,-0.902344 h 2.51953 c 0.0527,0 0.082,-0.02637 0.082,-0.08203 v -0.949219 c 0,-0.779297 -0.22266,-1.400391 -0.66797,-1.863281 -0.43945,-0.459961 -1.11328,-0.691407 -2.02734,-0.691407 -0.71192,0 -1.29785,0.149415 -1.75781,0.445313 -0.4629,0.290039 -0.75,0.679687 -0.86719,1.171875 -0.041,0.140625 -0.12305,0.205078 -0.2461,0.1875 l -0.73828,-0.105469 c -0.1582,-0.0293 -0.21972,-0.08496 -0.1875,-0.164062 0.12305,-0.75586 0.53321,-1.365235 1.23047,-1.828125 0.69434,-0.46875 1.5586,-0.703125 2.58985,-0.703125 z m -0.60938,9.960937 c 0.88184,0 1.64648,-0.213867 2.29688,-0.644531 0.65625,-0.436523 0.98437,-1.042969 0.98437,-1.816406 v -1.910157 c 0,-0.05273 -0.0293,-0.08203 -0.082,-0.08203 h -2.41406 c -1.00196,0 -1.80469,0.210938 -2.41407,0.632813 -0.60937,0.421875 -0.91406,1.001953 -0.91406,1.734375 0,0.688476 0.23731,1.207031 0.71485,1.558593 0.4746,0.351563 1.08398,0.527344 1.82812,0.527344 z m 0.0469,-11.191406 c -0.0879,0 -0.14649,-0.02344 -0.17579,-0.07031 -0.0234,-0.05273 -0.0176,-0.117187 0.0234,-0.1875 l 1.28906,-2.308593 c 0.0381,-0.09375 0.12012,-0.140625 0.2461,-0.140625 h 0.60937 c 0.085,0 0.14063,0.02344 0.16407,0.07031 0.0293,0.04687 0.0264,0.105469 -0.0117,0.175781 l -1.40625,2.308594 c -0.0703,0.102539 -0.15821,0.152344 -0.25782,0.152344 z m 14.53125,11.988281 c -0.12598,0 -0.21094,-0.05273 -0.25782,-0.164062 l -3.48047,-10.183594 -0.0234,-0.09375 c 0,-0.09375 0.0615,-0.140625 0.1875,-0.140625 h 0.79687 c 0.12305,0 0.21094,0.05566 0.25781,0.164062 l 2.84766,8.695313 c 0.0147,0.03223 0.0352,0.04687 0.0586,0.04687 0.0293,0 0.0527,-0.01465 0.0703,-0.04687 l 2.85937,-8.695313 c 0.0381,-0.108398 0.12012,-0.164062 0.2461,-0.164062 l 0.78515,0.02344 c 0.14649,0 0.20215,0.07617 0.16406,0.222657 l -3.46875,10.171875 c -0.041,0.111328 -0.12304,0.164062 -0.24609,0.164062 z m 10.45312,-10.757812 c 1.2334,0 2.1709,0.322265 2.8125,0.960937 0.64746,0.641602 0.97266,1.5 0.97266,2.578125 v 7.007813 c 0,0.140625 -0.0703,0.210937 -0.21094,0.210937 h -0.69141 c -0.14062,0 -0.21093,-0.07031 -0.21093,-0.210937 v -0.984375 c 0,-0.0293 -0.0117,-0.0498 -0.0352,-0.05859 -0.0234,-0.01465 -0.0469,-0.01172 -0.0703,0.01172 -0.36914,0.46289 -0.84375,0.814453 -1.42969,1.054687 -0.58008,0.234375 -1.22461,0.351563 -1.93359,0.351563 -0.96973,0 -1.79004,-0.240235 -2.46094,-0.726563 -0.67383,-0.492187 -1.00781,-1.242187 -1.00781,-2.25 0,-1.037109 0.38671,-1.857422 1.16015,-2.460937 0.77344,-0.600586 1.83106,-0.902344 3.17578,-0.902344 h 2.51953 c 0.0527,0 0.082,-0.02637 0.082,-0.08203 v -0.949219 c 0,-0.779297 -0.22266,-1.400391 -0.66797,-1.863281 -0.43946,-0.459961 -1.11328,-0.691407 -2.02735,-0.691407 -0.71191,0 -1.29785,0.149415 -1.75781,0.445313 -0.46289,0.290039 -0.75,0.679687 -0.86719,1.171875 -0.041,0.140625 -0.12304,0.205078 -0.24609,0.1875 l -0.73828,-0.105469 c -0.15821,-0.0293 -0.21973,-0.08496 -0.1875,-0.164062 0.12304,-0.75586 0.5332,-1.365235 1.23047,-1.828125 0.69433,-0.46875 1.55859,-0.703125 2.58984,-0.703125 z m -0.60937,9.960937 c 0.88183,0 1.64648,-0.213867 2.29687,-0.644531 0.65625,-0.436523 0.98438,-1.042969 0.98438,-1.816406 v -1.910157 c 0,-0.05273 -0.0293,-0.08203 -0.082,-0.08203 h -2.41406 c -1.00195,0 -1.80469,0.210938 -2.41406,0.632813 -0.60938,0.421875 -0.91406,1.001953 -0.91406,1.734375 0,0.688476 0.2373,1.207031 0.71484,1.558593 0.47461,0.351563 1.08398,0.527344 1.82813,0.527344 z m 11.71582,-9.867187 c 0.4746,0 0.88183,0.08203 1.21875,0.246093 0.11718,0.04687 0.1582,0.137696 0.1289,0.269532 l -0.1875,0.679687 c -0.041,0.140625 -0.1289,0.184571 -0.26953,0.128906 -0.28125,-0.117187 -0.63281,-0.166992 -1.05469,-0.152343 -0.78222,0.01758 -1.42968,0.316406 -1.94531,0.902343 -0.50977,0.580079 -0.76172,1.286133 -0.76172,2.121094 v 6.257813 c 0,0.140625 -0.0703,0.210937 -0.21094,0.210937 h -0.6914 c -0.14063,0 -0.21094,-0.07031 -0.21094,-0.210937 V 48.619323 c 0,-0.140625 0.0703,-0.210937 0.21094,-0.210937 h 0.6914 c 0.14063,0 0.21094,0.07031 0.21094,0.210937 v 1.429688 c 0,0.04102 0.006,0.06445 0.0234,0.07031 0.0234,0.0088 0.041,-0.01172 0.0586,-0.05859 0.2959,-0.539063 0.67969,-0.960938 1.14844,-1.265625 0.46875,-0.310547 1.01367,-0.46875 1.64063,-0.46875 z m 4.40918,-2.039063 c -0.30469,0 -0.55665,-0.09668 -0.75,-0.292969 -0.19629,-0.193359 -0.29297,-0.448242 -0.29297,-0.761718 0,-0.304688 0.0967,-0.553711 0.29297,-0.75 0.19335,-0.19336 0.44531,-0.292969 0.75,-0.292969 0.31054,0 0.56542,0.09961 0.76171,0.292969 0.19336,0.196289 0.29297,0.445312 0.29297,0.75 0,0.313476 -0.0996,0.568359 -0.29297,0.761718 -0.19629,0.19629 -0.45117,0.292969 -0.76171,0.292969 z m -0.39844,12.679688 c -0.14063,0 -0.21094,-0.07031 -0.21094,-0.210938 V 48.595886 c 0,-0.140625 0.0703,-0.210938 0.21094,-0.210938 h 0.6914 c 0.14063,0 0.21094,0.07031 0.21094,0.210938 v 10.160156 c 0,0.140625 -0.0703,0.210938 -0.21094,0.210938 z m 8.42285,-10.734375 c 1.2334,0 2.1709,0.322265 2.8125,0.960937 0.64746,0.641602 0.97266,1.5 0.97266,2.578125 v 7.007813 c 0,0.140625 -0.0703,0.210937 -0.21094,0.210937 h -0.69141 c -0.14062,0 -0.21094,-0.07031 -0.21094,-0.210937 v -0.984375 c 0,-0.0293 -0.0117,-0.0498 -0.0352,-0.05859 -0.0234,-0.01465 -0.0469,-0.01172 -0.0703,0.01172 -0.36915,0.46289 -0.84375,0.814453 -1.42969,1.054687 -0.58008,0.234375 -1.22461,0.351563 -1.9336,0.351563 -0.96972,0 -1.79003,-0.240235 -2.46093,-0.726563 -0.67383,-0.492187 -1.00782,-1.242187 -1.00782,-2.25 0,-1.037109 0.38672,-1.857422 1.16016,-2.460937 0.77344,-0.600586 1.83106,-0.902344 3.17578,-0.902344 h 2.51953 c 0.0527,0 0.082,-0.02637 0.082,-0.08203 v -0.949219 c 0,-0.779297 -0.22265,-1.400391 -0.66796,-1.863281 -0.43946,-0.459961 -1.11329,-0.691407 -2.02735,-0.691407 -0.71191,0 -1.29785,0.149415 -1.75781,0.445313 -0.46289,0.290039 -0.75,0.679687 -0.86719,1.171875 -0.041,0.140625 -0.12305,0.205078 -0.24609,0.1875 l -0.73828,-0.105469 c -0.15821,-0.0293 -0.21973,-0.08496 -0.1875,-0.164062 0.12304,-0.75586 0.5332,-1.365235 1.23047,-1.828125 0.69433,-0.46875 1.55859,-0.703125 2.58984,-0.703125 z m -0.60938,9.960937 c 0.88184,0 1.64649,-0.213867 2.29688,-0.644531 0.65625,-0.436523 0.98437,-1.042969 0.98437,-1.816406 v -1.910157 c 0,-0.05273 -0.0293,-0.08203 -0.082,-0.08203 h -2.41406 c -1.00195,0 -1.80469,0.210938 -2.41406,0.632813 -0.60938,0.421875 -0.91406,1.001953 -0.91406,1.734375 0,0.688476 0.2373,1.207031 0.71484,1.558593 0.47461,0.351563 1.08398,0.527344 1.82812,0.527344 z m 11.89161,-9.9375 c 1.07812,0 1.94824,0.333985 2.61328,0.996094 0.66211,0.65625 0.99609,1.523437 0.99609,2.601562 v 6.925782 c 0,0.140625 -0.0703,0.210937 -0.21094,0.210937 h -0.6914 c -0.14063,0 -0.21094,-0.07031 -0.21094,-0.210937 v -6.714844 c 0,-0.826172 -0.25488,-1.50293 -0.76172,-2.027344 -0.50098,-0.521484 -1.15723,-0.785156 -1.96875,-0.785156 -0.84375,0 -1.52344,0.254883 -2.03906,0.761719 -0.51563,0.509765 -0.77344,1.177734 -0.77344,2.003906 v 6.761719 c 0,0.140625 -0.0703,0.210937 -0.21094,0.210937 h -0.6914 c -0.14063,0 -0.21094,-0.07031 -0.21094,-0.210937 V 48.619323 c 0,-0.140625 0.0703,-0.210937 0.21094,-0.210937 h 0.6914 c 0.14063,0 0.21094,0.07031 0.21094,0.210937 v 1.03125 c 0,0.04102 0.006,0.06445 0.0234,0.07031 0.0234,0.0088 0.041,-0.0029 0.0586,-0.03516 0.30469,-0.459961 0.70606,-0.811524 1.20703,-1.054688 0.50684,-0.249023 1.09278,-0.375 1.75782,-0.375 z m 11.52539,0.890625 c 0,0.134766 -0.0703,0.199219 -0.21094,0.199219 h -2.44922 c -0.0644,0 -0.0937,0.03223 -0.0937,0.09375 v 6.632812 c 0,0.711915 0.1582,1.212891 0.48047,1.5 0.32812,0.29004 0.84668,0.433594 1.55859,0.433594 h 0.49219 c 0.13184,0 0.19922,0.07031 0.19922,0.210938 v 0.5625 c 0,0.140625 -0.0674,0.210937 -0.19922,0.210937 l -0.63281,0.02344 c -0.98438,0 -1.72852,-0.1875 -2.22656,-0.5625 -0.49219,-0.38086 -0.74708,-1.078125 -0.76172,-2.085938 v -6.925781 c 0,-0.06152 -0.0293,-0.09375 -0.082,-0.09375 h -1.25391 c -0.14063,0 -0.21094,-0.06445 -0.21094,-0.199219 v -0.527344 c 0,-0.140625 0.0703,-0.210937 0.21094,-0.210937 h 1.25391 c 0.0527,0 0.082,-0.02637 0.082,-0.08203 v -2.402344 c 0,-0.140625 0.0703,-0.210938 0.21093,-0.210938 h 0.67969 c 0.13184,0 0.19922,0.07031 0.19922,0.210938 v 2.402344 c 0,0.05566 0.0293,0.08203 0.0937,0.08203 h 2.44922 c 0.14062,0 0.21094,0.07031 0.21094,0.210937 z m 6.63574,-0.914062 c 1.2334,0 2.1709,0.322265 2.8125,0.960937 0.64746,0.641602 0.97265,1.5 0.97265,2.578125 v 7.007813 c 0,0.140625 -0.0703,0.210937 -0.21093,0.210937 h -0.69141 c -0.14062,0 -0.21094,-0.07031 -0.21094,-0.210937 v -0.984375 c 0,-0.0293 -0.0117,-0.0498 -0.0352,-0.05859 -0.0234,-0.01465 -0.0469,-0.01172 -0.0703,0.01172 -0.36914,0.46289 -0.84375,0.814453 -1.42968,1.054687 -0.58008,0.234375 -1.22461,0.351563 -1.9336,0.351563 -0.96972,0 -1.79004,-0.240235 -2.46093,-0.726563 -0.67383,-0.492187 -1.00782,-1.242187 -1.00782,-2.25 0,-1.037109 0.38672,-1.857422 1.16016,-2.460937 0.77344,-0.600586 1.83105,-0.902344 3.17578,-0.902344 h 2.51953 c 0.0527,0 0.082,-0.02637 0.082,-0.08203 v -0.949219 c 0,-0.779297 -0.22265,-1.400391 -0.66797,-1.863281 -0.43945,-0.459961 -1.11328,-0.691407 -2.02734,-0.691407 -0.71191,0 -1.29785,0.149415 -1.75781,0.445313 -0.46289,0.290039 -0.75,0.679687 -0.86719,1.171875 -0.041,0.140625 -0.12305,0.205078 -0.24609,0.1875 l -0.73828,-0.105469 c -0.15821,-0.0293 -0.21973,-0.08496 -0.1875,-0.164062 0.12304,-0.75586 0.5332,-1.365235 1.23046,-1.828125 0.69434,-0.46875 1.5586,-0.703125 2.58985,-0.703125 z m -0.60938,9.960937 c 0.88184,0 1.64649,-0.213867 2.29688,-0.644531 0.65625,-0.436523 0.98437,-1.042969 0.98437,-1.816406 v -1.910157 c 0,-0.05273 -0.0293,-0.08203 -0.082,-0.08203 h -2.41406 c -1.00195,0 -1.80469,0.210938 -2.41406,0.632813 -0.60938,0.421875 -0.91407,1.001953 -0.91407,1.734375 0,0.688476 0.23731,1.207031 0.71485,1.558593 0.47461,0.351563 1.08398,0.527344 1.82812,0.527344 z M -325.41699,236.56464 c 0.0703,-0.0937 0.15528,-0.14063 0.25782,-0.14063 h 0.71484 c 0.14062,0 0.21094,0.0703 0.21094,0.21094 v 14.27344 c 0,0.14062 -0.0703,0.21093 -0.21094,0.21093 h -0.70313 c -0.13476,0 -0.19921,-0.0703 -0.19921,-0.21093 v -12.32813 c 0,-0.0381 -0.0176,-0.0615 -0.0469,-0.0703 -0.0322,-0.006 -0.0527,0.009 -0.0586,0.0469 l -3.70313,5.71875 c -0.0703,0.0937 -0.15234,0.14063 -0.24609,0.14063 h -0.36328 c -0.0937,0 -0.17578,-0.0469 -0.2461,-0.14063 l -3.73828,-5.69531 c -0.0176,-0.0381 -0.041,-0.0498 -0.0703,-0.0352 -0.0234,0.009 -0.0352,0.0352 -0.0352,0.082 v 12.28125 c 0,0.14062 -0.0703,0.21093 -0.21093,0.21093 h -0.69141 c -0.14063,0 -0.21094,-0.0703 -0.21094,-0.21093 v -14.27344 c 0,-0.14063 0.0703,-0.21094 0.21094,-0.21094 h 0.72656 c 0.0996,0 0.1875,0.0469 0.25781,0.14063 l 4.11329,6.30468 c 0.0146,0.0176 0.0352,0.0234 0.0586,0.0234 0.0293,0 0.0527,-0.006 0.0703,-0.0234 z m 8.98828,14.71875 c -0.97851,0 -1.8164,-0.25782 -2.51953,-0.77344 -0.70312,-0.51563 -1.18066,-1.20703 -1.42968,-2.07422 -0.15821,-0.5625 -0.23438,-1.43555 -0.23438,-2.625 0,-1.19531 0.0762,-2.06543 0.23438,-2.61328 0.24902,-0.86719 0.7207,-1.55274 1.41796,-2.0625 0.69434,-0.51563 1.54688,-0.77344 2.55469,-0.77344 0.97559,0 1.81641,0.26367 2.51953,0.78516 0.70899,0.51562 1.18653,1.20117 1.42969,2.05078 0.0762,0.32812 0.13184,0.6914 0.16406,1.08984 0.0293,0.39844 0.0469,0.90821 0.0469,1.52344 0,0.6416 -0.0176,1.15723 -0.0469,1.54687 -0.0322,0.39258 -0.0879,0.75 -0.16406,1.07813 -0.24316,0.86719 -0.7207,1.55859 -1.42969,2.07422 -0.70312,0.51562 -1.55273,0.77344 -2.54297,0.77344 z m 0,-0.98438 c 0.74121,0 1.37403,-0.20508 1.89844,-0.62109 0.52149,-0.41309 0.86133,-0.95508 1.01953,-1.62891 0.0996,-0.375 0.15235,-1.11621 0.15235,-2.22656 0,-1.11621 -0.0439,-1.85742 -0.12891,-2.22656 -0.1582,-0.67969 -0.49805,-1.22168 -1.01953,-1.62891 -0.52442,-0.4043 -1.16602,-0.60938 -1.92188,-0.60938 -0.75879,0 -1.39453,0.20508 -1.91015,0.60938 -0.51563,0.40723 -0.85254,0.94922 -1.00781,1.62891 -0.10254,0.43945 -0.15235,1.18066 -0.15235,2.22656 0,1.05469 0.0498,1.79883 0.15235,2.22656 0.15527,0.68848 0.49218,1.23633 1.00781,1.64063 0.51562,0.40722 1.15136,0.60937 1.91015,0.60937 z m 11.66016,-9.91406 c 1.07813,0 1.94824,0.33398 2.61328,0.99609 0.66211,0.65625 0.9961,1.52344 0.9961,2.60156 v 6.92579 c 0,0.14062 -0.0703,0.21093 -0.21094,0.21093 h -0.69141 c -0.14062,0 -0.21094,-0.0703 -0.21094,-0.21093 v -6.71485 c 0,-0.82617 -0.25488,-1.50293 -0.76171,-2.02734 -0.50098,-0.52149 -1.15723,-0.78516 -1.96875,-0.78516 -0.84375,0 -1.52344,0.25489 -2.03907,0.76172 -0.51562,0.50977 -0.77343,1.17774 -0.77343,2.00391 v 6.76172 c 0,0.14062 -0.0703,0.21093 -0.21094,0.21093 h -0.69141 c -0.14062,0 -0.21094,-0.0703 -0.21094,-0.21093 v -10.16016 c 0,-0.14063 0.0703,-0.21094 0.21094,-0.21094 h 0.69141 c 0.14062,0 0.21094,0.0703 0.21094,0.21094 v 1.03125 c 0,0.041 0.006,0.0644 0.0234,0.0703 0.0234,0.009 0.041,-0.003 0.0586,-0.0352 0.30468,-0.45996 0.70605,-0.81153 1.20703,-1.05469 0.50683,-0.24902 1.09277,-0.375 1.75781,-0.375 z m 10.7666,10.89844 c -0.97851,0 -1.8164,-0.25782 -2.51953,-0.77344 -0.70312,-0.51563 -1.18066,-1.20703 -1.42969,-2.07422 -0.1582,-0.5625 -0.23437,-1.43555 -0.23437,-2.625 0,-1.19531 0.0762,-2.06543 0.23437,-2.61328 0.24903,-0.86719 0.72071,-1.55274 1.41797,-2.0625 0.69434,-0.51563 1.54688,-0.77344 2.55469,-0.77344 0.97559,0 1.81641,0.26367 2.51953,0.78516 0.70898,0.51562 1.18652,1.20117 1.42969,2.05078 0.0762,0.32812 0.13183,0.6914 0.16406,1.08984 0.0293,0.39844 0.0469,0.90821 0.0469,1.52344 0,0.6416 -0.0176,1.15723 -0.0469,1.54687 -0.0322,0.39258 -0.0879,0.75 -0.16406,1.07813 -0.24317,0.86719 -0.72071,1.55859 -1.42969,2.07422 -0.70312,0.51562 -1.55273,0.77344 -2.54297,0.77344 z m 0,-0.98438 c 0.74121,0 1.37403,-0.20508 1.89844,-0.62109 0.52148,-0.41309 0.86133,-0.95508 1.01953,-1.62891 0.0996,-0.375 0.15234,-1.11621 0.15234,-2.22656 0,-1.11621 -0.0439,-1.85742 -0.1289,-2.22656 -0.15821,-0.67969 -0.49805,-1.22168 -1.01953,-1.62891 -0.52442,-0.4043 -1.16602,-0.60938 -1.92188,-0.60938 -0.75879,0 -1.39453,0.20508 -1.91015,0.60938 -0.51563,0.40723 -0.85254,0.94922 -1.00782,1.62891 -0.10254,0.43945 -0.15234,1.18066 -0.15234,2.22656 0,1.05469 0.0498,1.79883 0.15234,2.22656 0.15528,0.68848 0.49219,1.23633 1.00782,1.64063 0.51562,0.40722 1.15136,0.60937 1.91015,0.60937 z m 11.34375,0.98438 c -0.99316,0 -1.83691,-0.25782 -2.53125,-0.77344 -0.69726,-0.51563 -1.16015,-1.20703 -1.39453,-2.07422 -0.1875,-0.6709 -0.28125,-1.54688 -0.28125,-2.625 0,-1.03711 0.0937,-1.91016 0.28125,-2.61328 0.2168,-0.84961 0.67969,-1.53516 1.38281,-2.05078 0.70313,-0.52149 1.54981,-0.78516 2.54297,-0.78516 0.99024,0 1.8457,0.25488 2.56641,0.76172 0.72656,0.50977 1.18652,1.13672 1.38281,1.88672 0.0527,0.19629 0.0937,0.39258 0.11719,0.58594 v 0.0469 c 0,0.10254 -0.0645,0.16406 -0.1875,0.1875 l -0.66797,0.082 h -0.0469 c -0.0937,0 -0.1582,-0.0615 -0.1875,-0.1875 l -0.0586,-0.29297 c -0.12598,-0.58593 -0.4541,-1.07812 -0.98437,-1.47656 -0.53321,-0.39844 -1.17774,-0.59766 -1.9336,-0.59766 -0.77344,0 -1.41797,0.20508 -1.93359,0.60938 -0.50977,0.40723 -0.8291,0.94629 -0.96094,1.61719 -0.13477,0.5332 -0.19922,1.27734 -0.19922,2.23828 0,0.98437 0.0645,1.72851 0.19922,2.22656 0.13184,0.68848 0.45117,1.23633 0.96094,1.64063 0.51562,0.40722 1.16015,0.60937 1.93359,0.60937 0.75586,0 1.40625,-0.19922 1.94531,-0.59766 0.53907,-0.39843 0.86133,-0.89648 0.97266,-1.5 l 0.0234,-0.10546 c 0.0234,-0.15528 0.10547,-0.2168 0.24609,-0.1875 l 0.65625,0.10546 c 0.14063,0.0234 0.20215,0.0996 0.1875,0.22266 l -0.082,0.38672 c -0.19629,0.78223 -0.65625,1.42383 -1.38281,1.92187 -0.72071,0.49219 -1.57617,0.73829 -2.56641,0.73829 z m 11.15332,-10.89844 c 1.07813,0 1.94824,0.33398 2.61328,0.99609 0.66211,0.65625 0.9961,1.52344 0.9961,2.60156 v 6.92579 c 0,0.14062 -0.0703,0.21093 -0.21094,0.21093 h -0.69141 c -0.14062,0 -0.21093,-0.0703 -0.21093,-0.21093 v -6.71485 c 0,-0.82617 -0.25489,-1.50293 -0.76172,-2.02734 -0.50098,-0.52149 -1.15723,-0.78516 -1.96875,-0.78516 -0.84375,0 -1.52344,0.25489 -2.03907,0.76172 -0.51562,0.50977 -0.77343,1.17774 -0.77343,2.00391 v 6.76172 c 0,0.14062 -0.0703,0.21093 -0.21094,0.21093 h -0.69141 c -0.14062,0 -0.21093,-0.0703 -0.21093,-0.21093 v -14.27344 c 0,-0.14063 0.0703,-0.21094 0.21093,-0.21094 h 0.69141 c 0.14062,0 0.21094,0.0703 0.21094,0.21094 v 5.14453 c 0,0.041 0.006,0.0644 0.0234,0.0703 0.0234,0.009 0.041,-0.003 0.0586,-0.0352 0.30469,-0.45996 0.70605,-0.81153 1.20703,-1.05469 0.50684,-0.24902 1.09277,-0.375 1.75781,-0.375 z m 11.10059,0.0703 c 0.47461,0 0.88183,0.082 1.21875,0.24609 0.11719,0.0469 0.1582,0.1377 0.1289,0.26954 l -0.1875,0.67968 c -0.041,0.14063 -0.1289,0.18457 -0.26953,0.12891 -0.28125,-0.11719 -0.63281,-0.16699 -1.05468,-0.15234 -0.78223,0.0176 -1.42969,0.3164 -1.94532,0.90234 -0.50976,0.58008 -0.76172,1.28613 -0.76172,2.12109 v 6.25782 c 0,0.14062 -0.0703,0.21093 -0.21093,0.21093 h -0.69141 c -0.14062,0 -0.21094,-0.0703 -0.21094,-0.21093 v -10.16016 c 0,-0.14063 0.0703,-0.21094 0.21094,-0.21094 h 0.69141 c 0.14062,0 0.21093,0.0703 0.21093,0.21094 v 1.42969 c 0,0.041 0.006,0.0644 0.0234,0.0703 0.0234,0.009 0.041,-0.0117 0.0586,-0.0586 0.29589,-0.53907 0.67968,-0.96094 1.14843,-1.26563 0.46875,-0.31055 1.01367,-0.46875 1.64063,-0.46875 z m 7.3125,10.82813 c -0.97852,0 -1.81641,-0.25782 -2.51953,-0.77344 -0.70313,-0.51563 -1.18067,-1.20703 -1.42969,-2.07422 -0.1582,-0.5625 -0.23438,-1.43555 -0.23438,-2.625 0,-1.19531 0.0762,-2.06543 0.23438,-2.61328 0.24902,-0.86719 0.7207,-1.55274 1.41797,-2.0625 0.69433,-0.51563 1.54687,-0.77344 2.55469,-0.77344 0.97558,0 1.8164,0.26367 2.51953,0.78516 0.70898,0.51562 1.18652,1.20117 1.42968,2.05078 0.0762,0.32812 0.13184,0.6914 0.16407,1.08984 0.0293,0.39844 0.0469,0.90821 0.0469,1.52344 0,0.6416 -0.0176,1.15723 -0.0469,1.54687 -0.0322,0.39258 -0.0879,0.75 -0.16407,1.07813 -0.24316,0.86719 -0.7207,1.55859 -1.42968,2.07422 -0.70313,0.51562 -1.55274,0.77344 -2.54297,0.77344 z m 0,-0.98438 c 0.74121,0 1.37402,-0.20508 1.89844,-0.62109 0.52148,-0.41309 0.86132,-0.95508 1.01953,-1.62891 0.0996,-0.375 0.15234,-1.11621 0.15234,-2.22656 0,-1.11621 -0.0439,-1.85742 -0.12891,-2.22656 -0.1582,-0.67969 -0.49804,-1.22168 -1.01953,-1.62891 -0.52441,-0.4043 -1.16601,-0.60938 -1.92187,-0.60938 -0.75879,0 -1.39453,0.20508 -1.91016,0.60938 -0.51562,0.40723 -0.85254,0.94922 -1.00781,1.62891 -0.10254,0.43945 -0.15234,1.18066 -0.15234,2.22656 0,1.05469 0.0498,1.79883 0.15234,2.22656 0.15527,0.68848 0.49219,1.23633 1.00781,1.64063 0.51563,0.40722 1.15137,0.60937 1.91016,0.60937 z m 17.99707,-9.91406 c 1.02246,0 1.83984,0.31055 2.44922,0.92578 0.61523,0.61816 0.92578,1.46484 0.92578,2.54297 v 7.05469 c 0,0.14062 -0.0674,0.21093 -0.19922,0.21093 h -0.67969 c -0.14062,0 -0.21094,-0.0703 -0.21094,-0.21093 v -6.84375 c 0,-0.82618 -0.24316,-1.4795 -0.72656,-1.95704 -0.47754,-0.48339 -1.10156,-0.72656 -1.875,-0.72656 -0.81445,0 -1.4707,0.24024 -1.96875,0.71485 -0.49219,0.46875 -0.73828,1.11035 -0.73828,1.92187 v 6.89063 c 0,0.14062 -0.0703,0.21093 -0.21094,0.21093 h -0.66797 c -0.14062,0 -0.21093,-0.0703 -0.21093,-0.21093 v -6.84375 c 0,-0.82618 -0.24024,-1.4795 -0.71485,-1.95704 -0.47754,-0.48339 -1.10156,-0.72656 -1.875,-0.72656 -0.82031,0 -1.47363,0.24024 -1.95703,0.71485 -0.48633,0.46875 -0.72656,1.11035 -0.72656,1.92187 v 6.89063 c 0,0.14062 -0.0703,0.21093 -0.21094,0.21093 h -0.6914 c -0.14063,0 -0.21094,-0.0703 -0.21094,-0.21093 v -10.16016 c 0,-0.14063 0.0703,-0.21094 0.21094,-0.21094 h 0.6914 c 0.14063,0 0.21094,0.0703 0.21094,0.21094 v 0.9375 c 0,0.0322 0.0117,0.0557 0.0352,0.0703 0.0293,0.0176 0.0527,0.009 0.0703,-0.0234 0.28711,-0.44531 0.68262,-0.77929 1.18359,-1.00781 0.49805,-0.22558 1.06055,-0.33984 1.6875,-0.33984 0.73242,0 1.36231,0.16113 1.88672,0.48047 0.52149,0.31347 0.91699,0.75586 1.18359,1.32422 0.0293,0.0644 0.0645,0.0703 0.10547,0.0234 0.2959,-0.60058 0.72071,-1.05468 1.27735,-1.35937 0.5625,-0.31055 1.21289,-0.46875 1.95703,-0.46875 z m 11.02734,0 c 1.07813,0 1.94824,0.33398 2.61328,0.99609 0.66211,0.65625 0.9961,1.52344 0.9961,2.60156 v 6.92579 c 0,0.14062 -0.0703,0.21093 -0.21094,0.21093 h -0.69141 c -0.14062,0 -0.21093,-0.0703 -0.21093,-0.21093 v -6.71485 c 0,-0.82617 -0.25489,-1.50293 -0.76172,-2.02734 -0.50098,-0.52149 -1.15723,-0.78516 -1.96875,-0.78516 -0.84375,0 -1.52344,0.25489 -2.03907,0.76172 -0.51562,0.50977 -0.77343,1.17774 -0.77343,2.00391 v 6.76172 c 0,0.14062 -0.0703,0.21093 -0.21094,0.21093 h -0.69141 c -0.14062,0 -0.21093,-0.0703 -0.21093,-0.21093 v -10.16016 c 0,-0.14063 0.0703,-0.21094 0.21093,-0.21094 h 0.69141 c 0.14062,0 0.21094,0.0703 0.21094,0.21094 v 1.03125 c 0,0.041 0.006,0.0644 0.0234,0.0703 0.0234,0.009 0.041,-0.003 0.0586,-0.0352 0.30469,-0.45996 0.70605,-0.81153 1.20703,-1.05469 0.50684,-0.24902 1.09277,-0.375 1.75781,-0.375 z m 7.09278,10.73437 c -0.14063,0 -0.21094,-0.0703 -0.21094,-0.21093 v -10.16016 c 0,-0.14063 0.0703,-0.21094 0.21094,-0.21094 h 0.6914 c 0.14063,0 0.21094,0.0703 0.21094,0.21094 v 10.16016 c 0,0.14062 -0.0703,0.21093 -0.21094,0.21093 z m -0.21094,-11.98828 c -0.0879,0 -0.14649,-0.0234 -0.17578,-0.0703 -0.0234,-0.0527 -0.0176,-0.11719 0.0234,-0.1875 l 1.28907,-2.30859 c 0.0381,-0.0937 0.12011,-0.14063 0.24609,-0.14063 h 0.60938 c 0.085,0 0.14062,0.0234 0.16406,0.0703 0.0293,0.0469 0.0264,0.10547 -0.0117,0.17578 l -1.40625,2.3086 c -0.0703,0.10254 -0.1582,0.15234 -0.25781,0.15234 z m 16.56738,4.06641 c 0.085,0.32812 0.14063,0.69726 0.16406,1.10156 0.0293,0.40723 0.0469,0.92285 0.0469,1.54688 0,1.18066 -0.0762,2.0625 -0.22266,2.64843 -0.24316,0.85254 -0.6914,1.53223 -1.34765,2.03907 -0.65625,0.50097 -1.46192,0.75 -2.41407,0.75 -0.61816,0 -1.17187,-0.12598 -1.66406,-0.375 -0.49219,-0.24903 -0.88476,-0.60352 -1.17187,-1.06641 -0.0322,-0.0293 -0.0586,-0.041 -0.082,-0.0352 -0.0176,0.009 -0.0234,0.0322 -0.0234,0.0703 v 1.03125 c 0,0.14062 -0.0703,0.21093 -0.21094,0.21093 h -0.69141 c -0.14062,0 -0.21093,-0.0703 -0.21093,-0.21093 v -14.27344 c 0,-0.14063 0.0703,-0.21094 0.21093,-0.21094 h 0.69141 c 0.14062,0 0.21094,0.0703 0.21094,0.21094 v 5.15625 c 0,0.0469 0.0117,0.0762 0.0351,0.082 0.0293,0.009 0.0527,-0.0117 0.0703,-0.0586 0.28711,-0.45996 0.67968,-0.81446 1.17187,-1.06641 0.49219,-0.25781 1.0459,-0.38672 1.66406,-0.38672 0.97559,0 1.79297,0.25781 2.44922,0.77344 0.66211,0.50976 1.10449,1.19531 1.32422,2.0625 z m -1.17187,5.13281 c 0.0996,-0.28125 0.16992,-0.58594 0.21093,-0.91406 0.0381,-0.32813 0.0586,-0.8584 0.0586,-1.59375 0,-0.74121 -0.0234,-1.28027 -0.0703,-1.61719 -0.0469,-0.33398 -0.13476,-0.64746 -0.25781,-0.9375 -0.17285,-0.5625 -0.49804,-1.01953 -0.97265,-1.37109 -0.47754,-0.35742 -1.04297,-0.53907 -1.69922,-0.53907 -0.6416,0 -1.1836,0.18165 -1.62891,0.53907 -0.43945,0.35156 -0.73535,0.81738 -0.89062,1.39453 -0.10254,0.27539 -0.17286,0.58301 -0.21094,0.92578 -0.041,0.3457 -0.0586,0.8877 -0.0586,1.62891 0,0.7207 0.0147,1.24804 0.0469,1.58203 0.0381,0.33691 0.10547,0.63867 0.19922,0.90234 0.15527,0.58594 0.45117,1.06348 0.89062,1.42969 0.44532,0.36035 1.00196,0.53906 1.67578,0.53906 0.6709,0 1.24805,-0.17871 1.73438,-0.53906 0.49219,-0.36621 0.81445,-0.84375 0.97266,-1.42969 z m 8.20898,-7.96875 c 1.2334,0 2.1709,0.32227 2.8125,0.96094 0.64746,0.6416 0.97266,1.5 0.97266,2.57812 v 7.00782 c 0,0.14062 -0.0703,0.21093 -0.21094,0.21093 h -0.69141 c -0.14062,0 -0.21093,-0.0703 -0.21093,-0.21093 V 249.924 c 0,-0.0293 -0.0117,-0.0498 -0.0352,-0.0586 -0.0234,-0.0146 -0.0469,-0.0117 -0.0703,0.0117 -0.36914,0.46289 -0.84375,0.81445 -1.42969,1.05468 -0.58008,0.23438 -1.22461,0.35157 -1.93359,0.35157 -0.96973,0 -1.79004,-0.24024 -2.46094,-0.72657 -0.67383,-0.49218 -1.00781,-1.24218 -1.00781,-2.25 0,-1.03711 0.38671,-1.85742 1.16015,-2.46093 0.77344,-0.60059 1.83106,-0.90235 3.17578,-0.90235 h 2.51953 c 0.0527,0 0.082,-0.0264 0.082,-0.082 v -0.94922 c 0,-0.77929 -0.22266,-1.40039 -0.66797,-1.86328 -0.43946,-0.45996 -1.11328,-0.69141 -2.02735,-0.69141 -0.71191,0 -1.29785,0.14942 -1.75781,0.44532 -0.46289,0.29004 -0.75,0.67968 -0.86719,1.17187 -0.041,0.14063 -0.12304,0.20508 -0.24609,0.1875 l -0.73828,-0.10547 c -0.15821,-0.0293 -0.21973,-0.085 -0.1875,-0.16406 0.12304,-0.75586 0.5332,-1.36523 1.23047,-1.82812 0.69433,-0.46875 1.55859,-0.70313 2.58984,-0.70313 z m -0.60937,9.96094 c 0.88183,0 1.64648,-0.21387 2.29687,-0.64453 0.65625,-0.43653 0.98438,-1.04297 0.98438,-1.81641 v -1.91016 c 0,-0.0527 -0.0293,-0.082 -0.082,-0.082 h -2.41406 c -1.00195,0 -1.80469,0.21094 -2.41406,0.63282 -0.60938,0.42187 -0.91406,1.00195 -0.91406,1.73437 0,0.68848 0.2373,1.20703 0.71484,1.55859 0.47461,0.35157 1.08398,0.52735 1.82813,0.52735 z m 11.71582,-9.86719 c 0.4746,0 0.88183,0.082 1.21875,0.24609 0.11718,0.0469 0.1582,0.1377 0.1289,0.26954 l -0.1875,0.67968 c -0.041,0.14063 -0.1289,0.18457 -0.26953,0.12891 -0.28125,-0.11719 -0.63281,-0.16699 -1.05469,-0.15234 -0.78222,0.0176 -1.42968,0.3164 -1.94531,0.90234 -0.50977,0.58008 -0.76172,1.28613 -0.76172,2.12109 v 6.25782 c 0,0.14062 -0.0703,0.21093 -0.21094,0.21093 h -0.6914 c -0.14063,0 -0.21094,-0.0703 -0.21094,-0.21093 v -10.16016 c 0,-0.14063 0.0703,-0.21094 0.21094,-0.21094 h 0.6914 c 0.14063,0 0.21094,0.0703 0.21094,0.21094 v 1.42969 c 0,0.041 0.006,0.0644 0.0234,0.0703 0.0234,0.009 0.041,-0.0117 0.0586,-0.0586 0.2959,-0.53907 0.67969,-0.96094 1.14844,-1.26563 0.46875,-0.31055 1.01367,-0.46875 1.64063,-0.46875 z m 7.4414,9.84375 c 0.65625,0 1.21875,-0.14648 1.6875,-0.44531 0.46875,-0.30469 0.83496,-0.7207 1.10156,-1.25391 0.0703,-0.12304 0.15821,-0.1582 0.26954,-0.10547 l 0.55078,0.26953 c 0.12304,0.0703 0.1582,0.16407 0.10547,0.28125 -0.30469,0.67969 -0.79395,1.22461 -1.46485,1.62891 -0.66504,0.40723 -1.4414,0.60938 -2.33203,0.60938 -0.98437,0 -1.82227,-0.23731 -2.50781,-0.71485 -0.67969,-0.47461 -1.14844,-1.125 -1.40625,-1.94531 -0.11133,-0.35156 -0.1875,-0.74121 -0.23438,-1.17188 -0.041,-0.43652 -0.0586,-0.98437 -0.0586,-1.64062 0,-0.68555 0.0117,-1.20703 0.0352,-1.55859 0.0234,-0.35157 0.0703,-0.6709 0.14062,-0.96094 0.2168,-0.88184 0.67383,-1.58789 1.37109,-2.1211 0.69434,-0.53906 1.54688,-0.80859 2.55469,-0.80859 1.14844,0 2.0625,0.30176 2.74219,0.90234 0.68555,0.59473 1.11621,1.41504 1.28906,2.46094 0.0381,0.2666 0.0644,0.58008 0.082,0.9375 0.0146,0.36035 0.0234,0.80567 0.0234,1.33594 0,0.14062 -0.0703,0.21094 -0.21094,0.21094 h -6.84375 c -0.0645,0 -0.0937,0.0293 -0.0937,0.082 0,0.89941 0.0352,1.49414 0.10547,1.78125 0.15528,0.68848 0.50391,1.23047 1.04297,1.6289 0.53906,0.39844 1.22168,0.59766 2.05078,0.59766 z m -3.04687,-6.76172 c -0.0703,0.2666 -0.12305,0.81446 -0.15235,1.64063 0,0.0557 0.0293,0.082 0.0937,0.082 h 5.85938 c 0.0527,0 0.082,-0.0264 0.082,-0.082 0,-0.70313 -0.0352,-1.23047 -0.10547,-1.58203 -0.1582,-0.6709 -0.49805,-1.20996 -1.01953,-1.61719 -0.51563,-0.41309 -1.14844,-0.6211 -1.89844,-0.6211 -0.75879,0 -1.3916,0.19922 -1.89844,0.59766 -0.50097,0.39844 -0.82031,0.92578 -0.96093,1.58203 z m 12.68847,7.58203 c -0.12597,0 -0.21093,-0.0527 -0.25781,-0.16406 l -3.48047,-10.18359 -0.0234,-0.0937 c 0,-0.0937 0.0615,-0.14063 0.1875,-0.14063 h 0.79688 c 0.12305,0 0.21094,0.0557 0.25781,0.16406 l 2.84766,8.69532 c 0.0146,0.0322 0.0351,0.0469 0.0586,0.0469 0.0293,0 0.0527,-0.0147 0.0703,-0.0469 l 2.85938,-8.69532 c 0.0381,-0.10839 0.12012,-0.16406 0.24609,-0.16406 l 0.78516,0.0234 c 0.14648,0 0.20215,0.0762 0.16406,0.22266 l -3.46875,10.17187 c -0.041,0.11133 -0.12304,0.16406 -0.24609,0.16406 z m 11.25586,-10.73437 c 1.07813,0 1.94824,0.33398 2.61328,0.99609 0.66211,0.65625 0.9961,1.52344 0.9961,2.60156 v 6.92579 c 0,0.14062 -0.0703,0.21093 -0.21094,0.21093 h -0.69141 c -0.14062,0 -0.21093,-0.0703 -0.21093,-0.21093 v -6.71485 c 0,-0.82617 -0.25489,-1.50293 -0.76172,-2.02734 -0.50098,-0.52149 -1.15723,-0.78516 -1.96875,-0.78516 -0.84375,0 -1.52344,0.25489 -2.03906,0.76172 -0.51563,0.50977 -0.77344,1.17774 -0.77344,2.00391 v 6.76172 c 0,0.14062 -0.0703,0.21093 -0.21094,0.21093 h -0.69141 c -0.14062,0 -0.21093,-0.0703 -0.21093,-0.21093 v -10.16016 c 0,-0.14063 0.0703,-0.21094 0.21093,-0.21094 h 0.69141 c 0.14063,0 0.21094,0.0703 0.21094,0.21094 v 1.03125 c 0,0.041 0.006,0.0644 0.0234,0.0703 0.0234,0.009 0.041,-0.003 0.0586,-0.0352 0.30469,-0.45996 0.70605,-0.81153 1.20703,-1.05469 0.50684,-0.24902 1.09277,-0.375 1.75781,-0.375 z m 10.89844,9.91406 c 0.65625,0 1.21875,-0.14648 1.6875,-0.44531 0.46875,-0.30469 0.83496,-0.7207 1.10156,-1.25391 0.0703,-0.12304 0.15821,-0.1582 0.26953,-0.10547 l 0.55079,0.26953 c 0.12304,0.0703 0.1582,0.16407 0.10546,0.28125 -0.30468,0.67969 -0.79394,1.22461 -1.46484,1.62891 -0.66504,0.40723 -1.44141,0.60938 -2.33203,0.60938 -0.98438,0 -1.82227,-0.23731 -2.50781,-0.71485 -0.67969,-0.47461 -1.14844,-1.125 -1.40625,-1.94531 -0.11133,-0.35156 -0.1875,-0.74121 -0.23438,-1.17188 -0.041,-0.43652 -0.0586,-0.98437 -0.0586,-1.64062 0,-0.68555 0.0117,-1.20703 0.0352,-1.55859 0.0234,-0.35157 0.0703,-0.6709 0.14063,-0.96094 0.2168,-0.88184 0.67383,-1.58789 1.37109,-2.1211 0.69434,-0.53906 1.54688,-0.80859 2.55469,-0.80859 1.14844,0 2.0625,0.30176 2.74219,0.90234 0.68554,0.59473 1.11621,1.41504 1.28906,2.46094 0.0381,0.2666 0.0644,0.58008 0.082,0.9375 0.0146,0.36035 0.0234,0.80567 0.0234,1.33594 0,0.14062 -0.0703,0.21094 -0.21094,0.21094 h -6.84375 c -0.0644,0 -0.0937,0.0293 -0.0937,0.082 0,0.89941 0.0352,1.49414 0.10547,1.78125 0.15527,0.68848 0.50391,1.23047 1.04297,1.6289 0.53906,0.39844 1.22168,0.59766 2.05078,0.59766 z m -3.04687,-6.76172 c -0.0703,0.2666 -0.12305,0.81446 -0.15235,1.64063 0,0.0557 0.0293,0.082 0.0937,0.082 h 5.85938 c 0.0527,0 0.082,-0.0264 0.082,-0.082 0,-0.70313 -0.0352,-1.23047 -0.10547,-1.58203 -0.1582,-0.6709 -0.49805,-1.20996 -1.01953,-1.61719 -0.51563,-0.41309 -1.14844,-0.6211 -1.89844,-0.6211 -0.75879,0 -1.3916,0.19922 -1.89844,0.59766 -0.50097,0.39844 -0.82031,0.92578 -0.96093,1.58203 z m 2.27343,-4.40625 c -0.0879,0 -0.14648,-0.0234 -0.17578,-0.0703 -0.0234,-0.0527 -0.0176,-0.11719 0.0234,-0.1875 l 1.28906,-2.30859 c 0.0381,-0.0937 0.12012,-0.14063 0.2461,-0.14063 h 0.60937 c 0.085,0 0.14063,0.0234 0.16406,0.0703 0.0293,0.0469 0.0264,0.10547 -0.0117,0.17578 l -1.40625,2.3086 c -0.0703,0.10254 -0.1582,0.15234 -0.25781,0.15234 z m 14.80078,11.98828 c -0.12597,0 -0.21093,-0.0527 -0.25781,-0.16406 l -3.48047,-10.18359 -0.0234,-0.0937 c 0,-0.0937 0.0615,-0.14063 0.1875,-0.14063 h 0.79687 c 0.12305,0 0.21094,0.0557 0.25781,0.16406 l 2.84766,8.69532 c 0.0147,0.0322 0.0352,0.0469 0.0586,0.0469 0.0293,0 0.0527,-0.0147 0.0703,-0.0469 l 2.85937,-8.69532 c 0.0381,-0.10839 0.12012,-0.16406 0.24609,-0.16406 l 0.78516,0.0234 c 0.14648,0 0.20215,0.0762 0.16406,0.22266 l -3.46875,10.17187 c -0.041,0.11133 -0.12304,0.16406 -0.24609,0.16406 z m 10.45313,-10.75781 c 1.2334,0 2.1709,0.32227 2.8125,0.96094 0.64746,0.6416 0.97266,1.5 0.97266,2.57812 v 7.00782 c 0,0.14062 -0.0703,0.21093 -0.21094,0.21093 h -0.69141 c -0.14062,0 -0.21094,-0.0703 -0.21094,-0.21093 V 249.924 c 0,-0.0293 -0.0117,-0.0498 -0.0352,-0.0586 -0.0234,-0.0146 -0.0469,-0.0117 -0.0703,0.0117 -0.36915,0.46289 -0.84375,0.81445 -1.42969,1.05468 -0.58008,0.23438 -1.22461,0.35157 -1.9336,0.35157 -0.96972,0 -1.79004,-0.24024 -2.46093,-0.72657 -0.67383,-0.49218 -1.00782,-1.24218 -1.00782,-2.25 0,-1.03711 0.38672,-1.85742 1.16016,-2.46093 0.77344,-0.60059 1.83105,-0.90235 3.17578,-0.90235 h 2.51953 c 0.0527,0 0.082,-0.0264 0.082,-0.082 v -0.94922 c 0,-0.77929 -0.22265,-1.40039 -0.66796,-1.86328 -0.43946,-0.45996 -1.11329,-0.69141 -2.02735,-0.69141 -0.71191,0 -1.29785,0.14942 -1.75781,0.44532 -0.46289,0.29004 -0.75,0.67968 -0.86719,1.17187 -0.041,0.14063 -0.12305,0.20508 -0.24609,0.1875 l -0.73828,-0.10547 c -0.15821,-0.0293 -0.21973,-0.085 -0.1875,-0.16406 0.12304,-0.75586 0.5332,-1.36523 1.23047,-1.82812 0.69433,-0.46875 1.55859,-0.70313 2.58984,-0.70313 z m -0.60938,9.96094 c 0.88184,0 1.64649,-0.21387 2.29688,-0.64453 0.65625,-0.43653 0.98437,-1.04297 0.98437,-1.81641 v -1.91016 c 0,-0.0527 -0.0293,-0.082 -0.082,-0.082 h -2.41406 c -1.00195,0 -1.80469,0.21094 -2.41406,0.63282 -0.60938,0.42187 -0.91406,1.00195 -0.91406,1.73437 0,0.68848 0.2373,1.20703 0.71484,1.55859 0.47461,0.35157 1.08398,0.52735 1.82812,0.52735 z m 11.71582,-9.86719 c 0.47461,0 0.88184,0.082 1.21875,0.24609 0.11719,0.0469 0.15821,0.1377 0.12891,0.26954 l -0.1875,0.67968 c -0.041,0.14063 -0.12891,0.18457 -0.26953,0.12891 -0.28125,-0.11719 -0.63281,-0.16699 -1.05469,-0.15234 -0.78222,0.0176 -1.42969,0.3164 -1.94531,0.90234 -0.50977,0.58008 -0.76172,1.28613 -0.76172,2.12109 v 6.25782 c 0,0.14062 -0.0703,0.21093 -0.21094,0.21093 h -0.6914 c -0.14063,0 -0.21094,-0.0703 -0.21094,-0.21093 v -10.16016 c 0,-0.14063 0.0703,-0.21094 0.21094,-0.21094 h 0.6914 c 0.14063,0 0.21094,0.0703 0.21094,0.21094 v 1.42969 c 0,0.041 0.006,0.0644 0.0234,0.0703 0.0234,0.009 0.041,-0.0117 0.0586,-0.0586 0.2959,-0.53907 0.67969,-0.96094 1.14844,-1.26563 0.46875,-0.31055 1.01367,-0.46875 1.64062,-0.46875 z m 4.40918,-2.03906 c -0.30468,0 -0.55664,-0.0967 -0.75,-0.29297 -0.19629,-0.19336 -0.29296,-0.44824 -0.29296,-0.76172 0,-0.30469 0.0967,-0.55371 0.29296,-0.75 0.19336,-0.19336 0.44532,-0.29297 0.75,-0.29297 0.31055,0 0.56543,0.0996 0.76172,0.29297 0.19336,0.19629 0.29297,0.44531 0.29297,0.75 0,0.31348 -0.0996,0.56836 -0.29297,0.76172 -0.19629,0.19629 -0.45117,0.29297 -0.76172,0.29297 z m -0.39843,12.67969 c -0.14063,0 -0.21094,-0.0703 -0.21094,-0.21094 v -10.16016 c 0,-0.14062 0.0703,-0.21094 0.21094,-0.21094 h 0.6914 c 0.14063,0 0.21094,0.0703 0.21094,0.21094 v 10.16016 c 0,0.14062 -0.0703,0.21094 -0.21094,0.21094 z m 8.422848,-10.73438 c 1.233398,0 2.170898,0.32227 2.8125,0.96094 0.647461,0.6416 0.972656,1.5 0.972656,2.57812 v 7.00782 c 0,0.14062 -0.07031,0.21093 -0.210937,0.21093 h -0.691407 c -0.140625,0 -0.210937,-0.0703 -0.210937,-0.21093 V 249.924 c 0,-0.0293 -0.01172,-0.0498 -0.03516,-0.0586 -0.02344,-0.0146 -0.04687,-0.0117 -0.07031,0.0117 -0.369141,0.46289 -0.84375,0.81445 -1.429687,1.05468 -0.580079,0.23438 -1.22461,0.35157 -1.933594,0.35157 -0.969727,0 -1.790039,-0.24024 -2.460938,-0.72657 -0.673828,-0.49218 -1.007812,-1.24218 -1.007812,-2.25 0,-1.03711 0.386719,-1.85742 1.160156,-2.46093 0.773438,-0.60059 1.831055,-0.90235 3.175781,-0.90235 h 2.519532 c 0.05273,0 0.08203,-0.0264 0.08203,-0.082 v -0.94922 c 0,-0.77929 -0.222656,-1.40039 -0.667969,-1.86328 -0.439453,-0.45996 -1.113281,-0.69141 -2.027344,-0.69141 -0.711914,0 -1.297851,0.14942 -1.757812,0.44532 -0.462891,0.29004 -0.75,0.67968 -0.867188,1.17187 -0.04102,0.14063 -0.123047,0.20508 -0.246093,0.1875 l -0.738282,-0.10547 c -0.158203,-0.0293 -0.219726,-0.085 -0.1875,-0.16406 0.123047,-0.75586 0.533203,-1.36523 1.230469,-1.82812 0.694336,-0.46875 1.558594,-0.70313 2.589844,-0.70313 z m -0.609375,9.96094 c 0.881836,0 1.646484,-0.21387 2.296875,-0.64453 0.65625,-0.43653 0.984375,-1.04297 0.984375,-1.81641 v -1.91016 c 0,-0.0527 -0.0293,-0.082 -0.08203,-0.082 h -2.414063 c -1.001953,0 -1.804687,0.21094 -2.414062,0.63282 -0.609375,0.42187 -0.914063,1.00195 -0.914063,1.73437 0,0.68848 0.237305,1.20703 0.714844,1.55859 0.474609,0.35157 1.083984,0.52735 1.828125,0.52735 z m 11.891601,-9.9375 c 1.078125,0 1.948243,0.33398 2.613282,0.99609 0.662109,0.65625 0.996093,1.52344 0.996093,2.60156 v 6.92579 c 0,0.14062 -0.07031,0.21093 -0.210937,0.21093 h -0.691406 c -0.140625,0 -0.210938,-0.0703 -0.210938,-0.21093 v -6.71485 c 0,-0.82617 -0.254883,-1.50293 -0.761719,-2.02734 -0.500976,-0.52149 -1.157226,-0.78516 -1.96875,-0.78516 -0.84375,0 -1.523437,0.25489 -2.039062,0.76172 -0.515625,0.50977 -0.773438,1.17774 -0.773438,2.00391 v 6.76172 c 0,0.14062 -0.07031,0.21093 -0.210937,0.21093 h -0.691406 c -0.140625,0 -0.210938,-0.0703 -0.210938,-0.21093 v -10.16016 c 0,-0.14063 0.07031,-0.21094 0.210938,-0.21094 h 0.691406 c 0.140625,0 0.210937,0.0703 0.210937,0.21094 v 1.03125 c 0,0.041 0.0059,0.0644 0.02344,0.0703 0.02344,0.009 0.04102,-0.003 0.05859,-0.0352 0.304687,-0.45996 0.706054,-0.81153 1.207031,-1.05469 0.506836,-0.24902 1.092773,-0.375 1.757812,-0.375 z m 11.525391,0.89062 c 0,0.13477 -0.07031,0.19922 -0.210937,0.19922 h -2.449219 c -0.06445,0 -0.09375,0.0322 -0.09375,0.0937 v 6.63281 c 0,0.71192 0.158203,1.2129 0.480469,1.5 0.328125,0.29004 0.846679,0.4336 1.558593,0.4336 h 0.492188 c 0.131836,0 0.199219,0.0703 0.199219,0.21094 v 0.5625 c 0,0.14062 -0.06738,0.21093 -0.199219,0.21093 l -0.632813,0.0234 c -0.984375,0 -1.728515,-0.1875 -2.226562,-0.5625 -0.492188,-0.38086 -0.747071,-1.07812 -0.761719,-2.08594 v -6.92578 c 0,-0.0615 -0.0293,-0.0937 -0.08203,-0.0937 h -1.253906 c -0.140625,0 -0.210938,-0.0645 -0.210938,-0.19922 v -0.52734 c 0,-0.14063 0.07031,-0.21094 0.210938,-0.21094 h 1.253906 c 0.05273,0 0.08203,-0.0264 0.08203,-0.082 v -2.40234 c 0,-0.14063 0.07031,-0.21094 0.210938,-0.21094 h 0.679687 c 0.131836,0 0.199219,0.0703 0.199219,0.21094 v 2.40234 c 0,0.0557 0.0293,0.082 0.09375,0.082 h 2.449219 c 0.140625,0 0.210937,0.0703 0.210937,0.21094 z m 2.545898,14.03907 c -0.102539,0 -0.152343,-0.0703 -0.152343,-0.21094 v -0.53906 c 0,-0.14063 0.07031,-0.21094 0.210937,-0.21094 h 0.08203 c 0.530274,-0.0176 0.94336,-0.10547 1.242188,-0.26953 0.304687,-0.15821 0.56543,-0.4541 0.785156,-0.89063 0.216797,-0.43066 0.47461,-1.10156 0.773438,-2.01562 0.02344,-0.0557 0.02344,-0.0937 0,-0.11719 l -3.597657,-10.28906 -0.02344,-0.0937 c 0,-0.0937 0.06445,-0.14063 0.199219,-0.14063 h 0.703125 c 0.131836,0 0.216797,0.0557 0.257812,0.16406 l 2.976563,8.90625 c 0.01465,0.0322 0.03516,0.0469 0.05859,0.0469 0.0293,0 0.05273,-0.0147 0.07031,-0.0469 l 2.894531,-8.90625 c 0.04687,-0.10839 0.131836,-0.16406 0.257813,-0.16406 h 0.714843 c 0.155274,0 0.210938,0.0791 0.164063,0.23438 l -3.960938,11.41406 c -0.328125,0.91406 -0.632812,1.58496 -0.914062,2.01562 -0.275391,0.43653 -0.606445,0.7295 -0.996094,0.87891 -0.383789,0.15527 -0.919922,0.23438 -1.605469,0.23438 z m 0,0"
       style="fill:#231f20;fill-opacity:1;fill-rule:nonzero;stroke:none"
       aria-label="Barevn varianty&#10;Primrn barevn varianta&#10;Monochromn barevn varianty"
       transform="matrix(1.3333333,0,0,1.3333333,5169.4151,167.00627)" />
    <path
       id="path323"
       d="m 0,0 v -4.394 c 0,-0.429 0.055,-0.724 0.167,-0.887 0.111,-0.163 0.33,-0.27 0.656,-0.321 L 2.39,-5.834 v -1.233 h -3.957 -3.367 v 1.233 l 1.593,0.232 c 0.326,0.051 0.54,0.163 0.643,0.334 0.102,0.171 0.154,0.496 0.154,0.976 V 8.249 c 0,0.446 -0.056,0.746 -0.167,0.9 -0.112,0.154 -0.339,0.257 -0.681,0.308 l -1.542,0.232 v 1.233 H 2.39 V 9.689 L 0.771,9.457 C 0.497,9.423 0.3,9.329 0.18,9.175 0.06,9.02 0,8.677 0,8.147 V 1.928 Z"
       style="fill:#100f0d;fill-opacity:1;fill-rule:nonzero;stroke:none"
       transform="matrix(1.3333333,0,0,-1.3333333,5097.4011,264.08773)" />
    <path
       id="path324"
       d="M 0,0 V 1.028 L 1.05,1.225 C 1.283,1.268 1.436,1.359 1.509,1.498 1.582,1.637 1.618,1.895 1.618,2.274 V 8.442 C 1.618,8.966 1.574,9.313 1.487,9.48 1.4,9.648 1.195,9.754 0.875,9.797 L -0.197,9.95 -0.044,11 2.996,11.241 3.258,11.088 3.411,9.141 h 0.066 c 0.394,0.686 0.937,1.232 1.629,1.64 0.693,0.409 1.425,0.613 2.198,0.613 0.773,0 1.425,-0.142 1.958,-0.427 0.532,-0.284 0.936,-0.703 1.213,-1.257 0.277,-0.554 0.416,-1.239 0.416,-2.056 V 2.099 c 0,-0.32 0.044,-0.539 0.131,-0.656 0.087,-0.116 0.27,-0.196 0.547,-0.24 L 12.597,1.028 V 0 H 7.239 v 1.006 l 0.962,0.175 c 0.277,0.058 0.455,0.146 0.536,0.262 0.08,0.117 0.12,0.336 0.12,0.656 V 7.02 C 8.857,7.705 8.788,8.252 8.649,8.66 8.511,9.068 8.281,9.363 7.96,9.546 7.639,9.728 7.209,9.819 6.67,9.819 6.058,9.819 5.525,9.695 5.074,9.447 4.622,9.199 4.272,8.846 4.024,8.387 3.776,7.928 3.652,7.392 3.652,6.779 V 2.187 C 3.652,1.866 3.688,1.64 3.761,1.509 3.834,1.378 3.98,1.29 4.199,1.247 L 5.358,1.006 V 0 Z"
       style="fill:#100f0d;fill-opacity:1;fill-rule:nonzero;stroke:none"
       transform="matrix(1.3333333,0,0,-1.3333333,5116.9827,273.51027)" />
    <path
       id="path325"
       d="m 0,0 v 1.072 l 1.247,0.196 c 0.291,0.044 0.477,0.139 0.557,0.285 0.08,0.145 0.121,0.422 0.121,0.831 v 5.97 c 0,0.525 -0.048,0.875 -0.143,1.05 C 1.687,9.579 1.473,9.688 1.137,9.732 l -1.049,0.153 0.153,1.093 3.455,0.175 0.262,-0.109 V 2.296 c 0,-0.277 0.037,-0.503 0.11,-0.678 0.073,-0.175 0.269,-0.291 0.59,-0.35 L 5.883,1.05 V 0 Z"
       style="fill:#100f0d;fill-opacity:1;fill-rule:nonzero;stroke:none"
       transform="matrix(1.3333333,0,0,-1.3333333,5134.9009,273.584)" />
    <path
       id="path326"
       d="m 0,0 c -0.423,0 -0.773,0.135 -1.05,0.405 -0.277,0.269 -0.415,0.615 -0.415,1.038 0,0.423 0.138,0.773 0.415,1.05 C -0.773,2.77 -0.423,2.909 0,2.909 0.437,2.909 0.794,2.774 1.072,2.504 1.348,2.234 1.487,1.888 1.487,1.465 1.487,1.042 1.348,0.692 1.072,0.415 0.794,0.138 0.437,0 0,0"
       style="fill:#100f0d;fill-opacity:1;fill-rule:nonzero;stroke:none"
       transform="matrix(1.3333333,0,0,-1.3333333,5138.4,255.50533)" />
    <path
       id="path327"
       d="M 0,0 C -0.379,0 -0.711,0.044 -0.995,0.131 -1.279,0.219 -1.56,0.379 -1.837,0.613 -2.114,0.846 -2.435,1.181 -2.799,1.618 l -3.696,4.396 v 0.175 l 3.477,3.127 c 0.189,0.161 0.284,0.329 0.284,0.503 0,0.176 -0.095,0.277 -0.284,0.306 l -0.984,0.154 0.197,1.006 H 1.094 V 10.301 L 0.459,10.125 C 0.24,10.067 0.004,9.976 -0.252,9.852 -0.507,9.728 -0.78,9.542 -1.072,9.295 L -4.33,6.539 -0.7,2.406 c 0.248,-0.277 0.492,-0.5 0.733,-0.667 0.24,-0.168 0.528,-0.252 0.864,-0.252 0.087,0 0.189,0.015 0.306,0.044 C 1.319,1.56 1.501,1.604 1.75,1.662 L 1.968,0.875 C 1.691,0.598 1.378,0.383 1.028,0.23 0.678,0.077 0.335,0 0,0 m -10.607,0.197 v 1.05 l 1.247,0.197 c 0.291,0.043 0.477,0.138 0.557,0.284 0.081,0.145 0.121,0.422 0.121,0.831 v 11.722 c 0,0.51 -0.31,4.928 -0.419,5.081 -0.109,0.153 -0.354,0.424 -0.762,0.482 l -0.977,0.007 0.11,1.075 3.586,0.109 0.252,-0.206 0.297,-18.358 C -6.648,2.121 -6.608,1.877 -6.528,1.739 -6.448,1.6 -6.291,1.502 -6.058,1.444 L -5.27,1.269 V 0.197 Z"
       style="fill:#100f0d;fill-opacity:1;fill-rule:nonzero;stroke:none"
       transform="matrix(1.3333333,0,0,-1.3333333,5109.7643,299.9788)" />
    <path
       id="path328"
       d="m 0,0 c -1.152,0 -2.023,0.317 -2.613,0.951 -0.59,0.635 -0.886,1.564 -0.886,2.788 v 5.009 c 0,0.524 -0.044,0.867 -0.131,1.027 -0.088,0.161 -0.292,0.27 -0.612,0.329 l -0.963,0.153 0.175,1.049 3.302,0.241 0.263,-0.153 v -7.02 c 0,-0.7 0.065,-1.254 0.197,-1.662 0.131,-0.409 0.35,-0.7 0.656,-0.875 0.306,-0.175 0.722,-0.263 1.246,-0.263 0.613,0 1.137,0.124 1.575,0.372 0.437,0.248 0.776,0.602 1.017,1.061 0.241,0.459 0.361,0.995 0.361,1.607 v 4.134 c 0,0.51 -0.041,0.849 -0.12,1.017 -0.081,0.167 -0.288,0.28 -0.624,0.339 l -0.984,0.153 0.175,1.049 3.324,0.241 0.263,-0.153 V 2.515 C 5.621,2.165 5.668,1.928 5.763,1.804 5.857,1.68 6.043,1.589 6.32,1.531 L 7.414,1.334 V 0.306 L 4.024,0.175 3.718,1.946 H 3.652 C 3.273,1.494 2.894,1.126 2.515,0.842 2.136,0.558 1.742,0.346 1.334,0.208 0.926,0.069 0.481,0 0,0"
       style="fill:#100f0d;fill-opacity:1;fill-rule:nonzero;stroke:none"
       transform="matrix(1.3333333,0,0,-1.3333333,5119.3283,300.1536)" />
    <path
       id="path329"
       d="m 0,0 c 0.641,0 1.192,0.178 1.651,0.536 0.459,0.357 0.809,0.871 1.05,1.542 0.24,0.67 0.361,1.472 0.361,2.405 0,0.933 -0.103,1.713 -0.307,2.34 C 2.551,7.45 2.249,7.92 1.848,8.234 1.447,8.547 0.94,8.704 0.328,8.704 -0.314,8.704 -0.864,8.573 -1.323,8.311 -1.783,8.048 -2.136,7.68 -2.384,7.206 -2.632,6.732 -2.756,6.16 -2.756,5.489 V 0.94 C -2.464,0.663 -2.06,0.437 -1.542,0.263 -1.025,0.088 -0.511,0 0,0 m -6.473,-5.861 v 1.05 l 1.049,0.175 c 0.219,0.029 0.379,0.12 0.481,0.273 0.102,0.153 0.154,0.405 0.154,0.755 V 7.261 c 0,0.554 -0.052,0.918 -0.154,1.093 -0.102,0.175 -0.321,0.284 -0.656,0.328 l -1.006,0.132 0.175,1.071 2.996,0.219 0.306,-0.132 0.132,-1.968 h 0.065 c 0.35,0.525 0.722,0.952 1.116,1.28 0.393,0.328 0.827,0.572 1.301,0.732 0.474,0.16 0.987,0.241 1.542,0.241 0.889,0 1.647,-0.219 2.274,-0.656 C 3.929,9.163 4.414,8.536 4.757,7.72 5.099,6.903 5.27,5.927 5.27,4.789 5.27,3.477 5.07,2.354 4.669,1.422 4.268,0.488 3.685,-0.222 2.92,-0.711 2.154,-1.199 1.232,-1.443 0.153,-1.443 c -0.54,0 -1.075,0.065 -1.608,0.197 -0.532,0.131 -0.965,0.306 -1.301,0.525 v -2.822 c 0,-0.349 0.051,-0.605 0.153,-0.765 0.102,-0.16 0.285,-0.262 0.547,-0.306 l 1.334,-0.219 v -1.028 z"
       style="fill:#100f0d;fill-opacity:1;fill-rule:nonzero;stroke:none"
       transform="matrix(1.3333333,0,0,-1.3333333,5138.6175,298.05427)" />
    <path
       id="path330"
       d="M 0,0 C -0.379,0 -0.711,0.044 -0.995,0.131 -1.279,0.219 -1.56,0.379 -1.837,0.613 -2.114,0.846 -2.435,1.181 -2.799,1.618 l -3.696,4.396 v 0.175 l 3.477,3.127 c 0.189,0.161 0.284,0.329 0.284,0.503 0,0.176 -0.095,0.277 -0.284,0.306 l -0.984,0.154 0.197,1.006 H 1.094 V 10.301 L 0.459,10.125 C 0.24,10.067 0.004,9.976 -0.252,9.852 -0.507,9.728 -0.78,9.542 -1.072,9.295 L -4.33,6.539 -0.7,2.406 c 0.248,-0.277 0.492,-0.5 0.733,-0.667 0.24,-0.168 0.528,-0.252 0.864,-0.252 0.087,0 0.189,0.015 0.306,0.044 C 1.319,1.56 1.501,1.604 1.75,1.662 L 1.968,0.875 C 1.691,0.598 1.378,0.383 1.028,0.23 0.678,0.077 0.335,0 0,0"
       style="fill:#100f0d;fill-opacity:1;fill-rule:nonzero;stroke:none"
       transform="matrix(1.3333333,0,0,-1.3333333,5167.3961,299.804)" />
    <path
       id="path331"
       d="M 0,0 C 0.452,0 0.856,0.102 1.214,0.306 1.571,0.51 1.855,0.787 2.067,1.137 2.278,1.487 2.384,1.881 2.384,2.318 V 3.871 C 1.451,3.871 0.674,3.791 0.055,3.63 -0.565,3.47 -1.024,3.229 -1.323,2.909 -1.622,2.588 -1.771,2.18 -1.771,1.684 -1.771,1.159 -1.611,0.747 -1.29,0.448 -0.97,0.15 -0.539,0 0,0 m -0.831,-1.509 c -0.919,0 -1.659,0.27 -2.22,0.809 -0.561,0.539 -0.842,1.254 -0.842,2.144 0,0.801 0.201,1.45 0.602,1.946 0.401,0.495 1.06,0.871 1.979,1.126 0.918,0.255 2.15,0.419 3.696,0.492 V 6.495 C 2.384,7.093 2.3,7.581 2.132,7.961 1.964,8.339 1.709,8.62 1.367,8.803 1.024,8.984 0.576,9.076 0.022,9.076 -0.372,9.076 -0.762,9.014 -1.148,8.89 -1.535,8.766 -1.815,8.609 -1.99,8.42 -1.859,8.201 -1.75,8.012 -1.662,7.851 -1.574,7.69 -1.513,7.56 -1.476,7.457 -1.44,7.355 -1.421,7.268 -1.421,7.195 c 0,-0.277 -0.114,-0.51 -0.339,-0.7 -0.227,-0.189 -0.507,-0.284 -0.842,-0.284 -0.394,0 -0.7,0.098 -0.919,0.295 -0.219,0.197 -0.328,0.478 -0.328,0.842 0,0.51 0.193,0.981 0.579,1.411 0.387,0.43 0.897,0.776 1.531,1.039 0.635,0.262 1.323,0.393 2.067,0.393 0.919,0 1.68,-0.142 2.285,-0.426 C 3.218,9.48 3.67,9.047 3.969,8.464 4.268,7.88 4.418,7.144 4.418,6.255 V 0.984 c 0,-0.321 0.084,-0.561 0.251,-0.721 0.168,-0.161 0.412,-0.241 0.733,-0.241 0.16,0 0.32,0.014 0.481,0.044 0.16,0.029 0.342,0.072 0.547,0.131 L 6.648,-0.634 C 6.386,-0.882 6.065,-1.09 5.686,-1.257 5.307,-1.425 4.957,-1.509 4.636,-1.509 4.009,-1.509 3.524,-1.345 3.182,-1.017 2.839,-0.689 2.632,-0.204 2.559,0.437 2.282,0 1.975,-0.361 1.64,-0.645 1.305,-0.929 0.933,-1.145 0.525,-1.29 0.117,-1.436 -0.335,-1.509 -0.831,-1.509"
       style="fill:#100f0d;fill-opacity:1;fill-rule:nonzero;stroke:none"
       transform="matrix(1.3333333,0,0,-1.3333333,5175.6888,297.7044)" />
    <path
       id="path332"
       d="m 0,0 c 0,0 6.178,0.164 9.444,2.523 3.267,2.359 2.904,10.162 2.904,10.162 0,0 -3.014,-6.921 -4.828,-8.735 C 5.705,2.135 -0.536,1.071 -0.536,1.071 Z"
       style="fill:#e5c9a4;fill-opacity:1;fill-rule:nonzero;stroke:none"
       transform="matrix(1.3333333,0,0,-1.3333333,5100.9143,262.6056)" />
    <path
       id="path333"
       d="m 0,0 c 0,0 6.178,-0.164 9.444,-2.523 3.267,-2.359 2.087,-10.397 2.087,-10.397 0,0 -2.636,6.228 -4.45,8.042 -1.815,1.815 -7.617,3.807 -7.617,3.807 z"
       style="fill:#e5c9a4;fill-opacity:1;fill-rule:nonzero;stroke:none"
       transform="matrix(1.3333333,0,0,-1.3333333,5100.9143,262.64093)" />
    <path
       id="path334"
       d="m 0,0 c -0.156,0 -0.383,-0.289 -0.383,-0.741 0,-0.452 0.227,-0.741 0.383,-0.741 0.156,0 0.383,0.289 0.383,0.741 C 0.383,-0.289 0.156,0 0,0 m 0,-2.279 c -0.662,0 -1.18,0.676 -1.18,1.538 0,0.862 0.518,1.538 1.18,1.538 0.662,0 1.18,-0.676 1.18,-1.538 0,-0.862 -0.518,-1.538 -1.18,-1.538"
       style="fill:#100f0d;fill-opacity:1;fill-rule:nonzero;stroke:none"
       transform="matrix(1.3333333,0,0,-1.3333333,5099.3416,261.61773)" />
    <path
       id="path335"
       d="m 0,0 v 2.01 h 1.047 c 0,0 4.291,1.222 6.874,3.649 2.584,2.428 5.399,8.717 5.43,9.217 0.031,0.501 -0.173,0.568 -0.553,0.354 C 12.418,15.015 9.314,9.447 6.506,6.789 3.821,4.248 -0.339,2.306 -0.339,2.306 c 0,0 0.032,-0.033 -0.373,-0.439 -0.405,-0.405 -0.314,-1.445 0.132,-1.851 0.445,-0.406 0.284,-0.318 0.284,-0.318 0,0 3.767,-2.023 6.221,-4.565 2.454,-2.542 7.246,-8.646 7.55,-9.023 0.078,-0.096 0.257,0.005 0.162,0.224 -0.188,0.437 -4.203,7.061 -6.657,9.69 C 4.526,-1.346 1.047,0 1.047,0 Z"
       style="fill:#100f0d;fill-opacity:1;fill-rule:nonzero;stroke:none"
       transform="matrix(1.3333333,0,0,-1.3333333,5098.8224,263.9456)" />
    <path
       id="path336"
       d="M 0,0 C 0,0 0.664,1.225 2.025,1.225 3.386,1.225 3.878,0 3.878,0 L 3.659,24.347 c 0,0 0.099,3.248 -1.391,3.297 C 0.512,27.702 0.039,26.134 0.146,24.347 0.256,22.528 0,0 0,0"
       style="fill:#e5c9a4;fill-opacity:1;fill-rule:nonzero;stroke:none"
       transform="matrix(1.3333333,0,0,-1.3333333,5150.0625,298.37693)" />
    <path
       id="path337"
       d="m 0,0 c 0.08,0.146 0.121,21.746 0.121,22.112 v 11.841 c 0,0.511 -0.055,0.844 -0.165,0.997 -0.11,0.154 -0.369,0.26 -0.778,0.318 l -0.965,0.154 0.131,1.096 3.575,0.11 0.241,-0.241 v -6.973 -0.198 c 0.336,0.614 0.84,1.108 1.513,1.48 0.672,0.373 1.388,0.56 2.149,0.56 0.774,0 1.428,-0.143 1.962,-0.428 0.534,-0.285 0.939,-0.706 1.217,-1.261 0.278,-0.556 0.417,-1.243 0.417,-2.061 v -5.57 C 9.418,21.615 9.454,0.055 9.527,-0.055 9.6,-0.164 7.177,-0.183 7.258,-0.066 7.338,0.051 7.379,21.615 7.379,21.936 v 4.934 c 0,0.687 -0.07,1.235 -0.209,1.645 -0.139,0.409 -0.369,0.705 -0.691,0.888 -0.321,0.182 -0.753,0.274 -1.293,0.274 -0.614,0 -1.148,-0.125 -1.601,-0.373 C 3.132,29.055 2.781,28.701 2.533,28.241 2.284,27.78 2.16,27.243 2.16,26.629 V 22.024 C 2.16,21.702 2.196,0.132 2.27,0 2.342,-0.132 -0.081,-0.146 0,0"
       style="fill:#100f0d;fill-opacity:1;fill-rule:nonzero;stroke:none"
       transform="matrix(1.3333333,0,0,-1.3333333,5146.2815,299.95613)" />
  </g>
</svg>
