<?xml version="1.0" encoding="UTF-8" standalone="no"?>
<!-- Created with Inkscape (http://www.inkscape.org/) -->

<svg
   width="55mm"
   height="50mm"
   viewBox="0 0 55 50"
   version="1.1"
   id="svg1"
   inkscape:version="1.3.2 (091e20e, 2023-11-25, custom)"
   sodipodi:docname="logo.svg"
   xmlns:inkscape="http://www.inkscape.org/namespaces/inkscape"
   xmlns:sodipodi="http://sodipodi.sourceforge.net/DTD/sodipodi-0.dtd"
   xmlns="http://www.w3.org/2000/svg"
   xmlns:svg="http://www.w3.org/2000/svg">
  <sodipodi:namedview
     id="namedview1"
     pagecolor="#505050"
     bordercolor="#ffffff"
     borderopacity="1"
     inkscape:showpageshadow="0"
     inkscape:pageopacity="0"
     inkscape:pagecheckerboard="1"
     inkscape:deskcolor="#505050"
     inkscape:document-units="mm"
     inkscape:zoom="0.74564394"
     inkscape:cx="396.30175"
     inkscape:cy="561.25984"
     inkscape:window-width="1920"
     inkscape:window-height="1051"
     inkscape:window-x="-9"
     inkscape:window-y="-9"
     inkscape:window-maximized="1"
     inkscape:current-layer="layer1" />
  <defs
     id="defs1" />
  <g
     inkscape:label="Vrstva 1"
     inkscape:groupmode="layer"
     id="layer1">
    <g
       id="layer2"
       style="fill:#000000;fill-opacity:1;stroke:#4e4e4e;stroke-width:0.1;stroke-dasharray:none;stroke-opacity:1"
       inkscape:highlight-color="#ffffff"
       transform="matrix(0.91661382,0,0,0.91383598,-13.15528,-19.050815)">
      <path
         style="fill:#240F0A;fill-opacity:1;stroke:#240F0A;stroke-width:0.1;stroke-dasharray:none;stroke-opacity:1"
         d="m 28.765816,36.46662 c -1.917991,0.0221 -4.129802,0.828546 -4.437946,2.866363 -0.09686,0.640514 0.44136,2.152206 0.04138,2.617345 -0.873958,1.016251 -3.433308,0.02612 -3.422521,2.09981 0.0054,1.060152 2.84646,1.474126 3.711109,1.746206 2.554518,0.803832 5.124568,1.556345 7.680199,2.360527 1.555053,0.48933 3.175403,1.187192 4.822452,1.292678 0.777257,-1.711653 4.345456,-1.780828 6.072723,-2.170852 4.404185,-0.994484 8.795046,-2.03569 13.217093,-2.956905 1.953485,-0.406963 4.238716,-1.364721 6.251322,-1.110796 l -7.144371,1.854705 c 1.206648,1.722072 2.263825,4.002133 -0.535827,4.889677 0.136963,-0.512323 0.181415,-0.98869 0.178607,-1.517486 -0.02234,-4.204929 -4.403957,-2.419717 -7.144373,-1.686098 1.139339,1.626017 2.228073,4.233861 -0.714441,4.889675 0.350828,-1.755987 0.163985,-3.057707 -0.893042,-4.552455 l -8.037421,1.854707 c 0.869409,2.023008 1.880451,5.610605 -1.786097,5.732718 l 0.357221,-1.517485 -3.750797,-1.180263 c -0.356823,1.034393 -0.25264,2.065194 0.893049,2.529141 v 0.168607 c -2.000223,-0.284392 -2.355216,-1.350145 -2.143316,-3.03497 l -5.179673,-1.686091 c 0.0047,1.258474 0.40837,2.303071 1.786092,2.697748 v 0.168607 c -1.097808,-0.03307 -2.363908,-0.432658 -2.772576,-1.517484 -0.227554,-0.604038 0.157856,-1.395105 -0.481256,-1.828164 -1.211278,-0.820751 -2.811418,-1.25181 -2.818884,0.479293 -0.487028,0.05614 -0.952968,0.159239 -1.428877,0.274769 -3.045096,0.73918 -0.796893,2.993968 -1.944858,4.749948 -0.326155,0.498908 -1.095215,0.538304 -1.627332,0.718146 -0.977694,0.330441 -1.869035,0.86204 -2.18879,1.84456 -0.939108,2.885672 2.596094,2.724044 3.637514,4.4096 1.050588,1.700392 -1.37099,2.399076 -1.37099,3.673502 0,0.639417 1.035702,0.899823 1.529758,1.088937 1.696173,0.649258 3.409277,1.523062 5.179666,1.956184 0.472392,-1.061733 1.119498,-1.46289 2.321925,-1.18027 l -0.178613,-0.674436 1.428878,0.168607 V 66.31049 c -1.422893,-0.595077 -0.510841,-1.774997 -0.978218,-2.840604 -0.261382,-0.595951 -1.100251,-0.781866 -1.700919,-0.868801 0,1.08238 0.384055,2.975601 -0.458926,3.840541 -0.781529,0.801895 -3.728552,-0.998542 -4.363525,-1.648621 l 2.857746,0.505828 c -1.039577,-1.218334 -2.670871,-0.780935 -2.67914,-2.697748 l 2.67914,0.843042 c 0,-0.465509 0.140027,-1.189096 -0.158759,-1.590859 -0.619361,-0.832815 -2.788757,-1.375496 -3.770644,-1.747761 -0.78261,-0.296716 -2.378935,-0.662983 -2.268178,-1.719662 0.256152,-2.443749 4.516596,-0.398934 5.661752,0.03358 5.830337,2.201983 11.780758,4.108492 17.503719,6.542203 v 0.168614 l -5.001058,1.271591 -6.429937,-2.283246 c 3.52e-4,0.497837 -0.0736,1.069221 0.263779,1.491726 0.428076,0.536073 1.250439,0.729706 1.879534,0.970286 1.507008,0.576297 3.532474,1.882892 5.179666,1.8547 1.065878,-0.01822 2.359047,-0.825843 3.393582,-0.476948 1.897165,0.639819 3.288044,3.241584 1.977929,4.91075 -0.730163,0.930265 -2.890608,-0.428873 -3.764028,-0.758746 -2.790179,-1.053786 -5.603703,-2.049039 -8.394634,-3.102099 -1.468044,-0.55391 -2.745924,-1.3718 -3.572189,0.337221 3.522362,1.583627 7.271775,2.813196 10.895168,4.181669 1.805586,0.681924 3.915294,1.819504 5.894108,1.875003 1.890394,0.05302 3.905432,-0.843343 5.715501,-1.273164 4.673008,-1.109648 9.296554,-2.428613 13.93153,-3.672718 2.268839,-0.608989 4.518655,-1.275459 6.787156,-1.884365 1.360764,-0.365247 2.983059,-0.625876 4.097264,-1.498755 3.09148,-2.421877 1.26342,-6.846587 -1.953951,-8.012843 0.899044,-2.656066 -0.01236,-5.194919 -3.214968,-5.564112 0.623072,-1.136292 0.788428,-3.715886 -1.071657,-3.999793 -1.376803,-0.210137 -3.47656,0.710122 -4.822452,1.02727 -4.812637,1.134048 -9.655934,2.152371 -14.467357,3.287886 -2.802534,0.661404 -5.871245,1.692069 -8.751862,1.876558 2.037422,-1.91682 5.293636,-2.182489 8.03742,-2.732097 3.82639,-0.766469 7.635774,-1.705268 11.431003,-2.600955 1.67877,-0.396194 3.813293,-0.543993 5.35828,-1.278626 2.045578,-0.972656 2.088713,-4.1515 0.760745,-5.652314 -0.725972,-0.820465 -1.824704,-1.100332 -2.904058,-1.224764 0.201635,-1.558684 0.772012,-3.061901 -0.563112,-4.370575 -0.498876,-0.488984 -1.569823,-0.585715 -1.852247,-1.220079 -0.663267,-1.489777 0.01661,-2.913609 -1.156829,-4.357299 0.461295,-0.03103 1.008093,-0.05333 1.342882,-0.406696 0.399594,-0.421785 0.08704,-0.854214 -0.453964,-0.843048 -2.169599,0.04481 -4.251427,1.279085 -6.425805,1.418351 0,-0.93231 -0.464703,-3.422165 0.263778,-4.109855 0.954493,-0.90106 3.801723,-0.96434 5.094503,-1.26379 0.402503,-0.09323 1.65039,-0.195799 1.409853,-0.842266 -0.201343,-0.541133 -1.266573,-0.664238 -1.767075,-0.79621 -1.721893,-0.454032 -3.457483,-0.865112 -5.179666,-1.31922 -2.759918,-0.72773 -6.068375,-2.035925 -8.930469,-2.119322 -1.20943,-0.03524 -2.397101,0.37738 -3.57219,0.599499 -1.897943,0.358747 -3.816385,0.623021 -5.715501,0.981991 -1.310364,0.247686 -2.611533,0.5556 -3.929403,0.76343 -0.590293,0.09309 -1.587564,0.141632 -2.057317,0.526126 -0.624003,0.510748 1.141612,1.591305 1.163444,2.352721 0.08969,3.12808 -0.356391,6.157328 -0.356391,9.273523 m 2.143313,-5.732718 v -1.348878 l 4.286624,1.123286 5.35828,1.574463 0.178607,-0.674437 -6.787157,-2.023312 -2.772575,-0.969508 -0.263779,-1.391026 c 2.213713,0.273641 4.461687,1.198814 6.608543,1.785231 1.136989,0.31057 2.77589,0.523213 3.739219,1.184171 0.933255,0.640322 1.786651,3.055852 0.487042,3.790585 -0.654571,0.370066 -2.138033,-0.426361 -2.797384,-0.633842 -2.636753,-0.829711 -5.323731,-1.851907 -8.03742,-2.416733 m 18.396759,-1.854707 -0.158766,4.137959 -1.448717,0.520658 -4.108018,0.905495 0.357221,-2.023314 0.893049,-0.505828 c -1.232536,-0.05614 -1.180158,-1.037964 -1.25027,-2.023309 l 5.715501,-1.011656 m 7.680206,0.843049 c 0.741587,-0.08359 1.729293,-0.08333 1.964699,-0.843049 -0.822526,0.0095 -1.72593,-0.01529 -1.964699,0.843049 m -3.214967,0.337215 v 0.337221 c 0.598014,0.01211 0.773846,-0.111132 0.714434,-0.674436 l -0.714434,0.337215 m -5.894109,1.011656 -0.178613,0.505829 h 0.893048 v -0.337218 l -0.714435,-0.168614 m -17.08531,2.113869 c 0.642022,-0.230065 1.826682,0.391987 2.439339,0.583887 2.055974,0.643962 5.242191,0.985324 6.954187,2.262173 0.73836,0.550684 1.345595,3.134663 0.16207,3.555632 -0.66405,0.236196 -1.668936,-0.281886 -2.293804,-0.478514 -1.554229,-0.489068 -3.089299,-1.033407 -4.643846,-1.517486 -0.77178,-0.240324 -1.670966,-0.348296 -2.317787,-0.84382 -0.709366,-0.54344 -1.578976,-3.103622 -0.300159,-3.561872 m 1.010463,1.764151 v 0.674435 l 0.893049,-0.168607 -0.893049,-0.505828 m 25.362531,1.517485 c -0.427792,1.272934 -2.370989,1.255856 -3.57219,1.539343 -3.499174,0.825811 -7.052455,1.468084 -10.537953,2.338676 -0.434131,-1.46739 1.768115,-1.502178 2.857754,-1.720448 2.571205,-0.515043 5.129699,-1.113198 7.680199,-1.714189 1.090579,-0.256983 2.477251,-0.747728 3.57219,-0.443382 m -19.64703,0.33722 c 0.260147,0.880929 1.465107,0.985867 2.321919,1.011658 V 37.309689 L 37.517712,36.80386 m -10.713253,1.598666 c 1.090213,-0.363878 2.710173,0.577654 3.747488,0.860995 3.413287,0.93235 7.173406,2.895218 10.716561,3.177825 1.496626,0.119373 3.37462,-0.596587 4.822452,-0.938282 3.012134,-0.710868 6.071885,-1.399699 9.109078,-2.001455 1.122932,-0.222482 2.790179,-0.988645 3.926094,-0.775136 1.388009,0.260896 1.206762,2.515835 0.302649,3.177035 -0.53603,0.392019 -1.441209,0.462227 -2.085432,0.611213 -1.479911,0.342262 -2.977375,0.624423 -4.465231,0.934375 -2.684764,0.559302 -5.366699,1.145719 -8.037421,1.76338 -1.374912,0.31797 -3.04056,0.901894 -4.465239,0.831336 -1.718719,-0.08513 -3.722321,-1.193946 -5.35828,-1.708734 -1.903861,-0.599085 -3.796719,-1.268901 -5.715494,-1.819573 -0.883058,-0.253434 -2.234567,-0.435341 -2.975997,-0.961702 -0.983831,-0.698447 -0.684301,-2.763087 0.478772,-3.151277 m 31.11358,1.590082 c -0.713576,0.388872 -0.08475,1.404817 0.636717,1.011657 0.710593,-0.387246 0.05927,-1.390937 -0.636717,-1.011657 m -29.152183,0.183438 c 0.297971,1.081812 3.652494,2.137924 4.643838,1.517484 l -4.643838,-1.517484 m 5.35828,1.686098 c 0.518561,1.064046 2.128029,1.268429 3.214968,1.63223 1.093758,0.366082 2.230767,0.915054 3.393576,1.042098 2.197344,0.240084 4.846437,-0.803436 6.965765,-1.303599 1.23425,-0.291287 3.693733,-0.360557 4.286624,-1.539343 l -10.537954,2.02019 -7.322979,-1.851576 m 3.214968,10.622394 C 37.944835,50.706323 35.307198,50.329655 33.945523,49.89919 30.67744,48.866057 27.390539,47.892731 24.122011,46.864219 23.304082,46.606842 21.4506,45.647096 20.61184,45.99229 c -0.560118,0.230523 -0.225362,0.843858 0.144705,1.06318 0.843162,0.49969 2.070608,0.714123 3.008245,1.038198 0.881775,0.304765 1.780961,0.546065 2.67914,0.800888 1.499508,0.42543 2.982052,0.924319 4.465239,1.398055 2.13862,0.683089 4.256739,1.642159 6.429935,2.191927 m 14.650095,-4.636765 c 1.100583,-0.325833 1.432517,1.344932 0.503582,1.689214 -1.210273,0.448565 -1.650561,-1.349641 -0.503582,-1.689214 M 21.08565,52.315924 c 6.068982,2.269908 12.46526,3.888527 18.575374,6.102727 0.75633,0.274087 1.656993,0.434659 2.310341,0.906278 0.993161,0.716903 1.714098,3.012047 0.489527,3.860062 -0.472312,0.327075 -1.082666,-0.0044 -1.549605,-0.179543 -1.186895,-0.445665 -2.364914,-0.909982 -3.572183,-1.304378 -4.19838,-1.371564 -8.347555,-2.939935 -12.502657,-4.425996 -1.720328,-0.615272 -3.922093,-0.731324 -3.929405,-2.767223 l 4.465232,1.180263 c -0.944697,-1.213 -5.313517,-1.364714 -4.286624,-3.37219 m 47.152874,2.529142 -2.857755,0.843048 v 0.168608 c 1.119012,0.774352 2.055866,3.644513 0.507719,4.516551 -1.738863,0.979469 -4.613642,1.23526 -6.580434,1.700144 -4.167962,0.985166 -8.28967,2.25817 -12.502659,3.056828 0.0069,-1.611538 1.275268,-1.521193 2.679147,-1.904667 1.670582,-0.456319 3.3285,-0.949109 5.001059,-1.398049 0.914976,-0.245595 1.883361,-0.360188 2.500533,-1.081132 l -10.180739,2.191921 c 0,-0.413668 -0.121645,-1.062307 0.158768,-1.414446 0.409314,-0.514004 1.715634,-0.644401 2.341765,-0.798549 2.086264,-0.51364 4.174653,-1.018296 6.25133,-1.565885 1.030262,-0.271659 2.568126,-0.328152 2.857747,-1.44801 l -13.752921,2.866363 -0.178607,-0.84305 c 2.46896,-0.923434 5.267775,-1.384406 7.858813,-1.924174 3.408102,-0.709989 6.79463,-1.554382 10.180732,-2.353511 1.309723,-0.309099 2.617562,-0.626355 3.929403,-0.927353 0.709042,-0.162687 1.392026,-0.360468 1.786099,0.315363 m -40.901544,1.011656 -0.178608,0.168614 1.964699,1.187287 5.179673,1.341855 -2.143313,-1.187294 -4.822451,-1.510462 m 7.144371,2.529142 v 0.168614 c 1.883765,1.17628 4.139987,2.246087 6.429936,2.529141 -0.1121,-0.846619 -0.844553,-0.96037 -1.607483,-1.2474 -1.578749,-0.593962 -3.150406,-1.147305 -4.822453,-1.450355 m 35.364657,7.924644 c 0.71974,-2.126365 0.09099,-3.409151 -1.071656,-5.226889 3.732826,-1.384189 4.846693,4.975445 1.071656,5.226889 m -8.93047,2.360535 c 0.832476,-2.113842 0.01,-3.112277 -0.714435,-5.058282 0.657718,0 1.395874,-0.09922 1.906819,0.373901 1.429869,1.324018 1.100252,4.607973 -1.192384,4.684381 m -5.7155,1.517485 c 0.565745,-2.088104 0.271913,-3.236937 -0.893044,-5.058283 3.321379,-0.791303 3.993501,4.919283 0.893044,5.058283 m -9.823513,2.697749 c 0.54164,-1.36537 0.738008,-2.663133 0.09345,-4.046627 -0.306362,-0.65756 -0.820264,-1.145201 -0.98649,-1.854705 0.686298,-0.04353 1.487478,-0.326114 2.093702,0.106161 2.09389,1.49309 1.738479,5.706706 -1.200654,5.795171 m -15.539017,-5.22689 c 0.623133,1.179327 4.173079,2.258336 5.536888,2.360527 -0.654625,-1.173349 -4.173721,-2.166717 -5.536888,-2.360527 z"
         id="path21" />
    </g>
  </g>
</svg>
