<?xml version="1.0" encoding="UTF-8" standalone="no"?>
<!-- Created with Inkscape (http://www.inkscape.org/) -->

<svg
   width="59.053352mm"
   height="44.054333mm"
   viewBox="0 0 59.053352 44.054333"
   version="1.1"
   id="svg1"
   inkscape:export-filename="new_logo.svg"
   inkscape:export-xdpi="96"
   inkscape:export-ydpi="96"
   xmlns:inkscape="http://www.inkscape.org/namespaces/inkscape"
   xmlns:sodipodi="http://sodipodi.sourceforge.net/DTD/sodipodi-0.dtd"
   xmlns="http://www.w3.org/2000/svg"
   xmlns:svg="http://www.w3.org/2000/svg">
  <sodipodi:namedview
     id="namedview1"
     pagecolor="#ffffff"
     bordercolor="#000000"
     borderopacity="0.25"
     inkscape:showpageshadow="2"
     inkscape:pageopacity="0.0"
     inkscape:pagecheckerboard="0"
     inkscape:deskcolor="#d1d1d1"
     inkscape:document-units="mm">
    <inkscape:page
       x="0"
       y="0"
       width="59.053352"
       height="44.054333"
       id="page2"
       margin="0"
       bleed="0" />
  </sodipodi:namedview>
  <defs
     id="defs1" />
  <g
     inkscape:label="Layer 1"
     inkscape:groupmode="layer"
     id="layer1"
     transform="translate(-25.572124,-21.581546)">
    <path
       id="path267"
       d="m 30.367835,34.132072 v 3.569053 c 0,0.348191 0.0448,0.588433 0.13582,0.720372 0.0903,0.132644 0.26776,0.219428 0.53234,0.261055 l 1.27318,0.187678 v 1.001889 h -3.21416 -2.73509 V 38.87023 l 1.29434,-0.187678 c 0.26423,-0.04163 0.43851,-0.132291 0.52176,-0.271639 0.0836,-0.138994 0.12524,-0.403225 0.12524,-0.793044 V 27.431411 c 0,-0.36195 -0.0452,-0.605366 -0.13582,-0.730603 -0.0907,-0.125588 -0.27482,-0.208844 -0.5528,-0.250472 l -1.25272,-0.18803 v -1.001889 h 5.94925 v 1.001889 l -1.31516,0.18803 c -0.2226,0.02787 -0.38276,0.104422 -0.48013,0.229659 -0.0974,0.125236 -0.14605,0.40393 -0.14605,0.835025 v 5.051072 z"
       style="fill:#221311;fill-opacity:1;fill-rule:nonzero;stroke:none;stroke-width:0.352778" />
    <path
       id="path268"
       d="m 42.296785,39.872226 v -0.835025 l 0.85266,-0.159808 c 0.18909,-0.03563 0.31362,-0.109361 0.37289,-0.221897 0.0593,-0.112537 0.0889,-0.322439 0.0889,-0.630767 v -5.009092 c 0,-0.426508 -0.0356,-0.707672 -0.10654,-0.843844 -0.0709,-0.135819 -0.23707,-0.22225 -0.49742,-0.257528 l -0.8703,-0.12453 0.12418,-0.852664 2.46909,-0.195086 0.21343,0.124178 0.12418,1.581149 h 0.0533 c 0.31962,-0.556683 0.76059,-1.00083 1.32327,-1.332441 0.56233,-0.331611 1.15746,-0.497417 1.78541,-0.497417 0.62759,0 1.15746,0.115359 1.58961,0.346428 0.43216,0.230717 0.76094,0.5715 0.98602,1.021292 0.22472,0.450144 0.33761,1.006827 0.33761,1.669697 v 4.512027 c 0,0.260703 0.0356,0.43815 0.10653,0.533048 0.0709,0.0949 0.21908,0.159808 0.44415,0.195086 l 0.83467,0.142169 v 0.835025 h -4.35186 v -0.817033 l 0.7814,-0.14217 c 0.22507,-0.04727 0.37006,-0.11818 0.43533,-0.213077 0.0649,-0.0949 0.0977,-0.272345 0.0977,-0.533048 v -3.996619 c 0,-0.556683 -0.0565,-1.00083 -0.16898,-1.332442 -0.11254,-0.331258 -0.29916,-0.571147 -0.55951,-0.719313 -0.26035,-0.147814 -0.60995,-0.22225 -1.04775,-0.22225 -0.49742,0 -0.92992,0.100894 -1.29681,0.30233 -0.36724,0.201436 -0.65158,0.488245 -0.85266,0.861483 -0.20179,0.372887 -0.30198,0.808214 -0.30198,1.305631 v 3.730272 c 0,0.26035 0.0293,0.444147 0.0889,0.550686 0.0589,0.106539 0.17745,0.177447 0.35525,0.213078 l 0.94121,0.195439 v 0.817033 z"
       style="fill:#221311;fill-opacity:1;fill-rule:nonzero;stroke:none;stroke-width:0.352778" />
    <path
       id="path269"
       d="m 53.212485,39.917134 v -0.870303 l 1.01247,-0.160161 c 0.23672,-0.03528 0.3877,-0.112183 0.45297,-0.230716 0.0649,-0.118181 0.0977,-0.343253 0.0977,-0.674864 v -4.849636 c 0,-0.426156 -0.0385,-0.710495 -0.11536,-0.852664 -0.0773,-0.142169 -0.25188,-0.230717 -0.52388,-0.266347 l -0.85266,-0.124531 0.12418,-0.887941 2.8067,-0.14217 0.21308,0.0889 v 7.105297 c 0,0.225072 0.0293,0.408517 0.0889,0.550686 0.0589,0.14217 0.21872,0.237067 0.47942,0.283986 l 0.99483,0.1778 v 0.852664 z"
       style="fill:#221311;fill-opacity:1;fill-rule:nonzero;stroke:none;stroke-width:0.352778" />
    <path
       id="path270"
       d="m 55.344105,28.9038 c -0.34361,0 -0.62794,-0.109361 -0.85266,-0.328789 -0.22508,-0.218722 -0.33761,-0.499886 -0.33761,-0.843491 0,-0.343606 0.11253,-0.627592 0.33761,-0.852664 0.22472,-0.22472 0.50905,-0.337609 0.85266,-0.337609 0.35525,0 0.64523,0.109714 0.8703,0.328789 0.22507,0.219075 0.33761,0.500239 0.33761,0.843492 0,0.343605 -0.11254,0.627944 -0.33761,0.852664 -0.22507,0.225072 -0.51505,0.337608 -0.8703,0.337608"
       style="fill:#221311;fill-opacity:1;fill-rule:nonzero;stroke:none;stroke-width:0.352778" />
    <path
       id="path271"
       d="m 37.899385,55.996604 c -0.30797,0 -0.57714,-0.0356 -0.80821,-0.10654 -0.23107,-0.0713 -0.45897,-0.20143 -0.68404,-0.39123 -0.22507,-0.18909 -0.48577,-0.46143 -0.7814,-0.81668 l -3.00214,-3.57082 v -0.14181 l 2.82434,-2.540003 c 0.15381,-0.130528 0.23107,-0.2667 0.23107,-0.408869 0,-0.14217 -0.0773,-0.22472 -0.23107,-0.248356 l -0.79904,-0.12453 0.15945,-0.817034 h 3.97933 v 0.799042 l -0.5154,0.142522 c -0.17745,0.04692 -0.37007,0.121356 -0.57715,0.221897 -0.20708,0.100542 -0.42968,0.251531 -0.6664,0.452967 l -2.64653,2.238024 2.94887,3.35738 c 0.20108,0.22508 0.39969,0.4057 0.59513,0.54187 0.19509,0.13617 0.42898,0.20426 0.70132,0.20426 0.0713,0 0.15417,-0.012 0.24871,-0.0356 0.0949,-0.0233 0.24271,-0.0593 0.4445,-0.10654 l 0.17745,0.63959 c -0.22507,0.22507 -0.47943,0.39969 -0.76377,0.52387 -0.28433,0.12418 -0.56268,0.18662 -0.83502,0.18662 m -8.61554,-0.15981 v -0.85266 l 1.01283,-0.16016 c 0.23671,-0.0353 0.3877,-0.11219 0.45296,-0.23072 0.0649,-0.11853 0.0974,-0.34325 0.0974,-0.67522 v -9.521116 c 0,-0.414513 -0.25118,-4.002969 -0.33973,-4.127499 -0.0893,-0.124178 -0.28786,-0.343959 -0.61912,-0.391231 l -0.7934,-0.006 0.0889,-0.872419 2.91324,-0.08925 0.20426,0.167922 0.2413,14.910853 c -0.043,0.28399 -0.0106,0.4826 0.0543,0.59514 0.0649,0.11254 0.19261,0.19226 0.38206,0.23954 l 0.63958,0.14217 v 0.87065 z"
       style="fill:#221311;fill-opacity:1;fill-rule:nonzero;stroke:none;stroke-width:0.352778" />
    <path
       id="path272"
       d="m 43.725805,56.103114 c -0.93557,0 -1.64289,-0.25753 -2.12231,-0.77258 -0.47978,-0.51541 -0.71967,-1.27036 -0.71967,-2.26484 v -4.067877 c 0,-0.426155 -0.0356,-0.704497 -0.10654,-0.835025 -0.0713,-0.129822 -0.23742,-0.219075 -0.49741,-0.266347 l -0.78176,-0.124531 0.14217,-0.852663 2.68217,-0.195087 0.21343,0.124178 v 5.702302 c 0,0.56797 0.0529,1.01847 0.15981,1.34973 0.10654,0.33196 0.28434,0.56867 0.53269,0.71049 0.24871,0.14252 0.58632,0.21343 1.01283,0.21343 0.49706,0 0.92357,-0.10054 1.27882,-0.30198 0.35524,-0.20143 0.63041,-0.48859 0.8262,-0.86148 0.19509,-0.37324 0.29281,-0.80821 0.29281,-1.30563 v -3.357387 c 0,-0.414514 -0.0328,-0.68968 -0.0977,-0.826205 -0.0649,-0.13582 -0.23354,-0.227895 -0.50624,-0.275167 l -0.79904,-0.124531 0.14182,-0.852663 2.70016,-0.195087 0.21343,0.124178 v 7.211832 c 0,0.28434 0.0381,0.47696 0.11501,0.5775 0.0769,0.1009 0.22789,0.17498 0.45296,0.2219 l 0.8883,0.16016 v 0.83467 l -2.75343,0.10689 -0.24836,-1.43898 h -0.0536 c -0.30798,0.36724 -0.6156,0.66605 -0.92357,0.89676 -0.30833,0.23107 -0.62795,0.40288 -0.95956,0.51541 -0.33126,0.11254 -0.6925,0.16863 -1.08338,0.16863"
       style="fill:#221311;fill-opacity:1;fill-rule:nonzero;stroke:none;stroke-width:0.352778" />
    <path
       id="path273"
       d="m 55.476525,54.824254 c 0.5207,0 0.96802,-0.14499 1.34126,-0.43533 0.37289,-0.28998 0.65687,-0.70732 0.85266,-1.25236 0.19509,-0.54469 0.29281,-1.19592 0.29281,-1.95403 0,-0.75777 -0.0829,-1.39136 -0.24871,-1.90077 -0.16616,-0.508707 -0.41134,-0.890765 -0.7373,-1.145471 -0.32562,-0.254705 -0.73696,-0.382058 -1.23437,-0.382058 -0.52106,0 -0.96838,0.106892 -1.34126,0.319617 -0.37289,0.21343 -0.66005,0.512586 -0.86149,0.897466 -0.20143,0.384876 -0.30197,0.849486 -0.30197,1.394176 v 3.695 c 0.23671,0.22507 0.5655,0.40851 0.98601,0.55033 0.42016,0.14217 0.83749,0.21343 1.25236,0.21343 m -5.25815,4.76038 v -0.85231 l 0.85266,-0.14252 c 0.17745,-0.0236 0.30762,-0.0977 0.39088,-0.2219 0.0825,-0.12418 0.12453,-0.32879 0.12453,-0.61313 v -8.828259 c 0,-0.449791 -0.042,-0.745772 -0.12453,-0.887941 -0.0833,-0.14217 -0.2607,-0.23107 -0.53305,-0.2667 l -0.81703,-0.106539 0.14217,-0.870303 2.43346,-0.177447 0.24871,0.106539 0.10654,1.598436 h 0.0533 c 0.28433,-0.426156 0.58631,-0.772583 0.90593,-1.039283 0.31962,-0.266348 0.67204,-0.464256 1.05692,-0.594784 0.38488,-0.130175 0.80222,-0.195439 1.25271,-0.195439 0.72214,0 1.33774,0.1778 1.84715,0.533048 0.50906,0.355247 0.90276,0.864305 1.18145,1.527527 0.27799,0.663225 0.41734,1.456615 0.41734,2.380545 0,1.06574 -0.16299,1.97767 -0.4886,2.73509 -0.32597,0.75812 -0.79939,1.33561 -1.42099,1.73213 -0.62195,0.39653 -1.37089,0.59514 -2.24719,0.59514 -0.4385,0 -0.87348,-0.0533 -1.30563,-0.16016 -0.43251,-0.10619 -0.78458,-0.24836 -1.05692,-0.42616 v 2.29165 c 0,0.28398 0.0413,0.49142 0.12417,0.62159 0.0829,0.13018 0.23107,0.21308 0.4445,0.24871 l 1.08338,0.1778 v 0.83467 z"
       style="fill:#221311;fill-opacity:1;fill-rule:nonzero;stroke:none;stroke-width:0.352778" />
    <path
       id="path274"
       d="m 73.008245,55.890104 c -0.30797,0 -0.57714,-0.0356 -0.80821,-0.10654 -0.23107,-0.0713 -0.45897,-0.20143 -0.68404,-0.39123 -0.22507,-0.18909 -0.48577,-0.46143 -0.7814,-0.81668 l -3.00214,-3.57082 v -0.14181 l 2.82434,-2.540003 c 0.15381,-0.130528 0.23107,-0.2667 0.23107,-0.408869 0,-0.14217 -0.0773,-0.22472 -0.23107,-0.248356 l -0.79904,-0.12453 0.15945,-0.817034 h 3.97933 v 0.799042 l -0.5154,0.142522 c -0.17745,0.04692 -0.37007,0.121356 -0.57715,0.221897 -0.20708,0.100542 -0.42968,0.251531 -0.6664,0.452967 l -2.64653,2.238024 2.94887,3.35738 c 0.20108,0.22508 0.39969,0.4057 0.59513,0.54187 0.19509,0.13617 0.42898,0.20426 0.70132,0.20426 0.0713,0 0.15417,-0.012 0.24871,-0.0356 0.0949,-0.0233 0.24271,-0.0593 0.4445,-0.10654 l 0.17745,0.63959 c -0.22507,0.22507 -0.47943,0.39969 -0.76377,0.52387 -0.28433,0.12418 -0.56268,0.18662 -0.83502,0.18662"
       style="fill:#221311;fill-opacity:1;fill-rule:nonzero;stroke:none;stroke-width:0.352778" />
    <path
       id="path275"
       d="m 78.060095,54.611104 c 0.36689,0 0.69532,-0.0829 0.98601,-0.24871 0.28999,-0.1658 0.52106,-0.39088 0.69286,-0.67521 0.17145,-0.28399 0.25717,-0.60396 0.25717,-0.95921 v -1.26118 c -0.75776,0 -1.38818,0.0653 -1.89159,0.19579 -0.50341,0.13018 -0.8763,0.32562 -1.11901,0.58561 -0.24271,0.26106 -0.36442,0.59267 -0.36442,0.99519 0,0.42616 0.13017,0.76094 0.39123,1.0033 0.26,0.24306 0.6096,0.36442 1.04775,0.36442 m -0.67486,1.22555 c -0.74648,0 -1.34726,-0.21908 -1.80305,-0.65723 -0.45614,-0.43779 -0.68404,-1.01846 -0.68404,-1.74095 0,-0.65123 0.16299,-1.17793 0.4886,-1.5808 0.32561,-0.40252 0.86148,-0.70732 1.60761,-0.91475 0.74612,-0.20708 1.7466,-0.34043 3.00178,-0.3997 v -1.20791 c 0,-0.485424 -0.0681,-0.881946 -0.20425,-1.190274 -0.13618,-0.307622 -0.34326,-0.535869 -0.6216,-0.683683 -0.27834,-0.147814 -0.64241,-0.22225 -1.09255,-0.22225 -0.31962,0 -0.63676,0.05045 -0.95003,0.150989 -0.31397,0.100894 -0.54187,0.228247 -0.68404,0.382058 0.10654,0.1778 0.19509,0.331611 0.2667,0.461786 0.0709,0.130528 0.12101,0.237067 0.15099,0.31997 0.0289,0.08255 0.0441,0.153811 0.0441,0.212725 0,0.225425 -0.0917,0.414869 -0.27517,0.568679 -0.1838,0.15381 -0.41204,0.23107 -0.68403,0.23107 -0.31962,0 -0.56868,-0.0801 -0.74613,-0.23989 -0.1778,-0.16016 -0.26635,-0.388056 -0.26635,-0.684037 0,-0.414514 0.15664,-0.796572 0.47061,-1.145469 0.31397,-0.34925 0.72813,-0.630767 1.24354,-0.844197 0.51541,-0.212725 1.07456,-0.319617 1.67887,-0.319617 0.74577,0 1.36454,0.115358 1.85596,0.346428 0.49142,0.231069 0.85831,0.583494 1.10138,1.056922 0.24235,0.47378 0.36442,1.072091 0.36442,1.79423 v 4.2806 c 0,0.26106 0.0681,0.4565 0.20425,0.58632 0.13582,0.13053 0.33444,0.19544 0.59479,0.19544 0.13017,0 0.2607,-0.0116 0.39087,-0.0353 0.13018,-0.024 0.27799,-0.0593 0.44415,-0.10654 l 0.17745,0.67487 c -0.21273,0.20178 -0.47378,0.37041 -0.7814,0.50623 -0.30798,0.13617 -0.59232,0.20426 -0.85267,0.20426 -0.50941,0 -0.90346,-0.13335 -1.1811,-0.3997 -0.27869,-0.26634 -0.44732,-0.66004 -0.50623,-1.1811 -0.22543,0.35525 -0.47378,0.64806 -0.74648,0.87912 -0.27235,0.23107 -0.57432,0.4057 -0.90593,0.52388 -0.33126,0.11853 -0.6985,0.1778 -1.10102,0.1778"
       style="fill:#221311;fill-opacity:1;fill-rule:nonzero;stroke:none;stroke-width:0.352778" />
    <path
       id="path276"
       d="m 32.533635,33.448143 c 0.32597,0.02081 0.63923,0.03069 0.94051,0.03069 0.3563,0 0.66569,-0.03775 0.98883,-0.06456 3.7659,0.30092 5.2899,2.349853 5.8928,4.159603 1.26365,3.790597 2.10608,4.645025 2.4959,4.816827 0.0773,0.03422 0.1397,0.0441 0.18627,0.0441 0.0508,0 0.0833,-0.01164 0.0967,-0.01764 l -0.0871,-0.22472 c 7e-4,-0.0011 -0.85373,0.131586 -2.46275,-4.695119 -0.5722,-1.718028 -1.94733,-3.647722 -5.13573,-4.204052 3.1496,-0.570089 4.5219,-2.473678 5.09058,-4.180064 1.54975,-4.648905 2.39465,-4.700058 2.44933,-4.700058 h 0.003 l 0.0977,-0.220486 c -0.0257,-0.01129 -0.12241,-0.04375 -0.28293,0.02646 -0.38982,0.17145 -1.23225,1.025878 -2.4959,4.81718 -0.59337,1.781528 -2.09021,3.799064 -5.72664,4.144081 -0.61137,-0.05327 -1.27494,-0.06526 -2.00766,-0.01835 -0.0825,0.0046 -0.15487,0.0088 -0.20179,0.0099 -0.008,-0.09631 -0.0293,-0.184503 -0.0536,-0.271639 0.0169,0.0011 0.0318,0.0014 0.049,0.0025 0.32597,0.02046 0.63924,0.03069 0.94051,0.03069 4.60728,0 6.3888,-2.335036 7.06543,-4.365625 1.54976,-4.648199 2.39536,-4.699352 2.44934,-4.699352 h 0.003 l 0.0977,-0.220839 c -0.0257,-0.01058 -0.12135,-0.0448 -0.28292,0.02681 -0.38982,0.17145 -1.23226,1.025878 -2.49591,4.816475 -0.69391,2.083858 -2.61267,4.500739 -7.76181,4.171244 -0.0653,-0.0042 -0.10654,-0.0067 -0.14746,-0.0088 -0.0356,-0.07091 -0.0522,-0.02046 -0.0977,-0.08043 7e-4,0 -0.03,-0.107244 -0.0293,-0.107244 0.32631,0.02081 0.63923,0.03069 0.9405,0.03069 4.60763,0 6.38881,-2.334684 7.06579,-4.365625 1.5494,-4.648553 2.3943,-4.700058 2.44933,-4.700058 h 0.003 l 0.0981,-0.220486 c -0.0261,-0.01058 -0.12348,-0.0441 -0.28328,0.02681 -0.38982,0.17145 -1.13418,1.060097 -2.49591,4.81718 -0.32279,0.891117 -1.06715,2.309636 -2.63807,3.2639 -1.99178,1.210028 -5.41408,0.964494 -5.46382,0.992364 0,3.53e-4 -7.1e-4,0.197202 -7.1e-4,0.197555 0.18098,0.164042 0.31045,0.449792 0.31045,0.782814 0,0.370417 -0.15417,0.695325 -0.36865,0.843492 l -0.12065,-0.113595 3.5e-4,-0.01764 c -0.0152,0.05433 -0.0388,0.105481 -0.0575,0.158398 0.23706,0.06879 0.44732,0.171802 0.63041,0.302683 2.07222,0.234597 5.74816,1.229783 7.22665,5.277202 1.23049,3.371145 3.12385,4.314472 3.20393,4.353278 l -0.11889,-0.353131 c -0.0187,-0.0095 -1.66405,-0.812447 -2.85891,-4.082697 -1.33103,-3.645605 -4.38785,-4.885972 -6.55743,-5.302249 4.4831,-0.0021 6.20536,2.24155 6.85765,4.199819 1.26365,3.790597 2.10643,4.645025 2.4959,4.816475 0.0773,0.03422 0.1397,0.04445 0.18662,0.04445 0.0505,0 0.0829,-0.01199 0.0967,-0.01799 l -0.0875,-0.224367 c 0.004,0.0053 -0.85302,0.130881 -2.46274,-4.695472 -0.72108,-2.164644 -2.70404,-4.674658 -8.00806,-4.334933 -0.012,7.06e-4 -0.0222,0.0014 -0.0342,0.0021 0.0437,-0.05644 0.0794,-0.121708 0.1143,-0.187678 0.0462,-0.0018 0.10725,-0.0056 0.1958,-0.01129 5.16008,-0.329847 7.06755,2.087739 7.76217,4.170892 1.26365,3.791302 2.10608,4.645377 2.4959,4.816827 0.0765,0.03422 0.1397,0.0441 0.18626,0.0441 0.0508,0 0.0833,-0.01164 0.0967,-0.01764 l -0.0871,-0.22472 c -0.01,-0.0021 -0.85513,0.128764 -2.46274,-4.695119 -0.72143,-2.163939 -2.7044,-4.6736 -8.00629,-4.334933 -0.0296,0.0018 -0.055,0.0032 -0.0833,0.0046 0.0254,-0.08608 0.0416,-0.176742 0.0512,-0.271992 0.0441,0.0021 0.0974,0.0049 0.15064,0.0085"
       style="fill:#e1a141;fill-opacity:1;fill-rule:nonzero;stroke:none;stroke-width:0.352778" />
    <path
       id="path277"
       d="m 31.549995,32.627334 c -0.12665,0 -0.3108,0.234597 -0.3108,0.601839 0,0.367242 0.18415,0.601839 0.3108,0.601839 0.12665,0 0.3108,-0.234597 0.3108,-0.601839 0,-0.367242 -0.18415,-0.601839 -0.3108,-0.601839 m 0,1.851025 c -0.53728,0 -0.95814,-0.54857 -0.95814,-1.249186 0,-0.700617 0.42086,-1.249186 0.95814,-1.249186 0.53728,0 0.95814,0.548569 0.95814,1.249186 0,0.700616 -0.42086,1.249186 -0.95814,1.249186"
       style="fill:#221311;fill-opacity:1;fill-rule:nonzero;stroke:none;stroke-width:0.352778" />
    <path
       id="path278"
       d="m 31.233765,34.045538 v -1.632655 h 0.85055 c 0,0 3.48509,-0.992364 5.58341,-2.964039 2.09868,-1.971675 4.38538,-7.079897 4.41043,-7.48665 0.025,-0.4064 -0.14076,-0.461433 -0.44944,-0.287161 -0.30833,0.174272 -2.82963,4.697236 -5.10999,6.855883 -2.18087,2.064456 -5.56083,3.641725 -5.56083,3.641725 0,0 0.0268,0.02681 -0.30233,0.355953 -0.3295,0.329494 -0.25506,1.174044 0.10654,1.503891 0.36159,0.329847 0.23142,0.258234 0.23142,0.258234 0,0 3.05929,1.643591 5.05283,3.708047 1.9932,2.064455 5.8854,7.023099 6.13305,7.32931 0.0628,0.07796 0.20849,-0.0039 0.13158,-0.182033 -0.15346,-0.354894 -3.41453,-5.735814 -5.40773,-7.871177 -1.99319,-2.135717 -4.81894,-3.229328 -4.81894,-3.229328 z"
       style="fill:#221311;fill-opacity:1;fill-rule:nonzero;stroke:none;stroke-width:0.352778" />
    <path
       id="path279"
       d="m 62.506245,55.441824 -0.24483,-0.0572 c 0.009,-0.0374 0.86501,-3.7786 -0.0314,-6.10482 -0.56798,-1.474257 -0.34996,-3.291416 -0.11889,-5.215113 0.14499,-1.2065 0.29492,-2.453569 0.23036,-3.598686 -0.16157,-2.846563 0.0505,-7.244997 0.25577,-7.788274 0.17744,-0.468842 0.54292,-0.563034 0.69885,-0.60325 0.0201,-0.0053 0.0363,-0.0088 0.0473,-0.01305 0.037,-0.02963 0.0988,-0.03528 0.15099,-0.0074 0.14605,0.07761 0.14605,0.316441 0.079,1.768475 -0.0596,1.297516 -0.14993,3.258608 0.0113,4.969933 0.12418,1.314097 -0.10865,3.035299 -0.33408,4.700058 -0.28363,2.094088 -0.55139,4.072113 -0.13088,5.144558 0.78176,1.994249 0.11606,6.599409 0.0871,6.794499 l -0.24836,-0.0367 c 0.007,-0.0469 0.68474,-4.73392 -0.0727,-6.666087 -0.4445,-1.133122 -0.17251,-3.142544 0.11571,-5.270147 0.22331,-1.650294 0.45438,-3.357033 0.33302,-4.642908 -0.16298,-1.728611 -0.0723,-3.700286 -0.012,-5.004858 0.0296,-0.648053 0.0582,-1.265414 0.0339,-1.49225 -0.13899,0.03563 -0.3937,0.103364 -0.52387,0.448028 -0.17498,0.462844 -0.40605,4.76003 -0.2406,7.685263 0.0663,1.166989 -0.085,2.4257 -0.23106,3.642783 -0.22755,1.891947 -0.44203,3.678767 0.10371,5.094816 0.92428,2.39889 0.078,6.096 0.0416,6.25228"
       style="fill:#e1a141;fill-opacity:1;fill-rule:nonzero;stroke:none;stroke-width:0.352778" />
    <path
       id="path280"
       d="m 64.644655,31.972826 c 0,0 -3.5e-4,0 -3.5e-4,3.53e-4 0,-3.53e-4 3.5e-4,-3.53e-4 3.5e-4,-3.53e-4 m -0.86042,23.483008 -0.24483,-0.0579 c 0.009,-0.0384 0.9017,-3.88832 0.005,-6.21453 -0.55704,-1.445685 -0.2854,-3.225096 0.002,-5.10893 0.1905,-1.248127 0.38735,-2.538588 0.32067,-3.71863 -0.15064,-2.66065 -0.13264,-7.576608 0.0815,-8.142464 0.0617,-0.163336 0.1524,-0.271991 0.26988,-0.322086 0.17215,-0.07408 0.3429,-0.0018 0.4452,0.04127 0.0123,0.0049 0.0233,0.0099 0.0332,0.01376 0.0374,-0.01129 0.0769,-0.0078 0.11219,0.01094 0.14605,0.07796 0.14569,0.316794 0.0787,1.768475 -0.0596,1.297516 -0.14993,3.258608 0.0113,4.969933 0.12417,1.31445 -0.10866,3.035652 -0.33408,4.700411 -0.28364,2.094088 -0.5514,4.072113 -0.13089,5.144558 0.78211,1.994253 0.0808,6.705603 0.0504,6.904923 l -0.24835,-0.0374 c 0.007,-0.0483 0.72143,-4.84399 -0.036,-6.775801 -0.44414,-1.133122 -0.17215,-3.142544 0.11571,-5.270147 0.22331,-1.650294 0.45438,-3.357386 0.33303,-4.642908 -0.16299,-1.728964 -0.0723,-3.700639 -0.012,-5.005211 0.031,-0.670983 0.0603,-1.308453 0.031,-1.514828 -0.0339,-0.0067 -0.0677,-0.02117 -0.10125,-0.03528 -0.0744,-0.03104 -0.17604,-0.07303 -0.24906,-0.04198 -0.0522,0.02258 -0.0974,0.0829 -0.13406,0.180269 -0.17215,0.454731 -0.23636,5.019322 -0.0656,8.0391 0.0684,1.206853 -0.13053,2.510367 -0.32315,3.770841 -0.28222,1.849967 -0.54927,3.597275 -0.0159,4.980875 0.92427,2.39889 0.0427,6.20218 0.005,6.3627"
       style="fill:#e1a141;fill-opacity:1;fill-rule:nonzero;stroke:none;stroke-width:0.352778" />
    <path
       id="path281"
       d="m 65.120275,55.420444 -0.24483,-0.0575 c 0.009,-0.0388 0.90135,-3.88902 0.005,-6.21489 -0.55703,-1.445682 -0.28539,-3.225093 0.002,-5.108926 0.1905,-1.248128 0.38735,-2.538589 0.32068,-3.71863 -0.15099,-2.662414 -0.21379,-7.368822 -0.004,-7.923389 0.079,-0.208844 0.19544,-0.244475 0.27905,-0.239183 0.37747,0.02752 0.62089,1.091847 0.62336,1.102783 0.0268,0.122414 0.0123,0.365125 -0.0138,0.806097 -0.0512,0.872772 -0.14711,2.497314 0.0526,4.615039 0.12312,1.302455 -0.0864,3.002844 -0.28892,4.646788 -0.25965,2.106437 -0.50483,4.09575 -0.0811,5.176661 0.78211,1.99425 0.0808,6.7056 0.0504,6.90492 l -0.24836,-0.0374 c 0.007,-0.0483 0.72143,-4.844 -0.036,-6.775807 -0.44697,-1.140178 -0.19826,-3.160184 0.0656,-5.299075 0.20073,-1.630892 0.40852,-3.317169 0.28822,-4.592461 -0.20143,-2.136775 -0.10512,-3.773664 -0.0533,-4.653491 0.0215,-0.362656 0.0385,-0.649112 0.019,-0.737659 -0.10018,-0.455789 -0.29845,-0.845608 -0.39017,-0.901347 -0.002,0.0092 -0.0155,0.03069 -0.0318,0.07303 -0.17745,0.469547 -0.14005,4.991453 0.0201,7.820025 0.0684,1.206852 -0.13088,2.510366 -0.32314,3.771194 -0.28223,1.849614 -0.54928,3.596922 -0.0159,4.980516 0.92428,2.398885 0.0427,6.202185 0.005,6.362695"
       style="fill:#e1a141;fill-opacity:1;fill-rule:nonzero;stroke:none;stroke-width:0.352778" />
    <path
       id="path282"
       d="m 60.139385,55.937584 c 0.0649,-0.11818 0.0977,-17.616663 0.0977,-17.912644 v -9.59238 c 0,-0.414513 -0.0445,-0.684036 -0.13335,-0.808213 -0.0889,-0.124531 -0.29916,-0.209903 -0.63041,-0.257528 l -0.78176,-0.124178 0.10654,-0.888294 2.8956,-0.0889 0.19544,0.195438 v 5.648678 0.159808 c 0.27199,-0.497064 0.68051,-0.897114 1.22555,-1.198739 0.54469,-0.30233 1.12501,-0.453319 1.74096,-0.453319 0.62759,0 1.15746,0.115711 1.58961,0.346428 0.43216,0.231069 0.76094,0.5715 0.98602,1.021644 0.22472,0.450145 0.33725,1.006475 0.33725,1.669697 v 4.512028 c 0,0.26035 0.0296,17.726024 0.0889,17.814924 0.0593,0.0889 -1.90359,0.10372 -1.83832,0.009 0.0649,-0.0945 0.0977,-17.563394 0.0977,-17.823744 v -3.996972 c 0,-0.556331 -0.0565,-1.000478 -0.16898,-1.332442 -0.11254,-0.331258 -0.29916,-0.570794 -0.55951,-0.719314 -0.2607,-0.147813 -0.60995,-0.221897 -1.04775,-0.221897 -0.49777,0 -0.92992,0.100895 -1.29681,0.301978 -0.36724,0.201436 -0.65158,0.488597 -0.85266,0.861483 -0.20179,0.373239 -0.30198,0.808214 -0.30198,1.305631 v 3.730272 c 0,0.260703 0.0293,17.735195 0.0889,17.841735 0.0589,0.10654 -1.90394,0.11853 -1.83868,0"
       style="fill:#221311;fill-opacity:1;fill-rule:nonzero;stroke:none;stroke-width:0.352778" />
    <path
       id="path283"
       d="m 25.617625,64.751014 c -0.031,0 -0.0455,-0.0145 -0.0455,-0.0455 v -3.07578 c 0,-0.03 0.0145,-0.0455 0.0455,-0.0455 h 0.14883 c 0.03,0 0.0455,0.0155 0.0455,0.0455 v 1.59577 c 0,0.008 0.002,0.0145 0.008,0.0165 0.005,0.003 0.009,0.002 0.0124,-0.004 l 1.52962,-1.62884 c 0.0134,-0.0165 0.031,-0.0248 0.0537,-0.0248 h 0.16537 c 0.0186,0 0.031,0.006 0.0372,0.0165 0.005,0.0114 0.002,0.0238 -0.008,0.0372 l -1.13275,1.24437 c -0.006,0.006 -0.006,0.0155 0,0.0289 l 1.2361,1.78593 0.008,0.0207 c 0,0.0227 -0.0145,0.0331 -0.0413,0.0331 h -0.17364 c -0.0248,0 -0.0434,-0.009 -0.0537,-0.0289 l -1.13688,-1.64124 c -0.003,-0.005 -0.007,-0.008 -0.0124,-0.008 -0.006,0 -0.0103,0.002 -0.0124,0.004 l -0.47129,0.48369 c -0.006,0.006 -0.008,0.0145 -0.008,0.0248 v 1.12034 c 0,0.031 -0.0155,0.0455 -0.0455,0.0455 z m 3.5264,-2.31097 c 0.23151,0 0.41858,0.0723 0.56224,0.21497 0.14263,0.14056 0.21498,0.3266 0.21498,0.55811 v 1.49241 c 0,0.031 -0.0155,0.0455 -0.0455,0.0455 h -0.14883 c -0.031,0 -0.0455,-0.0145 -0.0455,-0.0455 v -1.44694 c 0,-0.1788 -0.0558,-0.32453 -0.16537,-0.43821 -0.10748,-0.11266 -0.24804,-0.1695 -0.42168,-0.1695 -0.1819,0 -0.32969,0.0558 -0.44235,0.16536 -0.11058,0.11059 -0.16536,0.25528 -0.16536,0.43408 v 1.45521 c 0,0.031 -0.0155,0.0455 -0.0455,0.0455 h -0.14882 c -0.031,0 -0.0455,-0.0145 -0.0455,-0.0455 v -2.18694 c 0,-0.03 0.0145,-0.0455 0.0455,-0.0455 h 0.14882 c 0.03,0 0.0455,0.0155 0.0455,0.0455 v 0.2191 c 0,0.008 0.001,0.0145 0.004,0.0165 0.005,0.003 0.0103,0 0.0165,-0.008 0.0661,-0.0992 0.15296,-0.17466 0.26045,-0.22737 0.10749,-0.0517 0.23254,-0.0785 0.3762,-0.0785 z m 1.71876,-0.42582 c -0.0661,0 -0.12195,-0.0207 -0.16536,-0.062 -0.0413,-0.0413 -0.062,-0.0961 -0.062,-0.16536 0,-0.0661 0.0207,-0.11989 0.062,-0.16123 0.0434,-0.0413 0.0992,-0.062 0.16536,-0.062 0.0662,0 0.11989,0.0207 0.16123,0.062 0.0434,0.0413 0.0661,0.0951 0.0661,0.16123 0,0.0692 -0.0227,0.12402 -0.0661,0.16536 -0.0413,0.0413 -0.0951,0.062 -0.16123,0.062 z m -0.0868,2.73265 c -0.031,0 -0.0455,-0.0145 -0.0455,-0.0455 v -2.19108 c 0,-0.0269 0.0145,-0.0413 0.0455,-0.0413 h 0.14882 c 0.03,0 0.0455,0.0145 0.0455,0.0413 v 2.19108 c 0,0.031 -0.0155,0.0455 -0.0455,0.0455 z m 1.95543,-2.30683 c 0.23151,0 0.41858,0.0723 0.56224,0.21497 0.14263,0.14056 0.21498,0.3266 0.21498,0.55811 v 1.49241 c 0,0.031 -0.0155,0.0455 -0.0455,0.0455 h -0.14883 c -0.031,0 -0.0455,-0.0145 -0.0455,-0.0455 v -1.44694 c 0,-0.1788 -0.0558,-0.32453 -0.16537,-0.43821 -0.10748,-0.11266 -0.24804,-0.1695 -0.42168,-0.1695 -0.1819,0 -0.32969,0.0558 -0.44235,0.16536 -0.11059,0.11059 -0.16536,0.25528 -0.16536,0.43408 v 1.45521 c 0,0.031 -0.0155,0.0455 -0.0455,0.0455 h -0.14883 c -0.031,0 -0.0455,-0.0145 -0.0455,-0.0455 v -3.07578 c 0,-0.03 0.0145,-0.0455 0.0455,-0.0455 h 0.14883 c 0.03,0 0.0455,0.0155 0.0455,0.0455 v 1.10794 c 0,0.008 0.001,0.0145 0.004,0.0165 0.005,0.003 0.0103,0 0.0165,-0.008 0.0661,-0.0992 0.15296,-0.17466 0.26045,-0.22737 0.10748,-0.0517 0.23254,-0.0785 0.3762,-0.0785 z m 1.5689,2.31097 c -0.031,0 -0.0455,-0.0145 -0.0455,-0.0455 v -3.07578 c 0,-0.03 0.0145,-0.0455 0.0455,-0.0455 h 0.14883 c 0.03,0 0.0455,0.0155 0.0455,0.0455 v 1.93063 c 0,0.006 0.001,0.0114 0.004,0.0165 0.005,0.003 0.0124,0 0.0207,-0.008 l 1.04179,-1.07487 c 0.0165,-0.0134 0.0341,-0.0207 0.0538,-0.0207 h 0.1819 c 0.0186,0 0.03,0.006 0.0331,0.0165 0.005,0.008 0.002,0.0207 -0.008,0.0372 l -0.57464,0.61599 c -0.006,0.006 -0.007,0.0124 -0.004,0.0207 l 0.69454,1.53375 0.004,0.0165 c 0,0.0248 -0.0145,0.0372 -0.0413,0.0372 h -0.1571 c -0.0248,0 -0.0413,-0.0124 -0.0496,-0.0372 l -0.61598,-1.38906 c -0.006,-0.0103 -0.0124,-0.0124 -0.0207,-0.004 l -0.55397,0.57051 c -0.006,0.006 -0.008,0.0145 -0.008,0.0248 v 0.78961 c 0,0.031 -0.0155,0.0455 -0.0455,0.0455 z m 3.57704,-2.23242 c 0,-0.03 0.0145,-0.0455 0.0455,-0.0455 h 0.14469 c 0.03,0 0.0455,0.0155 0.0455,0.0455 v 2.18694 c 0,0.031 -0.0155,0.0455 -0.0455,0.0455 h -0.14469 c -0.031,0 -0.0455,-0.0145 -0.0455,-0.0455 v -0.22324 c 0,-0.008 -0.003,-0.0124 -0.008,-0.0124 -0.006,-0.002 -0.0103,0 -0.0124,0.008 -0.0641,0.0992 -0.14883,0.1757 -0.25632,0.22737 -0.10748,0.0517 -0.23357,0.0785 -0.3762,0.0785 -0.22324,0 -0.40928,-0.0661 -0.55811,-0.19844 -0.14882,-0.13436 -0.22324,-0.31832 -0.22324,-0.54983 v -1.51722 c 0,-0.03 0.0145,-0.0455 0.0455,-0.0455 h 0.14469 c 0.03,0 0.0455,0.0155 0.0455,0.0455 v 1.4552 c 0,0.17984 0.0537,0.32453 0.16123,0.43409 0.10748,0.10748 0.25011,0.16123 0.42995,0.16123 0.1819,0 0.32762,-0.0548 0.43821,-0.16537 0.11266,-0.10955 0.1695,-0.25321 0.1695,-0.42995 z m 2.73885,0.51676 c 0.0186,0.0724 0.031,0.1509 0.0372,0.23564 0.008,0.0858 0.0124,0.19741 0.0124,0.33487 0,0.14056 -0.004,0.25425 -0.0124,0.339 -0.006,0.0858 -0.0165,0.16329 -0.0331,0.23151 -0.0476,0.1881 -0.14263,0.33693 -0.28526,0.44648 -0.14056,0.11059 -0.31729,0.16536 -0.52916,0.16536 -0.1323,0 -0.25115,-0.0269 -0.35554,-0.0785 -0.10542,-0.0548 -0.18913,-0.13229 -0.25218,-0.23151 -0.006,-0.005 -0.0114,-0.006 -0.0165,-0.004 -0.003,0 -0.004,0.006 -0.004,0.0165 v 1.09967 c 0,0.03 -0.0155,0.0455 -0.0455,0.0455 h -0.14883 c -0.031,0 -0.0455,-0.0155 -0.0455,-0.0455 v -3.07164 c 0,-0.03 0.0145,-0.0455 0.0455,-0.0455 h 0.14883 c 0.03,0 0.0455,0.0155 0.0455,0.0455 v 0.21497 c 0,0.008 0.001,0.0145 0.004,0.0165 0.005,0 0.0103,-0.002 0.0165,-0.008 0.063,-0.0992 0.14676,-0.17467 0.25218,-0.22738 0.10439,-0.0517 0.22324,-0.0786 0.35554,-0.0786 0.2036,0 0.3762,0.0558 0.51676,0.16537 0.14263,0.10749 0.24081,0.25218 0.29352,0.43408 z m -0.25218,1.10381 c 0.0217,-0.0517 0.0372,-0.11369 0.0455,-0.18604 0.0103,-0.0744 0.0165,-0.1881 0.0165,-0.34313 0,-0.15709 -0.006,-0.26975 -0.0165,-0.339 -0.008,-0.0713 -0.0227,-0.13745 -0.0413,-0.19843 -0.031,-0.12609 -0.0992,-0.22841 -0.2067,-0.30593 -0.10542,-0.0796 -0.23048,-0.11989 -0.37621,-0.11989 -0.14366,0 -0.26355,0.0403 -0.35966,0.11989 -0.094,0.0806 -0.1571,0.1819 -0.19017,0.30593 -0.0227,0.0558 -0.0372,0.11885 -0.0455,0.19017 -0.008,0.0723 -0.0124,0.1881 -0.0124,0.34726 0,0.1602 0.004,0.27699 0.0124,0.3514 0.008,0.0724 0.0227,0.13849 0.0455,0.19844 0.0331,0.12402 0.0961,0.22531 0.19017,0.30179 0.0961,0.0744 0.216,0.11162 0.35966,0.11162 0.13746,0 0.25632,-0.0341 0.35554,-0.10335 0.0992,-0.0713 0.1664,-0.16537 0.20257,-0.28112 z m 1.83038,0.43408 c 0.14056,0 0.26148,-0.031 0.3638,-0.0951 0.10129,-0.0661 0.17984,-0.15503 0.23565,-0.26872 0.0165,-0.0269 0.0372,-0.0351 0.062,-0.0248 l 0.11575,0.0579 c 0.0269,0.0165 0.0341,0.0372 0.0207,0.062 -0.0661,0.14676 -0.17156,0.26355 -0.31419,0.3514 -0.14366,0.0889 -0.31213,0.1323 -0.50436,0.1323 -0.20981,0 -0.38861,-0.0507 -0.53744,-0.15297 -0.14676,-0.10438 -0.24701,-0.24494 -0.30179,-0.42168 -0.0248,-0.0765 -0.0413,-0.16123 -0.0496,-0.25218 -0.008,-0.093 -0.0124,-0.21187 -0.0124,-0.35553 0,-0.14573 10e-4,-0.25632 0.004,-0.33073 0.005,-0.0765 0.0145,-0.14676 0.0289,-0.21084 0.0496,-0.19017 0.14883,-0.34107 0.29766,-0.45475 0.14883,-0.11576 0.33176,-0.17364 0.54984,-0.17364 0.24804,0 0.44441,0.0651 0.59117,0.19431 0.14883,0.12712 0.24082,0.30385 0.27699,0.52916 0.008,0.0579 0.0134,0.12609 0.0165,0.20258 0.005,0.0744 0.008,0.16949 0.008,0.28525 0,0.031 -0.0155,0.0455 -0.0455,0.0455 h -1.47588 c -0.0114,0 -0.0165,0.006 -0.0165,0.0165 0,0.19327 0.006,0.32143 0.0207,0.38447 0.0331,0.14883 0.10749,0.26665 0.22325,0.3514 0.11575,0.0858 0.26251,0.12816 0.44235,0.12816 z m -0.65732,-1.45521 c -0.0145,0.0579 -0.0238,0.1757 -0.0289,0.3514 0,0.0145 0.005,0.0207 0.0165,0.0207 h 1.26091 c 0.0134,0 0.0207,-0.006 0.0207,-0.0207 0,-0.14883 -0.008,-0.26148 -0.0248,-0.33899 -0.0331,-0.14263 -0.10645,-0.25839 -0.21911,-0.34727 -0.11058,-0.091 -0.24701,-0.13643 -0.40927,-0.13643 -0.1633,0 -0.29973,0.0444 -0.40928,0.1323 -0.10749,0.0858 -0.17673,0.19843 -0.20671,0.33899 z m 3.0303,1.67018 c -0.21291,0 -0.39481,-0.0548 -0.5457,-0.16536 -0.14883,-0.11265 -0.24805,-0.26252 -0.29766,-0.45062 -0.0393,-0.14573 -0.0579,-0.33486 -0.0579,-0.56637 0,-0.22324 0.0186,-0.40928 0.0579,-0.55811 0.0465,-0.18397 0.14573,-0.33176 0.29766,-0.44235 0.15089,-0.11265 0.33279,-0.1695 0.5457,-0.1695 0.21498,0 0.39894,0.0558 0.55397,0.16537 0.1571,0.10749 0.25632,0.24288 0.29766,0.40514 0.0103,0.0413 0.0207,0.0827 0.0289,0.12403 v 0.0124 c 0,0.0196 -0.0145,0.032 -0.0413,0.0372 l -0.1447,0.0207 h -0.008 c -0.0227,0 -0.0362,-0.0134 -0.0413,-0.0413 l -0.0165,-0.062 c -0.0248,-0.12609 -0.0951,-0.23254 -0.21084,-0.31832 -0.11576,-0.0879 -0.25528,-0.1323 -0.41755,-0.1323 -0.16536,0 -0.30386,0.0444 -0.41341,0.1323 -0.11059,0.0889 -0.18087,0.20463 -0.21084,0.34726 -0.0248,0.11576 -0.0372,0.27699 -0.0372,0.48369 0,0.21291 0.0124,0.37207 0.0372,0.47956 0.03,0.14883 0.10025,0.26768 0.21084,0.35553 0.10955,0.0858 0.24805,0.12816 0.41341,0.12816 0.16227,0 0.30179,-0.0424 0.41755,-0.12816 0.11782,-0.0847 0.1881,-0.19223 0.21084,-0.32246 l 0.008,-0.0248 c 0.005,-0.0331 0.0227,-0.0455 0.0537,-0.0372 l 0.14056,0.0207 c 0.03,0.006 0.0424,0.0227 0.0372,0.0496 l -0.0165,0.0827 c -0.0413,0.16847 -0.14056,0.30593 -0.29765,0.41341 -0.15503,0.10749 -0.339,0.16124 -0.55398,0.16124 z m 2.45773,-2.158 c 0,0.031 -0.0155,0.0455 -0.0455,0.0455 h -0.52917 c -0.0114,0 -0.0165,0.006 -0.0165,0.0165 v 1.4304 c 0,0.15503 0.0341,0.26355 0.10335,0.3266 0.0682,0.061 0.17983,0.0909 0.33486,0.0909 h 0.10335 c 0.03,0 0.0455,0.0155 0.0455,0.0455 v 0.11989 c 0,0.031 -0.0155,0.0455 -0.0455,0.0455 l -0.13642,0.004 c -0.21291,0 -0.37207,-0.0393 -0.47956,-0.11989 -0.10542,-0.0827 -0.15916,-0.23254 -0.16123,-0.45062 v -1.49241 c 0,-0.0103 -0.007,-0.0165 -0.0207,-0.0165 h -0.26872 c -0.031,0 -0.0455,-0.0145 -0.0455,-0.0455 v -0.11162 c 0,-0.03 0.0145,-0.0455 0.0455,-0.0455 h 0.26872 c 0.0134,0 0.0207,-0.006 0.0207,-0.0207 v -0.51263 c 0,-0.03 0.0145,-0.0455 0.0455,-0.0455 h 0.1447 c 0.03,0 0.0455,0.0155 0.0455,0.0455 v 0.51263 c 0,0.0145 0.005,0.0207 0.0165,0.0207 h 0.52916 c 0.03,0 0.0455,0.0155 0.0455,0.0455 z m 1.24334,2.1208 c -0.0279,0 -0.0455,-0.0124 -0.0538,-0.0372 l -0.7524,-2.19108 -0.004,-0.0207 c 0,-0.0186 0.0134,-0.0289 0.0413,-0.0289 h 0.17363 c 0.0248,0 0.0424,0.0114 0.0537,0.0331 l 0.61598,1.87276 c 0.002,0.006 0.006,0.008 0.0124,0.008 0.005,0 0.009,-0.002 0.0124,-0.008 l 0.61598,-1.87276 c 0.008,-0.0217 0.0258,-0.0331 0.0537,-0.0331 l 0.16537,0.004 c 0.0351,0 0.0475,0.0165 0.0372,0.0496 l -0.74414,2.18695 c -0.0114,0.0248 -0.029,0.0372 -0.0538,0.0372 z m 1.52445,0 c -0.031,0 -0.0455,-0.0145 -0.0455,-0.0455 v -2.18694 c 0,-0.03 0.0145,-0.0455 0.0455,-0.0455 h 0.14883 c 0.03,0 0.0455,0.0155 0.0455,0.0455 v 2.18694 c 0,0.031 -0.0155,0.0455 -0.0455,0.0455 z m -0.0455,-2.58382 c -0.0196,0 -0.032,-0.004 -0.0372,-0.0124 -0.006,-0.0103 -0.004,-0.0248 0.004,-0.0413 l 0.27699,-0.49609 c 0.008,-0.0217 0.0258,-0.0331 0.0537,-0.0331 h 0.13229 c 0.0165,0 0.0269,0.006 0.0331,0.0165 0.008,0.0114 0.006,0.0238 -0.004,0.0372 l -0.30179,0.50023 c -0.0145,0.0196 -0.032,0.0289 -0.0537,0.0289 z m 2.45256,2.58382 c -0.0279,0 -0.0455,-0.0124 -0.0537,-0.0372 l -0.75241,-2.19108 -0.004,-0.0207 c 0,-0.0186 0.0134,-0.0289 0.0413,-0.0289 h 0.17364 c 0.0248,0 0.0424,0.0114 0.0537,0.0331 l 0.61598,1.87276 c 0.002,0.006 0.006,0.008 0.0124,0.008 0.005,0 0.009,-0.002 0.0124,-0.008 l 0.61598,-1.87276 c 0.008,-0.0217 0.0258,-0.0331 0.0538,-0.0331 l 0.16536,0.004 c 0.0351,0 0.0475,0.0165 0.0372,0.0496 l -0.74414,2.18695 c -0.0114,0.0248 -0.0289,0.0372 -0.0538,0.0372 z m 4.40903,-3.12126 c 0,-0.03 0.0145,-0.0455 0.0455,-0.0455 h 0.14883 c 0.03,0 0.0455,0.0155 0.0455,0.0455 v 3.07578 c 0,0.031 -0.0155,0.0455 -0.0455,0.0455 h -0.14883 c -0.0196,0 -0.0372,-0.0103 -0.0538,-0.0331 l -1.6371,-2.6541 c -0.003,-0.008 -0.007,-0.0103 -0.0124,-0.008 -0.006,0 -0.008,0.004 -0.008,0.0124 v 2.63756 c 0,0.031 -0.0155,0.0455 -0.0455,0.0455 h -0.14883 c -0.031,0 -0.0455,-0.0145 -0.0455,-0.0455 v -3.07578 c 0,-0.03 0.0145,-0.0455 0.0455,-0.0455 h 0.15296 c 0.0186,0 0.0372,0.0114 0.0537,0.0331 l 1.63298,2.6541 c 0.002,0.008 0.006,0.0124 0.0124,0.0124 0.005,-0.002 0.008,-0.008 0.008,-0.0165 z m 1.91823,3.15846 c -0.2098,0 -0.39067,-0.0548 -0.54157,-0.16536 -0.15193,-0.11265 -0.25424,-0.26252 -0.30592,-0.45062 -0.0331,-0.12092 -0.0496,-0.31006 -0.0496,-0.56637 0,-0.25632 0.0165,-0.44235 0.0496,-0.55811 0.0517,-0.18707 0.15296,-0.33589 0.30179,-0.44648 0.15089,-0.10956 0.33486,-0.16537 0.54984,-0.16537 0.21187,0 0.39377,0.0568 0.5457,0.1695 0.15089,0.11059 0.25321,0.25838 0.30592,0.44235 0.0186,0.0692 0.031,0.14676 0.0372,0.23151 0.005,0.0858 0.008,0.19431 0.008,0.3266 0,0.14056 -0.003,0.25425 -0.008,0.339 -0.006,0.0827 -0.0186,0.15916 -0.0372,0.22737 -0.0527,0.1881 -0.15503,0.33797 -0.30592,0.45062 -0.15193,0.11059 -0.33486,0.16536 -0.54984,0.16536 z m 0,-0.21497 c 0.15917,0 0.29559,-0.0434 0.40928,-0.13229 0.11265,-0.0878 0.18603,-0.20464 0.21911,-0.3514 0.0217,-0.0796 0.0331,-0.23978 0.0331,-0.47956 0,-0.23978 -0.0103,-0.39894 -0.0289,-0.47955 -0.0331,-0.14573 -0.10645,-0.26252 -0.21911,-0.3514 -0.11368,-0.0879 -0.25114,-0.1323 -0.41341,-0.1323 -0.1633,0 -0.30075,0.0444 -0.41341,0.1323 -0.11059,0.0889 -0.1819,0.20567 -0.21497,0.3514 -0.0196,0.094 -0.0289,0.25424 -0.0289,0.47955 0,0.22635 0.009,0.38654 0.0289,0.47956 0.0331,0.14883 0.10438,0.26768 0.21497,0.35553 0.11266,0.0858 0.25011,0.12816 0.41341,0.12816 z m 2.10427,0.17777 c -0.0279,0 -0.0455,-0.0124 -0.0538,-0.0372 l -0.75241,-2.19108 -0.004,-0.0207 c 0,-0.0186 0.0134,-0.0289 0.0413,-0.0289 h 0.17363 c 0.0248,0 0.0424,0.0114 0.0537,0.0331 l 0.61598,1.87276 c 0.002,0.006 0.006,0.008 0.0124,0.008 0.005,0 0.009,-0.002 0.0124,-0.008 l 0.61598,-1.87276 c 0.008,-0.0217 0.0258,-0.0331 0.0537,-0.0331 l 0.16537,0.004 c 0.0351,0 0.0475,0.0165 0.0372,0.0496 l -0.74414,2.18695 c -0.0114,0.0248 -0.0289,0.0372 -0.0537,0.0372 z m 2.32027,-0.17777 c 0.14056,0 0.26148,-0.031 0.3638,-0.0951 0.10129,-0.0661 0.17983,-0.15503 0.23565,-0.26872 0.0165,-0.0269 0.0372,-0.0351 0.062,-0.0248 l 0.11575,0.0579 c 0.0269,0.0165 0.0341,0.0372 0.0207,0.062 -0.0661,0.14676 -0.17156,0.26355 -0.31419,0.3514 -0.14366,0.0889 -0.31212,0.1323 -0.50436,0.1323 -0.20981,0 -0.38861,-0.0507 -0.53744,-0.15297 -0.14676,-0.10438 -0.24701,-0.24494 -0.30179,-0.42168 -0.0248,-0.0765 -0.0413,-0.16123 -0.0496,-0.25218 -0.008,-0.093 -0.0124,-0.21187 -0.0124,-0.35553 0,-0.14573 10e-4,-0.25632 0.004,-0.33073 0.005,-0.0765 0.0145,-0.14676 0.0289,-0.21084 0.0496,-0.19017 0.14883,-0.34107 0.29766,-0.45475 0.14882,-0.11576 0.33176,-0.17364 0.54983,-0.17364 0.24805,0 0.44442,0.0651 0.59118,0.19431 0.14883,0.12712 0.24081,0.30385 0.27699,0.52916 0.008,0.0579 0.0134,0.12609 0.0165,0.20258 0.005,0.0744 0.008,0.16949 0.008,0.28525 0,0.031 -0.0155,0.0455 -0.0455,0.0455 h -1.47588 c -0.0114,0 -0.0165,0.006 -0.0165,0.0165 0,0.19327 0.006,0.32143 0.0207,0.38447 0.0331,0.14883 0.10749,0.26665 0.22324,0.3514 0.11576,0.0858 0.26252,0.12816 0.44235,0.12816 z m -0.65732,-1.45521 c -0.0145,0.0579 -0.0238,0.1757 -0.0289,0.3514 0,0.0145 0.005,0.0207 0.0165,0.0207 h 1.26091 c 0.0134,0 0.0207,-0.006 0.0207,-0.0207 0,-0.14883 -0.008,-0.26148 -0.0248,-0.33899 -0.0331,-0.14263 -0.10645,-0.25839 -0.21911,-0.34727 -0.11059,-0.091 -0.24701,-0.13643 -0.40927,-0.13643 -0.1633,0 -0.29973,0.0444 -0.40928,0.1323 -0.10749,0.0858 -0.17673,0.19843 -0.20671,0.33899 z m 0.49195,-0.95084 c -0.0196,0 -0.032,-0.004 -0.0372,-0.0124 -0.006,-0.0103 -0.004,-0.0248 0.004,-0.0413 l 0.27699,-0.49609 c 0.008,-0.0217 0.0259,-0.0331 0.0537,-0.0331 h 0.1323 c 0.0165,0 0.0269,0.006 0.0331,0.0165 0.008,0.0114 0.006,0.0238 -0.004,0.0372 l -0.30179,0.50023 c -0.0145,0.0196 -0.032,0.0289 -0.0537,0.0289 z m 3.97289,0.27285 c 0.22014,0 0.39687,0.0661 0.52917,0.19844 0.13229,0.13229 0.19843,0.31419 0.19843,0.5457 v 1.52135 c 0,0.031 -0.0155,0.0455 -0.0455,0.0455 h -0.1447 c -0.031,0 -0.0455,-0.0145 -0.0455,-0.0455 v -1.47588 c 0,-0.1757 -0.0527,-0.31626 -0.1571,-0.42168 -0.10232,-0.10438 -0.23564,-0.15709 -0.40101,-0.15709 -0.17673,0 -0.31833,0.0527 -0.42581,0.15709 -0.10542,0.10232 -0.1571,0.23978 -0.1571,0.41342 v 1.48414 c 0,0.031 -0.0155,0.0455 -0.0455,0.0455 h -0.1447 c -0.031,0 -0.0455,-0.0145 -0.0455,-0.0455 v -1.47588 c 0,-0.1757 -0.0527,-0.31626 -0.1571,-0.42168 -0.10232,-0.10438 -0.23564,-0.15709 -0.40101,-0.15709 -0.17673,0 -0.31729,0.0527 -0.42168,0.15709 -0.10542,0.10232 -0.15709,0.23978 -0.15709,0.41342 v 1.48414 c 0,0.031 -0.0155,0.0455 -0.0455,0.0455 h -0.14883 c -0.031,0 -0.0455,-0.0145 -0.0455,-0.0455 v -2.18694 c 0,-0.03 0.0145,-0.0455 0.0455,-0.0455 h 0.14883 c 0.03,0 0.0455,0.0155 0.0455,0.0455 v 0.20257 c 0,0.006 0.002,0.0103 0.008,0.0124 0.008,0.003 0.0134,0.002 0.0165,-0.004 0.063,-0.0961 0.14676,-0.16744 0.25218,-0.21498 0.10748,-0.0496 0.22944,-0.0744 0.36793,-0.0744 0.154,0 0.28733,0.0351 0.40101,0.10335 0.11266,0.0662 0.19844,0.16123 0.25632,0.28525 0.005,0.0114 0.0134,0.0124 0.0248,0.004 0.063,-0.12919 0.15399,-0.22738 0.27285,-0.29352 0.12092,-0.0662 0.26148,-0.0992 0.42168,-0.0992 z m 3.32693,2.34817 c -0.33383,0 -0.59738,-0.0744 -0.78962,-0.22324 -0.19327,-0.15089 -0.28939,-0.3514 -0.28939,-0.59944 v -0.14883 c 0,-0.03 0.0145,-0.0455 0.0455,-0.0455 h 0.14056 c 0.03,0 0.0455,0.0155 0.0455,0.0455 v 0.13229 c 0,0.1881 0.0765,0.339 0.23151,0.45475 0.154,0.11369 0.36484,0.1695 0.63252,0.1695 0.25012,0 0.44235,-0.0506 0.57464,-0.15296 0.1323,-0.10439 0.19844,-0.24908 0.19844,-0.43408 0,-0.10956 -0.0289,-0.20671 -0.0868,-0.28939 -0.0579,-0.0847 -0.14883,-0.1633 -0.27286,-0.23565 -0.12195,-0.0713 -0.29352,-0.15399 -0.51676,-0.24804 -0.23461,-0.0992 -0.41238,-0.1819 -0.5333,-0.24805 -0.11886,-0.0662 -0.21394,-0.14883 -0.28526,-0.24805 -0.0723,-0.10128 -0.10748,-0.23254 -0.10748,-0.39274 0,-0.24804 0.0837,-0.43925 0.25218,-0.57464 0.17053,-0.13436 0.40721,-0.20257 0.71106,-0.20257 0.32764,0 0.58498,0.0765 0.77309,0.22738 0.18706,0.15192 0.28112,0.3545 0.28112,0.60771 v 0.10335 c 0,0.031 -0.0155,0.0455 -0.0455,0.0455 h -0.14883 c -0.031,0 -0.0455,-0.0145 -0.0455,-0.0455 v -0.0909 c 0,-0.19017 -0.0734,-0.34313 -0.21911,-0.45888 -0.14366,-0.11576 -0.34727,-0.17364 -0.61185,-0.17364 -0.22944,0 -0.40514,0.0486 -0.52917,0.1447 -0.12195,0.0941 -0.1819,0.22944 -0.1819,0.40514 0,0.12196 0.0269,0.22118 0.0827,0.29766 0.0579,0.0744 0.14057,0.13952 0.24805,0.1943 0.10749,0.0558 0.27285,0.12816 0.49609,0.21911 0.22325,0.0909 0.40205,0.17777 0.53744,0.26045 0.13746,0.0827 0.24495,0.18086 0.32246,0.29352 0.0796,0.11059 0.11989,0.24391 0.11989,0.40101 0,0.24598 -0.091,0.44235 -0.27285,0.59118 -0.17983,0.14676 -0.43202,0.2191 -0.75654,0.2191 z m 2.64066,-2.158 c 0,0.031 -0.0155,0.0455 -0.0455,0.0455 h -0.52917 c -0.0114,0 -0.0165,0.006 -0.0165,0.0165 v 1.4304 c 0,0.15503 0.0341,0.26355 0.10335,0.3266 0.0682,0.061 0.17983,0.0909 0.33486,0.0909 h 0.10336 c 0.03,0 0.0455,0.0155 0.0455,0.0455 v 0.11989 c 0,0.031 -0.0155,0.0455 -0.0455,0.0455 l -0.13642,0.004 c -0.21291,0 -0.37207,-0.0393 -0.47956,-0.11989 -0.10542,-0.0827 -0.15916,-0.23254 -0.16123,-0.45062 v -1.49241 c 0,-0.0103 -0.007,-0.0165 -0.0207,-0.0165 h -0.26872 c -0.031,0 -0.0455,-0.0145 -0.0455,-0.0455 v -0.11162 c 0,-0.03 0.0145,-0.0455 0.0455,-0.0455 h 0.26872 c 0.0134,0 0.0207,-0.006 0.0207,-0.0207 v -0.51263 c 0,-0.03 0.0145,-0.0455 0.0455,-0.0455 h 0.1447 c 0.03,0 0.0455,0.0155 0.0455,0.0455 v 0.51263 c 0,0.0145 0.005,0.0207 0.0165,0.0207 h 0.52916 c 0.03,0 0.0455,0.0155 0.0455,0.0455 z m 1.53376,-0.17777 c 0.10128,0 0.1881,0.0186 0.26045,0.0537 0.0248,0.0114 0.0341,0.032 0.0289,0.062 l -0.0413,0.14469 c -0.008,0.031 -0.0279,0.0393 -0.0579,0.0248 -0.061,-0.0248 -0.13643,-0.0341 -0.22738,-0.0289 -0.16846,0.003 -0.30799,0.0661 -0.41754,0.19016 -0.11059,0.12403 -0.16537,0.27699 -0.16537,0.45889 v 1.34772 c 0,0.031 -0.0155,0.0455 -0.0455,0.0455 h -0.14883 c -0.031,0 -0.0455,-0.0145 -0.0455,-0.0455 v -2.18694 c 0,-0.03 0.0145,-0.0455 0.0455,-0.0455 h 0.14889 c 0.03,0 0.0455,0.0155 0.0455,0.0455 v 0.30592 c 0,0.008 10e-4,0.0145 0.004,0.0165 0.005,0 0.0103,-0.004 0.0165,-0.0124 0.0631,-0.11782 0.1447,-0.21083 0.24392,-0.27698 0.10128,-0.0662 0.22014,-0.0992 0.35553,-0.0992 z m 1.51515,-0.0165 c 0.26458,0 0.46509,0.0692 0.60358,0.20671 0.14056,0.13539 0.21084,0.32039 0.21084,0.55397 v 1.50895 c 0,0.031 -0.0155,0.0455 -0.0455,0.0455 h -0.14883 c -0.031,0 -0.0455,-0.0145 -0.0455,-0.0455 v -0.21084 c 0,-0.008 -0.003,-0.0134 -0.008,-0.0165 -0.003,-0.002 -0.008,-0.001 -0.0165,0.004 -0.0775,0.10232 -0.17983,0.17983 -0.30592,0.23151 -0.12402,0.0496 -0.26355,0.0744 -0.41755,0.0744 -0.2067,0 -0.38343,-0.0517 -0.52916,-0.15709 -0.14366,-0.10749 -0.21497,-0.26975 -0.21497,-0.48783 0,-0.22324 0.0827,-0.39894 0.24804,-0.52916 0.16537,-0.12919 0.39274,-0.19431 0.68213,-0.19431 h 0.54157 c 0.0134,0 0.0207,-0.005 0.0207,-0.0165 v -0.20257 c 0,-0.17054 -0.0486,-0.30593 -0.14469,-0.40515 -0.0941,-0.0992 -0.23875,-0.14883 -0.43409,-0.14883 -0.15502,0 -0.28111,0.032 -0.38033,0.0951 -0.0992,0.0641 -0.16124,0.14883 -0.18604,0.25631 -0.008,0.0279 -0.0269,0.0403 -0.0537,0.0372 l -0.1571,-0.0207 c -0.0331,-0.005 -0.0475,-0.0176 -0.0413,-0.0372 0.0269,-0.16226 0.11575,-0.29352 0.26458,-0.39274 0.14883,-0.0992 0.33487,-0.14883 0.55811,-0.14883 z m -0.13229,2.14148 c 0.19017,0 0.35553,-0.0455 0.49609,-0.13643 0.14056,-0.093 0.21084,-0.22428 0.21084,-0.39274 v -0.40928 c 0,-0.0103 -0.007,-0.0165 -0.0207,-0.0165 h -0.51676 c -0.21498,0 -0.38861,0.0455 -0.5209,0.13643 -0.13022,0.0889 -0.19431,0.21291 -0.19431,0.37207 0,0.14883 0.0506,0.26045 0.15297,0.33486 0.10128,0.0744 0.23254,0.11163 0.39274,0.11163 z m 2.37608,0.1943 c -0.1633,0 -0.30799,-0.0258 -0.43408,-0.0785 -0.12402,-0.0517 -0.22118,-0.12196 -0.28939,-0.21084 -0.0693,-0.091 -0.10335,-0.1912 -0.10335,-0.30179 v -0.0579 c 0,-0.03 0.0145,-0.0455 0.0455,-0.0455 h 0.14056 c 0.03,0 0.0455,0.0155 0.0455,0.0455 v 0.0496 c 0,0.11059 0.0548,0.20567 0.16536,0.28526 0.10956,0.0806 0.25218,0.11989 0.42582,0.11989 0.16743,0 0.30385,-0.0393 0.40927,-0.11989 0.10749,-0.0827 0.16123,-0.18294 0.16123,-0.30179 0,-0.0847 -0.0279,-0.154 -0.0827,-0.20671 -0.0558,-0.0548 -0.11989,-0.0961 -0.1943,-0.12402 -0.0724,-0.03 -0.1819,-0.0682 -0.33073,-0.11576 -0.16847,-0.0496 -0.30489,-0.0961 -0.40928,-0.14056 -0.10232,-0.0465 -0.18913,-0.11162 -0.26045,-0.1943 -0.0692,-0.0827 -0.10335,-0.18707 -0.10335,-0.31419 0,-0.18397 0.0724,-0.33177 0.21911,-0.44236 0.14573,-0.10955 0.339,-0.16536 0.57878,-0.16536 0.15916,0 0.29972,0.0279 0.42167,0.0827 0.12093,0.0527 0.21498,0.12403 0.28112,0.21498 0.0682,0.0889 0.10336,0.19017 0.10336,0.30592 v 0.0124 c 0,0.031 -0.0155,0.0455 -0.0455,0.0455 h -0.13642 c -0.031,0 -0.0455,-0.0145 -0.0455,-0.0455 v -0.0124 c 0,-0.11575 -0.0537,-0.21187 -0.16123,-0.28939 -0.10749,-0.0765 -0.25011,-0.11575 -0.42581,-0.11575 -0.16847,0 -0.30386,0.0362 -0.40515,0.10748 -0.10232,0.0724 -0.15296,0.16847 -0.15296,0.28939 0,0.11369 0.0465,0.19844 0.14056,0.25632 0.0961,0.0579 0.24495,0.11782 0.44649,0.17776 0.17363,0.0496 0.31212,0.0982 0.41754,0.1447 0.10439,0.0444 0.1943,0.10749 0.26872,0.19017 0.0765,0.0827 0.11575,0.19017 0.11575,0.32246 0,0.19017 -0.0734,0.34313 -0.21911,0.45889 -0.14675,0.11575 -0.34209,0.17363 -0.58704,0.17363 z m -0.52503,-3.13366 c -0.006,-0.005 -0.008,-0.0134 -0.008,-0.0248 0,-0.005 0.002,-0.0103 0.008,-0.0165 0.005,-0.008 0.0134,-0.0124 0.0248,-0.0124 h 0.11989 c 0.0269,0 0.0465,0.0103 0.0579,0.0289 l 0.29765,0.39274 c 0.002,0.006 0.006,0.008 0.0124,0.008 0.008,0 0.0134,-0.002 0.0165,-0.008 l 0.29352,-0.39274 c 0.0103,-0.0186 0.03,-0.0289 0.0579,-0.0289 h 0.11989 c 0.0165,0 0.0269,0.006 0.0331,0.0165 0.008,0.0114 0.005,0.0238 -0.008,0.0372 l -0.37207,0.48783 c -0.0114,0.0196 -0.031,0.0289 -0.0579,0.0289 h -0.1695 c -0.0279,0 -0.0486,-0.009 -0.062,-0.0289 z m 2.8329,2.93522 c 0.14056,0 0.26148,-0.031 0.3638,-0.0951 0.10129,-0.0661 0.17984,-0.15503 0.23565,-0.26872 0.0165,-0.0269 0.0372,-0.0351 0.062,-0.0248 l 0.11575,0.0579 c 0.0269,0.0165 0.0341,0.0372 0.0207,0.062 -0.0661,0.14676 -0.17157,0.26355 -0.31419,0.3514 -0.14367,0.0889 -0.31213,0.1323 -0.50437,0.1323 -0.2098,0 -0.3886,-0.0507 -0.53743,-0.15297 -0.14676,-0.10438 -0.24701,-0.24494 -0.30179,-0.42168 -0.0248,-0.0765 -0.0413,-0.16123 -0.0496,-0.25218 -0.008,-0.093 -0.0124,-0.21187 -0.0124,-0.35553 0,-0.14573 0.001,-0.25632 0.004,-0.33073 0.005,-0.0765 0.0145,-0.14676 0.0289,-0.21084 0.0496,-0.19017 0.14883,-0.34107 0.29765,-0.45475 0.14883,-0.11576 0.33177,-0.17364 0.54984,-0.17364 0.24805,0 0.44442,0.0651 0.59118,0.19431 0.14883,0.12712 0.24081,0.30385 0.27698,0.52916 0.008,0.0579 0.0134,0.12609 0.0165,0.20258 0.005,0.0744 0.008,0.16949 0.008,0.28525 0,0.031 -0.0155,0.0455 -0.0455,0.0455 h -1.47588 c -0.0114,0 -0.0165,0.006 -0.0165,0.0165 0,0.19327 0.006,0.32143 0.0207,0.38447 0.033,0.14883 0.10749,0.26665 0.22324,0.3514 0.11576,0.0858 0.26252,0.12816 0.44235,0.12816 z m -0.65732,-1.45521 c -0.0145,0.0579 -0.0238,0.1757 -0.0289,0.3514 0,0.0145 0.005,0.0207 0.0165,0.0207 h 1.2609 c 0.0135,0 0.0207,-0.006 0.0207,-0.0207 0,-0.14883 -0.008,-0.26148 -0.0248,-0.33899 -0.0331,-0.14263 -0.10646,-0.25839 -0.21911,-0.34727 -0.11059,-0.091 -0.24701,-0.13643 -0.40928,-0.13643 -0.1633,0 -0.29972,0.0444 -0.40928,0.1323 -0.10748,0.0858 -0.17673,0.19843 -0.2067,0.33899 z m 3.02927,1.67018 c -0.21291,0 -0.39481,-0.0548 -0.5457,-0.16536 -0.14883,-0.11265 -0.24805,-0.26252 -0.29766,-0.45062 -0.0393,-0.14573 -0.0579,-0.33486 -0.0579,-0.56637 0,-0.22324 0.0186,-0.40928 0.0579,-0.55811 0.0465,-0.18397 0.14573,-0.33176 0.29766,-0.44235 0.15089,-0.11265 0.33279,-0.1695 0.5457,-0.1695 0.21497,0 0.39894,0.0558 0.55397,0.16537 0.1571,0.10749 0.25631,0.24288 0.29766,0.40514 0.0103,0.0413 0.0207,0.0827 0.0289,0.12403 v 0.0124 c 0,0.0196 -0.0145,0.032 -0.0413,0.0372 l -0.14469,0.0207 h -0.008 c -0.0227,0 -0.0362,-0.0134 -0.0414,-0.0413 l -0.0165,-0.062 c -0.0248,-0.12609 -0.0951,-0.23254 -0.21084,-0.31832 -0.11576,-0.0879 -0.25528,-0.1323 -0.41755,-0.1323 -0.16536,0 -0.30386,0.0444 -0.41341,0.1323 -0.11059,0.0889 -0.18087,0.20463 -0.21084,0.34726 -0.0248,0.11576 -0.0372,0.27699 -0.0372,0.48369 0,0.21291 0.0124,0.37207 0.0372,0.47956 0.03,0.14883 0.10025,0.26768 0.21084,0.35553 0.10955,0.0858 0.24805,0.12816 0.41341,0.12816 0.16227,0 0.30179,-0.0424 0.41755,-0.12816 0.11782,-0.0847 0.1881,-0.19223 0.21084,-0.32246 l 0.008,-0.0248 c 0.005,-0.0331 0.0228,-0.0455 0.0538,-0.0372 l 0.14056,0.0207 c 0.03,0.006 0.0424,0.0227 0.0372,0.0496 l -0.0165,0.0827 c -0.0413,0.16847 -0.14056,0.30593 -0.29766,0.41341 -0.15503,0.10749 -0.339,0.16124 -0.55397,0.16124 z m 1.50378,-0.0372 c -0.031,0 -0.0455,-0.0145 -0.0455,-0.0455 v -2.18694 c 0,-0.03 0.0145,-0.0455 0.0455,-0.0455 h 0.14883 c 0.03,0 0.0455,0.0155 0.0455,0.0455 v 2.18694 c 0,0.031 -0.0155,0.0455 -0.0455,0.0455 z m -0.0455,-2.58382 c -0.0197,0 -0.032,-0.004 -0.0372,-0.0124 -0.006,-0.0103 -0.004,-0.0248 0.004,-0.0413 l 0.27698,-0.49609 c 0.008,-0.0217 0.0258,-0.0331 0.0537,-0.0331 h 0.13229 c 0.0165,0 0.0269,0.006 0.0331,0.0165 0.008,0.0114 0.006,0.0238 -0.004,0.0372 l -0.30179,0.50023 c -0.0145,0.0196 -0.032,0.0289 -0.0537,0.0289 z m 0,0"
       style="fill:#231f20;fill-opacity:1;fill-rule:nonzero;stroke:none;stroke-width:0.352778"
       aria-label="Knihkupectví v Novém Strašecí" />
  </g>
</svg>
