<?xml version="1.0" standalone="no"?>
<!DOCTYPE svg PUBLIC "-//W3C//DTD SVG 20010904//EN"
 "http://www.w3.org/TR/2001/REC-SVG-20010904/DTD/svg10.dtd">
<svg version="1.0" xmlns="http://www.w3.org/2000/svg"
 width="832.000000pt" height="832.000000pt" viewBox="0 0 832.000000 832.000000"
 preserveAspectRatio="xMidYMid meet">
<metadata>
Created by potrace 1.14, written by Peter Selinger 2001-2017
</metadata>
<g transform="translate(0.000000,832.000000) scale(0.100000,-0.100000)"
fill="#000000" stroke="none">
<path d="M3857 7783 c-3 -2 -22 -6 -43 -9 -22 -2 -47 -7 -56 -10 -10 -3 -29
-7 -43 -10 -14 -2 -62 -13 -108 -24 -45 -10 -98 -22 -117 -25 -19 -3 -46 -7
-60 -10 -14 -3 -41 -7 -60 -10 -19 -3 -42 -8 -50 -10 -8 -2 -33 -6 -55 -10
-22 -3 -80 -12 -130 -21 -49 -9 -106 -17 -125 -20 -19 -2 -57 -8 -85 -14 -27
-5 -63 -12 -80 -14 -70 -11 -101 -17 -115 -21 -8 -2 -31 -6 -50 -9 -19 -3 -46
-8 -60 -12 -14 -3 -32 -7 -40 -8 -34 -6 -111 -22 -155 -31 -30 -7 -66 -14
-105 -21 -19 -4 -44 -9 -55 -11 -29 -6 -88 -15 -180 -28 -124 -17 -196 -44
-216 -82 -12 -22 -10 -30 10 -69 13 -24 35 -57 48 -72 69 -76 103 -126 109
-159 11 -58 6 -333 -11 -588 -1 -22 -6 -87 -9 -145 -4 -58 -9 -141 -12 -185
-3 -44 -7 -142 -8 -218 -2 -76 -6 -141 -10 -144 -4 -4 -23 -8 -44 -9 -281 -21
-485 -146 -550 -338 -19 -58 -20 -84 -7 -186 21 -155 22 -180 14 -180 -4 0 -5
-8 -3 -18 9 -32 -61 -85 -131 -98 -11 -2 -31 -6 -45 -9 -14 -3 -43 -8 -65 -10
-103 -12 -170 -41 -209 -88 -28 -35 -31 -46 -31 -107 0 -62 3 -70 28 -94 52
-49 195 -108 317 -132 8 -2 51 -13 95 -24 44 -12 87 -23 95 -25 8 -2 15 -4 15
-5 0 -1 7 -3 15 -5 8 -2 67 -20 130 -40 63 -20 120 -37 125 -39 6 -1 35 -10
65 -19 30 -9 57 -16 60 -16 3 0 19 -5 35 -11 17 -7 37 -13 45 -15 8 -2 35 -10
60 -18 37 -13 182 -57 200 -62 34 -9 194 -60 355 -113 110 -36 202 -67 205
-67 3 -1 37 -11 75 -23 61 -18 114 -32 190 -48 11 -2 43 -7 70 -10 28 -4 53
-8 57 -10 3 -2 17 10 29 28 29 43 74 83 125 112 41 23 179 71 232 81 15 3 38
7 52 10 65 14 172 32 245 41 22 3 47 7 55 9 8 3 33 7 55 11 22 3 60 10 85 16
25 5 52 11 60 13 8 2 45 10 81 19 37 8 78 17 90 20 13 2 56 12 94 21 86 21
103 25 135 31 13 3 60 14 105 24 45 10 92 21 105 24 14 2 75 16 135 30 135 32
155 37 180 42 11 2 31 6 45 9 47 11 65 15 88 19 13 3 33 8 44 12 11 3 30 7 41
9 12 2 65 13 117 25 52 12 106 23 120 26 14 3 41 9 60 14 19 5 51 12 70 14 19
3 87 18 150 32 63 15 123 27 132 28 10 1 21 5 24 9 4 4 18 7 30 7 13 0 33 4
46 9 24 9 163 48 208 57 37 8 55 12 55 14 0 1 7 3 15 5 184 38 239 47 327 49
50 2 60 -10 17 -18 -10 -2 -73 -18 -139 -35 -66 -18 -127 -33 -135 -34 -8 -2
-21 -6 -27 -10 -7 -5 -13 -6 -13 -3 0 3 -11 1 -25 -4 -14 -5 -36 -12 -48 -14
-44 -10 -311 -79 -364 -95 -18 -5 -33 -8 -33 -6 0 2 -16 -3 -35 -11 -19 -8
-37 -14 -40 -14 -45 1 -45 -3 3 -77 125 -189 160 -356 96 -460 -31 -50 -116
-116 -168 -129 -26 -6 -28 -5 -21 12 14 34 15 257 1 310 -47 178 -156 250
-366 245 -52 -2 -125 -8 -125 -11 0 -1 -13 -4 -30 -6 -16 -3 -59 -12 -95 -21
-36 -9 -72 -17 -80 -18 -8 -1 -22 -5 -30 -8 -8 -3 -64 -20 -125 -37 -60 -17
-118 -33 -127 -36 -16 -5 -16 -8 6 -37 36 -49 100 -175 121 -242 26 -79 26
-197 2 -243 -37 -69 -72 -97 -167 -134 -50 -20 -64 -22 -56 -10 15 25 23 226
11 297 -16 92 -80 241 -127 296 l-23 27 -95 -24 c-52 -13 -106 -26 -120 -28
-24 -5 -86 -19 -225 -52 -33 -8 -71 -17 -84 -20 -12 -2 -53 -12 -90 -20 -36
-9 -75 -18 -86 -20 -27 -5 -36 -7 -210 -49 -82 -19 -156 -35 -165 -35 -30 0
-41 -15 -32 -41 5 -13 10 -27 11 -31 1 -4 10 -27 20 -50 24 -57 59 -191 66
-253 26 -221 -33 -342 -195 -402 -38 -14 -140 -29 -140 -20 0 3 7 36 16 74 9
37 18 79 20 92 3 14 7 28 10 33 3 4 -1 8 -8 8 -7 0 -90 25 -183 55 -94 30
-177 55 -186 55 -8 0 -19 4 -25 9 -5 4 -30 13 -55 19 -26 7 -53 14 -62 18 -36
13 -54 -175 -23 -235 22 -42 75 -101 91 -101 7 0 18 -6 24 -14 9 -11 6 -13
-14 -13 -14 0 -25 3 -25 7 0 3 -7 7 -15 7 -24 0 -95 26 -95 35 0 4 -5 8 -10 8
-14 0 -51 36 -78 76 -26 38 -41 135 -35 220 l4 61 -48 13 c-26 7 -52 17 -58
21 -5 4 -14 7 -18 7 -7 0 -238 73 -481 153 -65 21 -121 39 -124 39 -11 0 11
-147 29 -195 30 -80 146 -185 204 -185 9 0 14 -4 10 -9 -3 -5 -15 -8 -28 -6
-12 3 -38 7 -57 9 -118 17 -229 85 -271 169 -15 28 -22 64 -24 117 -2 43 -6
88 -10 101 -8 27 -71 89 -90 89 -7 0 -18 6 -24 14 -16 19 -148 60 -190 59 -57
-2 -72 -8 -103 -38 -25 -25 -47 -91 -40 -117 1 -5 -4 -8 -11 -9 -6 0 -19 -2
-27 -4 -8 -2 -31 -6 -50 -10 -19 -3 -53 -11 -75 -17 -22 -5 -44 -11 -50 -13
-98 -22 -165 -69 -203 -140 -16 -32 -19 -111 -10 -294 7 -124 -14 -195 -72
-247 -15 -13 -66 -34 -123 -50 -126 -35 -219 -79 -282 -136 -46 -42 -92 -113
-100 -156 -2 -9 -4 -17 -5 -17 -5 0 -11 -48 -11 -95 -1 -63 18 -115 62 -164
31 -36 125 -99 194 -131 54 -25 184 -106 218 -135 69 -60 100 -165 70 -237
-15 -37 -18 -41 -59 -88 -131 -150 -144 -169 -149 -225 -3 -35 15 -74 44 -98
22 -17 63 -35 151 -67 41 -16 81 -32 88 -38 6 -5 12 -7 12 -4 0 3 29 -8 65
-24 181 -82 471 -190 550 -205 27 -5 32 -2 47 29 48 101 125 144 238 134 39
-3 69 -3 66 1 -2 4 -7 24 -10 46 l-6 38 47 -6 c92 -11 143 -14 144 -8 6 65 3
95 -11 100 -31 11 -72 48 -87 76 -11 22 -16 64 -17 151 -1 100 -5 127 -22 160
-23 44 -81 89 -129 100 -16 4 -34 9 -40 11 -57 16 -75 16 -76 -2 -1 -11 -1
-23 0 -28 1 -5 4 -75 6 -156 5 -198 -16 -288 -82 -340 -49 -38 -160 -17 -313
59 -83 42 -122 63 -130 71 -3 3 -29 21 -57 39 -50 31 -73 61 -35 46 9 -4 26
-8 37 -10 11 -2 52 -9 92 -15 86 -14 108 -18 108 -20 0 -1 9 -3 20 -4 11 -1
37 -6 57 -10 21 -4 38 -4 38 -1 0 19 -91 84 -183 131 -112 57 -154 93 -174
147 -12 35 -17 87 -7 87 4 0 77 -22 163 -49 86 -28 166 -53 179 -56 21 -6 22
-3 23 52 1 32 1 61 1 64 -9 87 -13 95 -54 134 -24 22 -57 48 -74 57 -36 20
-195 88 -206 88 -3 0 -19 5 -35 12 -15 6 -30 12 -33 12 -22 5 -209 69 -222 76
-10 6 -23 10 -30 10 -20 0 -150 70 -165 88 -45 56 -52 82 -39 137 2 11 5 23 5
27 2 18 57 70 87 83 35 14 41 15 114 15 118 0 302 -54 565 -165 17 -7 64 -25
105 -40 41 -15 93 -34 115 -42 22 -8 121 -44 220 -79 99 -36 203 -73 230 -84
28 -10 68 -24 90 -31 22 -7 44 -17 49 -21 6 -4 18 -8 28 -8 10 0 26 -4 36 -10
17 -9 484 -178 512 -185 32 -8 346 -127 372 -141 15 -8 30 -14 33 -13 3 0 18
-4 33 -9 68 -26 269 -104 287 -112 11 -5 83 -35 160 -66 77 -30 144 -60 149
-64 5 -5 -11 -14 -35 -20 -24 -6 -66 -18 -94 -26 -27 -8 -51 -14 -52 -14 -2 0
-4 0 -5 -1 -2 0 -10 -2 -18 -4 -8 -1 -35 -8 -60 -15 -25 -7 -53 -14 -63 -16
-10 -2 -27 -6 -37 -9 -10 -3 -27 -7 -37 -9 -10 -2 -56 -14 -103 -26 -47 -12
-95 -24 -107 -26 -12 -2 -32 -8 -44 -13 -17 -6 -52 2 -134 31 -60 22 -121 44
-135 48 -14 4 -90 31 -170 60 -80 29 -165 59 -190 67 -25 8 -54 19 -65 24 -34
15 -138 50 -168 56 -15 3 -30 9 -33 14 -3 5 -11 9 -18 9 -17 0 -19 -119 -2
-165 23 -65 83 -114 181 -149 28 -10 59 -21 70 -26 11 -4 36 -14 55 -21 19 -7
80 -34 135 -61 55 -27 101 -48 103 -48 1 0 16 -7 32 -15 17 -9 30 -12 30 -8 0
5 4 3 8 -3 7 -11 148 -70 187 -79 11 -2 43 -11 72 -19 88 -24 180 -18 327 21
235 64 328 44 466 -96 146 -149 191 -349 113 -493 -40 -73 -68 -91 -142 -90
-33 0 -66 4 -73 8 -7 5 -20 9 -28 11 -18 3 -131 49 -220 91 -63 29 -194 82
-215 86 -5 1 -35 11 -65 23 -30 12 -107 40 -170 63 -63 23 -124 45 -135 50
-39 15 -101 38 -185 69 -157 56 -445 162 -480 176 -40 17 -93 38 -100 40 -3 1
-18 7 -35 14 -44 18 -135 41 -165 41 -72 0 -149 -50 -183 -119 -9 -19 -16 -35
-15 -36 17 -14 537 -224 672 -271 39 -14 80 -29 91 -34 55 -24 244 -90 257
-90 8 0 18 -4 23 -9 6 -5 39 -18 75 -30 36 -12 74 -26 85 -31 11 -6 61 -24
110 -41 109 -38 241 -88 355 -136 114 -47 117 -49 180 -73 30 -12 64 -26 75
-30 32 -14 135 -50 138 -49 1 1 20 -4 42 -9 185 -49 376 -47 553 7 18 5 33 10
35 9 1 0 22 5 47 12 25 7 50 13 55 15 6 1 17 5 25 8 35 13 262 76 345 96 50
12 104 26 120 31 17 5 41 11 55 13 14 3 70 17 125 31 55 15 109 28 120 30 20
4 179 46 355 93 52 14 102 27 110 28 8 2 15 4 15 5 0 1 7 3 15 5 8 1 35 8 60
15 25 7 52 14 60 16 8 1 83 22 165 44 83 23 157 44 165 45 8 2 98 27 200 54
102 28 194 53 205 55 11 2 32 9 48 15 15 6 27 8 27 5 0 -4 7 -1 15 6 8 7 15
10 15 8 0 -3 46 8 103 24 56 16 109 31 118 33 8 2 74 20 145 40 138 39 230 64
254 70 8 2 31 9 50 15 19 6 44 13 55 15 11 3 61 16 110 30 50 14 97 27 105 29
8 3 71 19 140 36 69 18 132 33 140 35 8 2 16 4 18 5 1 2 5 3 10 4 57 13 242
95 242 107 0 5 6 9 13 9 22 0 144 127 177 184 l30 53 0 231 c0 260 2 253 -81
377 -79 118 -202 224 -315 271 -49 20 -48 14 -25 99 18 63 23 218 11 287 -34
186 -170 330 -367 384 -32 9 -68 17 -80 17 -28 1 -28 -3 -2 77 31 97 33 229 5
314 -27 78 -80 135 -148 158 -84 29 -244 10 -443 -51 -38 -12 -78 -24 -88 -26
-9 -2 -22 -7 -27 -10 -5 -3 -20 -8 -31 -10 -12 -3 -47 -12 -78 -21 -31 -9 -67
-18 -81 -21 -14 -2 -43 -9 -65 -15 -22 -5 -49 -12 -60 -14 -11 -2 -33 -7 -50
-11 -16 -4 -32 -7 -35 -8 -3 -1 -14 -4 -25 -7 -11 -4 -36 -9 -55 -12 -19 -4
-53 -11 -75 -16 -22 -6 -51 -13 -65 -16 -26 -5 -135 -30 -285 -65 -49 -11
-102 -22 -117 -24 -15 -2 -46 -9 -70 -16 -24 -6 -54 -13 -67 -15 -12 -3 -53
-12 -90 -20 -36 -9 -75 -18 -86 -20 -32 -6 -56 -12 -125 -28 -36 -8 -76 -17
-90 -20 -14 -2 -47 -10 -75 -16 -27 -6 -58 -13 -68 -15 -10 -2 -26 -6 -35 -9
-9 -3 -28 -7 -42 -10 -14 -2 -43 -9 -65 -14 -22 -6 -51 -13 -65 -15 -23 -4
-131 -29 -190 -44 -14 -4 -32 -8 -40 -9 -8 -1 -35 -7 -60 -14 -25 -7 -52 -14
-60 -15 -8 -1 -25 -5 -37 -9 -12 -4 -30 -9 -40 -11 -10 -2 -70 -18 -133 -35
-63 -17 -122 -33 -130 -35 -21 -5 -181 -45 -200 -50 -70 -17 -144 -33 -185
-40 -16 -3 -37 -8 -45 -10 -8 -2 -31 -7 -50 -10 -19 -3 -46 -7 -60 -10 -37 -7
-98 -14 -164 -20 -69 -7 -67 -3 32 64 141 95 402 189 607 217 11 1 20 3 20 4
0 2 20 6 65 13 19 4 58 11 85 16 28 6 66 13 85 15 19 3 46 8 60 11 14 3 39 8
55 10 17 3 37 8 45 10 15 4 60 13 95 19 11 2 56 11 100 21 44 9 91 19 105 22
14 2 43 9 65 14 22 5 54 12 70 15 17 3 44 9 60 14 17 5 46 12 65 15 19 3 43 8
52 11 17 5 45 11 88 20 14 3 61 14 105 25 44 11 94 22 110 25 42 8 60 12 63
14 1 2 5 3 10 4 4 1 32 8 62 15 30 7 93 22 140 32 132 31 290 68 350 84 30 8
71 17 90 20 50 8 82 14 110 20 14 3 53 10 87 15 51 8 231 45 268 54 60 15 105
30 132 42 17 8 36 14 41 14 22 0 96 47 141 90 187 177 179 564 -17 746 -58 54
-195 121 -262 129 -8 0 -37 5 -63 9 l-48 8 6 37 c3 20 8 50 10 66 2 17 8 54
13 82 5 29 8 93 7 141 -1 76 -6 98 -32 153 -42 90 -96 142 -190 185 -43 20
-91 46 -107 57 -28 20 -61 81 -70 128 -3 13 -5 24 -6 24 -3 0 -9 49 -14 110
-8 104 -18 189 -23 198 -2 4 -7 19 -9 34 -5 29 -31 84 -58 126 l-18 27 32 0
c76 0 149 40 169 93 15 39 -25 84 -80 89 -22 2 -43 0 -45 -4 -3 -5 -10 -6 -15
-2 -17 10 -241 -36 -349 -73 -25 -8 -52 -16 -60 -18 -8 -2 -59 -17 -112 -33
-54 -17 -98 -28 -98 -26 0 3 -8 0 -17 -5 -19 -10 -55 -17 -144 -27 -43 -5 -56
-3 -56 7 0 8 -4 61 -8 119 -19 247 -4 380 48 425 50 45 140 77 307 111 23 4
64 10 135 19 17 2 44 6 60 9 17 3 50 7 75 10 25 3 56 8 70 11 29 6 63 13 105
20 109 20 158 53 149 101 -3 16 -10 34 -16 42 -14 16 -82 52 -112 58 -11 3
-25 6 -31 8 -5 2 -23 6 -40 10 -16 4 -75 19 -130 33 -55 14 -134 33 -175 43
-41 10 -104 26 -140 35 -35 9 -71 17 -80 19 -8 2 -22 5 -30 8 -8 3 -80 23
-160 43 -166 43 -195 52 -340 95 -58 18 -109 33 -115 35 -5 1 -17 4 -25 7 -59
22 -347 101 -367 101 -7 0 -13 4 -13 9 0 5 -4 7 -8 4 -4 -3 -26 -1 -48 4 -56
13 -93 20 -139 26 -22 3 -59 10 -83 14 -46 8 -298 11 -305 3z m-1465 -719 c13
-3 43 -9 68 -14 41 -9 69 -15 110 -25 8 -2 15 -4 15 -6 0 -1 9 -3 20 -5 24 -4
154 -41 175 -50 8 -4 20 -8 26 -9 9 -2 180 -55 344 -107 36 -11 74 -21 86 -23
11 -1 25 -4 30 -7 5 -4 25 -9 44 -12 52 -8 69 -12 135 -30 33 -9 67 -18 76
-21 34 -7 109 -35 152 -55 44 -21 117 -82 117 -99 0 -5 3 -11 8 -13 13 -6 50
-83 67 -141 42 -144 3 -269 -92 -296 -43 -12 -93 -4 -193 32 -229 81 -750 253
-915 301 -49 15 -103 31 -120 36 -16 5 -42 11 -57 14 -15 2 -31 7 -36 10 -5 3
-22 8 -38 10 -119 22 -111 14 -111 110 l0 84 28 -8 c16 -5 29 -7 29 -4 0 3 8
0 18 -5 11 -6 30 -12 43 -14 13 -3 105 -26 204 -52 99 -26 187 -48 196 -50 8
-2 78 -22 155 -45 76 -22 146 -43 155 -45 16 -3 314 -91 432 -126 38 -12 71
-19 74 -16 2 3 8 20 13 39 4 18 9 39 11 47 3 10 -18 21 -71 38 -41 13 -84 25
-95 27 -11 3 -49 14 -85 25 -134 41 -437 131 -455 136 -5 1 -17 5 -25 8 -29
11 -95 31 -110 33 -20 2 -362 117 -420 141 -8 3 -21 7 -29 9 -25 5 -40 28 -46
74 -11 79 -13 89 -19 99 -6 9 41 20 56 13 5 -2 18 -5 30 -8z m2443 -356 c-10
-231 -16 -394 -15 -419 0 -28 2 -27 -111 -68 -54 -19 -146 -44 -199 -55 -14
-3 -65 -14 -115 -25 -49 -11 -101 -22 -115 -25 -14 -3 -65 -14 -115 -25 -102
-23 -108 -24 -101 -13 2 4 7 26 10 47 3 22 8 54 11 70 3 17 10 54 15 84 6 30
12 56 14 58 2 2 32 19 67 38 62 33 63 34 34 40 -52 11 -94 33 -111 60 -20 31
-39 114 -39 170 0 38 1 40 40 46 52 10 97 17 165 29 30 5 69 12 85 15 17 3 71
12 120 20 128 23 127 22 155 29 14 3 43 9 65 12 22 3 58 8 80 11 22 3 42 7 44
9 16 15 20 -10 16 -108z m-2445 -486 c26 -1 108 -30 197 -68 17 -8 35 -14 40
-13 4 1 15 -1 23 -4 14 -6 227 -60 280 -71 148 -31 371 -93 440 -122 157 -66
229 -116 260 -181 13 -27 27 -55 31 -65 32 -66 34 -230 4 -289 -21 -39 -79
-67 -130 -62 -39 4 -151 35 -190 53 -18 8 -326 110 -350 116 -5 1 -66 21 -135
44 -150 51 -232 75 -325 100 -186 48 -241 89 -298 226 -33 78 -54 208 -36 220
5 2 6 11 3 19 -6 16 22 64 51 85 23 17 93 29 115 19 8 -4 17 -7 20 -7z m3518
-446 l22 -8 -31 -39 c-49 -62 -144 -102 -304 -129 -38 -6 -82 -13 -97 -16 -16
-2 -58 -11 -95 -20 -38 -9 -79 -18 -93 -20 -14 -3 -33 -7 -42 -10 -16 -5 -37
-9 -86 -18 -12 -3 -30 -7 -40 -10 -9 -3 -28 -7 -42 -10 -14 -2 -78 -16 -143
-30 -65 -14 -131 -28 -147 -31 -16 -3 -82 -17 -147 -31 -65 -14 -127 -28 -138
-30 -11 -1 -29 -5 -40 -8 -190 -43 -382 -88 -390 -90 -5 -1 -26 -6 -45 -10
-19 -4 -42 -9 -51 -12 -12 -3 -16 5 -17 37 -3 67 61 118 180 145 10 2 26 6 36
8 17 4 62 11 137 22 22 3 42 7 45 9 3 2 26 6 50 10 25 3 61 10 80 15 19 5 51
12 70 15 19 3 62 12 95 20 33 8 112 26 175 40 63 13 194 43 290 66 96 22 186
43 200 45 14 3 43 10 65 16 22 6 49 12 60 13 11 2 34 8 50 15 17 6 31 11 33
11 1 -1 12 1 25 4 13 4 32 8 43 10 10 2 19 4 19 5 0 2 19 5 90 15 27 3 51 7
52 9 5 5 110 -1 131 -8z m-3921 -300 c54 -19 142 -50 196 -69 53 -19 97 -33
97 -31 0 3 6 2 13 -3 6 -4 17 -8 22 -9 20 -3 143 -44 255 -84 63 -23 120 -43
125 -44 6 -2 17 -6 25 -9 24 -10 180 -67 245 -89 33 -12 71 -25 85 -31 14 -6
34 -12 45 -14 11 -1 29 -7 40 -13 42 -20 298 -89 385 -105 19 -3 46 -8 60 -10
135 -24 291 -24 403 1 9 2 25 6 35 8 9 2 89 23 177 46 88 23 168 44 177 45 10
2 22 6 26 9 5 3 22 8 39 11 17 2 80 17 139 31 128 30 200 47 264 59 8 2 15 4
15 5 0 1 11 3 23 6 13 2 74 15 135 29 62 14 121 27 132 30 61 12 122 25 140
29 41 10 221 47 250 52 66 11 246 55 340 84 159 48 271 63 340 46 11 -2 23 -5
26 -5 11 -2 57 -46 73 -73 27 -41 32 -154 11 -219 -39 -119 -103 -163 -285
-194 -19 -3 -75 -15 -125 -26 -104 -24 -130 -29 -165 -34 -14 -2 -25 -4 -25
-5 0 -2 -13 -5 -55 -13 -14 -3 -137 -28 -275 -57 -241 -49 -314 -64 -363 -75
-57 -13 -249 -54 -272 -59 -14 -2 -63 -13 -110 -25 -82 -19 -105 -24 -167 -36
-16 -4 -75 -17 -133 -31 -58 -14 -114 -27 -125 -29 -25 -4 -36 -7 -158 -40
-112 -30 -117 -31 -214 -50 -95 -19 -139 -23 -228 -20 -55 2 -116 6 -135 10
-43 9 -234 71 -277 90 -17 8 -34 15 -38 15 -4 0 -21 6 -38 14 -53 23 -209 84
-257 99 -117 39 -553 178 -615 197 -38 12 -77 24 -85 28 -8 3 -19 7 -25 7 -5
1 -17 5 -25 8 -24 9 -251 66 -285 71 -8 1 -18 5 -21 9 -4 4 -14 7 -23 7 -34 0
-139 59 -169 95 -55 67 -60 182 -12 280 62 128 165 151 367 81z m3327 -1295
c60 -52 51 -162 -16 -197 -86 -44 -180 25 -162 120 15 82 119 128 178 77z
m-4174 -674 c0 3 6 0 13 -6 8 -6 22 -12 33 -14 10 -1 24 -5 29 -8 6 -4 42 -16
80 -28 39 -13 79 -26 90 -31 23 -10 237 -80 257 -84 7 -2 26 -8 42 -15 16 -6
36 -13 45 -14 15 -3 138 -42 171 -54 8 -3 20 -7 25 -8 6 -2 51 -15 100 -31 50
-15 92 -29 95 -29 3 -1 12 -4 20 -7 15 -6 130 -41 140 -43 3 -1 39 -12 80 -25
41 -13 77 -25 80 -25 3 -1 32 -9 65 -20 33 -10 62 -19 65 -20 3 0 21 -6 40
-12 81 -27 395 -127 400 -128 3 0 56 -18 117 -39 62 -20 114 -37 115 -36 2 0
21 -6 42 -15 22 -9 47 -19 55 -21 9 -2 66 -21 126 -42 61 -22 148 -52 195 -67
135 -43 193 -82 247 -168 43 -68 64 -137 68 -220 4 -87 -12 -140 -59 -189 -53
-55 -105 -50 -301 32 -11 5 -47 18 -80 31 -33 12 -89 33 -125 46 -36 13 -126
44 -200 69 -74 25 -144 49 -155 54 -11 4 -29 10 -40 13 -11 3 -123 41 -250 85
-126 44 -277 97 -335 117 -58 20 -114 40 -125 45 -28 12 -187 70 -205 75 -23
6 -213 74 -235 85 -11 5 -40 16 -65 24 -25 8 -70 24 -100 35 -30 11 -107 38
-170 61 -63 23 -124 44 -135 47 -11 3 -27 7 -35 10 -8 3 -23 8 -33 10 -51 9
-217 69 -252 90 -22 13 -47 26 -55 29 -28 10 -83 97 -96 151 -7 29 -8 53 -4
53 5 0 69 -16 142 -35 73 -19 162 -42 198 -51 36 -9 72 -18 80 -22 8 -3 22 -7
30 -8 8 -1 49 -11 90 -22 41 -11 77 -18 79 -16 18 16 -155 112 -279 153 -75
26 -80 28 -184 76 -71 33 -146 93 -146 116 0 17 -2 24 -11 40 -5 10 -4 20 3
27 7 7 9 12 5 12 -4 0 -3 9 3 19 9 18 14 18 110 -19 55 -21 100 -36 100 -33z
m6290 -237 c17 -12 28 -26 23 -29 -6 -6 -219 -71 -278 -85 -122 -31 -128 -40
-65 -101 22 -21 40 -45 40 -52 0 -7 4 -13 9 -13 12 0 57 -104 75 -173 37 -140
11 -262 -66 -320 -30 -22 -106 -64 -118 -65 -3 0 -18 -6 -35 -12 -16 -7 -37
-14 -45 -16 -8 -2 -46 -13 -85 -24 -38 -12 -79 -23 -90 -25 -133 -28 -277 -57
-304 -61 -34 -6 -57 -10 -101 -19 -14 -2 -36 -7 -50 -9 -14 -2 -77 -16 -140
-31 -63 -15 -122 -28 -130 -30 -8 -2 -15 -4 -15 -5 0 -2 -15 -5 -50 -13 -11
-2 -40 -9 -65 -16 -25 -7 -52 -14 -60 -16 -8 -2 -42 -10 -75 -19 -33 -9 -71
-19 -85 -22 -14 -3 -34 -8 -45 -11 -11 -4 -24 -8 -30 -9 -5 -1 -39 -10 -75
-19 -36 -9 -72 -18 -80 -20 -8 -2 -51 -13 -95 -26 -44 -12 -89 -23 -100 -25
-11 -1 -33 -7 -50 -14 -16 -6 -32 -11 -35 -11 -3 0 -21 -4 -40 -9 -19 -5 -46
-11 -60 -14 -14 -3 -54 -13 -90 -22 -36 -9 -74 -18 -85 -20 -11 -2 -49 -10
-85 -19 -36 -9 -78 -19 -95 -22 -16 -2 -48 -9 -70 -15 -22 -5 -51 -12 -65 -14
-14 -2 -36 -7 -50 -10 -60 -14 -60 -14 -60 17 0 35 30 97 56 119 38 32 92 51
244 86 85 20 162 40 171 45 9 4 29 11 45 14 16 2 92 23 169 45 77 22 148 43
158 45 10 2 27 7 37 10 10 3 27 8 37 10 10 2 61 16 113 30 52 15 103 28 114
30 58 13 136 39 170 58 68 37 111 83 74 78 -12 -1 -63 -11 -83 -15 -11 -3 -85
-19 -165 -36 -80 -17 -154 -33 -165 -36 -11 -2 -34 -6 -52 -8 -18 -3 -36 -7
-40 -9 -4 -3 -26 -8 -48 -11 -22 -4 -48 -9 -57 -12 -9 -3 -26 -7 -37 -9 -12
-3 -31 -7 -43 -10 -13 -3 -36 -7 -53 -9 -16 -2 -37 -7 -45 -10 -8 -3 -26 -7
-40 -10 -14 -3 -141 -30 -282 -60 -142 -31 -264 -56 -271 -56 -13 0 -15 25 -8
136 3 58 120 114 286 139 17 2 45 9 63 14 17 5 32 7 32 5 0 -3 6 -2 13 3 6 4
21 9 32 10 11 2 45 10 75 18 30 8 156 40 280 71 234 58 247 61 280 69 12 2 54
13 94 24 40 11 83 22 97 25 42 8 113 24 139 31 14 3 30 7 37 9 7 1 16 5 19 9
4 4 14 7 21 7 28 0 103 62 123 100 11 22 20 41 20 43 0 2 -53 -7 -117 -20 -65
-13 -129 -25 -143 -28 -14 -2 -70 -14 -125 -26 -55 -12 -107 -23 -115 -24 -8
-2 -15 -4 -15 -5 0 -1 -13 -3 -30 -5 -16 -2 -50 -9 -75 -15 -25 -6 -56 -13
-70 -15 -14 -3 -36 -7 -50 -10 -42 -9 -69 -15 -92 -20 -12 -2 -40 -7 -62 -11
-22 -3 -44 -8 -49 -11 -4 -3 -18 -6 -30 -8 -12 -2 -69 -13 -127 -25 -58 -12
-114 -24 -125 -26 -11 -1 -31 -6 -45 -9 -14 -3 -56 -12 -95 -20 -38 -8 -81
-17 -95 -20 -14 -3 -35 -7 -48 -9 -12 -3 -30 -7 -40 -10 -9 -3 -33 -7 -52 -10
-19 -3 -45 -8 -57 -11 -55 -12 -70 -16 -98 -21 -42 -7 -117 -24 -137 -30 -13
-4 -19 4 -27 33 -20 69 -20 69 99 107 93 30 236 70 290 81 8 2 42 10 75 18 33
8 87 20 120 28 33 7 62 13 65 14 3 1 25 5 50 9 25 5 54 10 65 13 51 12 112 25
135 28 14 2 78 15 142 29 64 14 127 27 140 30 13 2 34 7 48 10 14 3 36 8 50
10 14 3 115 26 225 51 110 26 218 50 240 55 22 5 78 18 125 30 47 11 96 23
110 26 14 3 61 14 105 25 44 10 89 21 100 23 11 3 85 20 165 40 80 19 156 37
170 40 25 5 107 25 215 51 33 9 69 17 80 20 11 2 63 14 115 26 223 52 252 53
300 19z m350 -892 c128 -39 224 -186 229 -351 2 -68 -16 -177 -30 -177 -4 0
-9 -10 -13 -23 -9 -36 -77 -103 -134 -132 -59 -30 -143 -45 -125 -23 26 32 45
233 29 298 -3 14 -8 36 -10 50 -10 59 -85 226 -121 270 -7 8 -20 29 -29 47
l-16 32 33 10 c64 20 120 20 187 -1z m-1202 -387 c108 -55 174 -235 146 -397
-21 -128 -89 -217 -190 -249 -31 -9 -57 -16 -58 -14 -2 2 4 36 14 74 23 86 24
190 4 270 -20 79 -23 90 -44 140 -5 11 -21 49 -35 85 -15 36 -31 73 -36 82
-17 33 -9 36 74 33 61 -2 95 -9 125 -24z m-845 -196 c80 -33 153 -123 183
-226 15 -50 20 -170 10 -219 -7 -32 -52 -119 -76 -148 -41 -49 -181 -100 -172
-62 39 168 38 304 -3 425 -15 44 -34 87 -41 96 -8 8 -14 20 -14 25 0 5 -15 35
-34 66 -30 48 -32 57 -18 61 35 7 128 -2 165 -18z m-1280 -254 c73 -45 159
-170 174 -251 2 -14 8 -39 12 -55 9 -35 2 -210 -8 -210 -2 0 -5 -11 -7 -25 -7
-38 -61 -127 -97 -161 -46 -42 -121 -79 -175 -86 -42 -5 -45 -4 -33 11 7 9 11
16 8 16 -3 0 1 16 9 35 8 19 11 35 8 35 -4 0 -2 6 4 13 32 39 34 264 3 360
-22 70 -28 81 -110 216 -48 80 -60 110 -43 112 28 1 98 12 101 15 13 12 123
-6 154 -25z"/>
<path d="M4630 6494 c-15 -46 -8 -51 66 -44 51 4 58 8 59 28 2 27 -14 37 -72
46 -41 6 -42 5 -53 -30z"/>
<path d="M2417 5983 c-2 -5 -5 -27 -6 -51 -1 -42 0 -43 27 -38 15 2 46 7 70
11 23 4 42 11 42 14 0 6 -115 71 -125 71 -2 0 -6 -3 -8 -7z"/>
<path d="M3210 5730 c0 -14 19 -51 35 -66 30 -30 108 -60 183 -70 115 -15 108
-17 114 35 3 36 -4 41 -79 56 -50 10 -69 15 -103 23 -19 5 -38 9 -43 10 -4 1
-18 4 -32 7 -14 3 -36 7 -50 10 -14 3 -25 1 -25 -5z"/>
<path d="M6044 5300 c-12 -5 -29 -19 -38 -32 -47 -67 26 -155 108 -128 42 13
56 30 60 67 8 72 -61 121 -130 93z"/>
<path d="M1995 5261 c-12 -21 78 -100 157 -139 143 -70 243 -96 370 -96 66 1
137 20 121 34 -4 4 -69 26 -143 49 -74 24 -144 46 -155 51 -26 11 -305 101
-327 105 -10 2 -20 0 -23 -4z"/>
<path d="M5219 5066 c-3 -3 -20 -8 -39 -11 -19 -3 -44 -8 -54 -12 -11 -3 -33
-7 -50 -8 -17 -2 -65 -10 -106 -19 -41 -8 -84 -17 -95 -19 -11 -3 -38 -8 -60
-12 -22 -5 -49 -9 -60 -11 -11 -1 -45 -7 -75 -13 -30 -6 -66 -14 -80 -16 -24
-4 -105 -20 -145 -29 -11 -2 -40 -7 -65 -12 -25 -4 -47 -8 -50 -9 -3 -1 -25
-5 -50 -9 -25 -5 -54 -10 -65 -12 -11 -2 -32 -6 -47 -9 -24 -5 -206 -41 -248
-50 -24 -5 -99 -17 -105 -16 -2 0 -18 -4 -34 -9 -22 -6 -92 8 -302 61 -151 38
-287 72 -303 74 -16 3 -36 10 -45 14 -9 5 -32 11 -51 15 -19 3 -71 15 -115 26
-44 12 -98 25 -120 30 -22 6 -57 14 -77 19 -51 12 -50 -4 2 -58 37 -37 136
-97 177 -105 10 -1 25 -6 33 -9 8 -3 57 -18 109 -32 52 -15 137 -43 190 -62
139 -51 260 -90 306 -99 51 -10 278 -11 328 -1 20 4 54 10 75 13 20 3 71 14
112 24 41 11 86 21 100 24 14 2 46 11 73 19 26 8 47 13 47 11 0 -3 8 0 18 5
17 9 236 70 272 76 8 1 33 6 55 10 22 4 49 9 60 11 11 2 31 6 45 8 14 3 41 8
60 10 68 11 96 17 170 38 41 12 82 27 91 35 8 7 19 13 24 13 17 0 76 52 90 81
14 26 16 36 4 25z"/>
<path d="M1780 3085 c-7 -9 -11 -17 -9 -19 2 -2 38 -22 79 -46 41 -24 82 -48
90 -55 18 -15 120 -69 135 -71 5 -1 64 -16 130 -33 66 -17 129 -33 140 -36 11
-2 81 -20 155 -40 74 -20 142 -37 150 -39 8 -1 34 -8 58 -15 68 -19 71 -8 7
28 -171 97 -275 151 -289 151 -6 0 -67 18 -136 41 -69 22 -132 42 -140 44 -8
2 -88 26 -176 54 -89 28 -166 51 -172 51 -5 0 -15 -7 -22 -15z"/>
<path d="M2787 2743 c-9 -15 5 -28 83 -75 192 -116 355 -186 625 -268 54 -16
184 -34 192 -26 4 4 -4 29 -18 54 -30 54 -74 80 -209 126 -47 16 -98 34 -115
41 -24 11 -93 35 -115 40 -3 1 -12 4 -20 8 -23 9 -124 41 -135 43 -6 1 -46 12
-90 24 -44 12 -89 23 -100 25 -11 1 -36 6 -56 10 -20 4 -39 3 -42 -2z"/>
<path d="M6080 6833 c-68 -9 -112 -27 -141 -60 -28 -32 -36 -70 -13 -67 5 1
32 5 59 8 80 10 103 15 137 34 35 20 75 68 65 78 -7 8 -68 11 -107 7z"/>
<path d="M5512 6695 c-47 -22 -52 -27 -52 -56 0 -31 0 -32 42 -25 22 4 44 9
49 11 13 9 26 59 20 77 -6 16 -10 16 -59 -7z"/>
<path d="M862 4465 c-43 -18 -52 -57 -25 -105 24 -41 70 -70 173 -106 41 -14
82 -29 90 -32 8 -3 24 -7 35 -9 11 -2 76 -21 145 -43 69 -22 127 -40 130 -39
3 0 19 -5 35 -11 17 -6 53 -18 80 -25 94 -25 310 -87 325 -92 8 -4 17 -7 20
-8 6 -1 292 -92 340 -108 19 -6 37 -12 40 -12 3 -1 17 -7 33 -13 15 -7 38 -14
50 -16 12 -2 54 -16 92 -31 39 -15 75 -28 80 -29 10 -2 121 -43 195 -71 98
-38 321 -114 380 -130 8 -3 34 -10 58 -16 49 -13 58 -8 66 36 12 65 -22 126
-107 192 -29 23 -137 62 -299 108 -90 25 -170 48 -178 52 -8 3 -19 7 -25 9 -5
1 -84 26 -175 54 -162 51 -245 76 -285 87 -11 2 -29 8 -40 13 -20 8 -160 50
-179 55 -6 1 -18 5 -26 8 -8 4 -53 18 -100 31 -156 45 -195 57 -210 63 -8 3
-19 7 -25 9 -63 16 -250 79 -325 109 -196 77 -302 97 -368 70z"/>
<path d="M2140 1460 c0 -5 21 -30 47 -54 70 -68 202 -135 373 -191 47 -15 93
-32 103 -37 11 -5 21 -7 24 -4 3 2 17 0 32 -6 14 -5 37 -12 51 -15 14 -2 43
-8 65 -13 53 -12 85 -12 85 0 0 34 -216 181 -252 172 -5 -1 -8 2 -8 8 0 5 -8
10 -18 10 -10 0 -22 4 -28 9 -10 9 -257 89 -289 94 -11 1 -26 6 -32 10 -7 5
-13 6 -13 3 0 -2 -15 0 -32 5 -52 15 -108 20 -108 9z"/>
</g>
</svg>
