<?xml version="1.0" encoding="UTF-8" standalone="no"?>
<!-- Created with Inkscape (http://www.inkscape.org/) -->

<svg
   version="1.1"
   id="svg1"
   width="93.730469"
   height="93.948441"
   viewBox="0 0 93.730468 93.94844"
   sodipodi:docname="brandbook.pdf"
   xmlns:inkscape="http://www.inkscape.org/namespaces/inkscape"
   xmlns:sodipodi="http://sodipodi.sourceforge.net/DTD/sodipodi-0.dtd"
   xmlns="http://www.w3.org/2000/svg"
   xmlns:svg="http://www.w3.org/2000/svg">
  <defs
     id="defs1" />
  <sodipodi:namedview
     id="namedview1"
     pagecolor="#ffffff"
     bordercolor="#000000"
     borderopacity="0.25"
     inkscape:showpageshadow="2"
     inkscape:pageopacity="0.0"
     inkscape:pagecheckerboard="0"
     inkscape:deskcolor="#d1d1d1">
    <inkscape:page
       x="0"
       y="0"
       width="93.730469"
       height="93.948441"
       id="page2"
       margin="0"
       bleed="0" />
  </sodipodi:namedview>
  <g
     id="g283"
     inkscape:groupmode="layer"
     inkscape:label="7"
     transform="translate(-5090.8221,-243.48576)">
    <path
       id="path287"
       d="m 9.2002,-7.6629031 c -0.032227,0.017578 -0.046875,0.032227 -0.046875,0.046875 0,0.00879 0.014648,0.020508 0.046875,0.035156 0.7558594,0.3222657 1.338867,0.7910157 1.746094,1.40625 0.413086,0.6181641 0.621094,1.3535157 0.621094,2.203125 0,1.2363282 -0.392579,2.2089844 -1.171875,2.9179688 C 9.622075,-0.35040312 8.5966844,0.00115938 7.3252,0.00115938 H 2.35645 c -0.140625,0 -0.2109375,-0.0703125 -0.2109375,-0.2109375 V -14.483216 c 0,-0.140625 0.070312,-0.210937 0.2109375,-0.210937 h 4.828125 c 1.3037109,0 2.3320313,0.336914 3.082031,1.007812 0.75586,0.673829 1.136719,1.602539 1.136719,2.789063 0,0.782226 -0.193359,1.4472655 -0.574219,1.9921874 -0.375,0.5478515 -0.9199216,0.9609375 -1.628906,1.2421875 z M 3.340825,-13.709778 c -0.055664,0 -0.082031,0.0293 -0.082031,0.08203 v 5.4960939 c 0,0.064453 0.026367,0.09375 0.082031,0.09375 h 3.84375 c 0.9521484,0 1.7109375,-0.2519531 2.2734375,-0.7617188 0.5683595,-0.515625 0.8554685,-1.1953125 0.8554685,-2.0390621 0,-0.867188 -0.287109,-1.561524 -0.8554685,-2.085938 -0.5625,-0.521484 -1.3212891,-0.785156 -2.2734375,-0.785156 z M 7.3252,-1.0066531 c 0.9521484,0 1.7109375,-0.2753906 2.2734375,-0.8320313 0.5683595,-0.5537109 0.8554685,-1.2832031 0.8554685,-2.1914062 0,-0.9375 -0.292968,-1.6816406 -0.878906,-2.2382813 C 8.9892625,-6.8220828 8.2041063,-7.1004031 7.2197313,-7.1004031 H 3.340825 c -0.055664,0 -0.082031,0.029297 -0.082031,0.082031 v 5.9296875 c 0,0.055664 0.026367,0.082031 0.082031,0.082031 z m 11.068359,-9.7499999 c 1.233399,0 2.170899,0.322266 2.8125,0.9609374 0.647461,0.6416015 0.972657,1.5 0.972657,2.578125 v 7.00781248 c 0,0.140625 -0.07031,0.2109375 -0.210938,0.2109375 h -0.691406 c -0.140625,0 -0.210938,-0.0703125 -0.210938,-0.2109375 V -1.1941531 c 0,-0.029297 -0.01172,-0.049805 -0.03516,-0.058594 -0.02344,-0.014648 -0.04687,-0.011719 -0.07031,0.011719 -0.369141,0.4628906 -0.84375,0.8144531 -1.429688,1.05468748 -0.580078,0.234375 -1.224609,0.3515625 -1.933594,0.3515625 -0.969726,0 -1.790039,-0.24023438 -2.460937,-0.7265625 -0.673828,-0.49218748 -1.007813,-1.24218748 -1.007813,-2.24999998 0,-1.0371094 0.386719,-1.8574219 1.160157,-2.4609375 0.773437,-0.600586 1.831054,-0.9023438 3.175781,-0.9023438 h 2.519531 c 0.05274,0 0.08203,-0.026367 0.08203,-0.082031 v -0.9492188 c 0,-0.7792968 -0.222656,-1.4003906 -0.667968,-1.8632812 -0.439453,-0.459961 -1.113282,-0.6914063 -2.027344,-0.6914063 -0.711914,0 -1.297852,0.1494141 -1.757813,0.4453125 -0.46289,0.2900391 -0.75,0.6796875 -0.867187,1.171875 -0.04102,0.140625 -0.123047,0.2050782 -0.246094,0.1875 l -0.738281,-0.1054687 c -0.158203,-0.029297 -0.219727,-0.084961 -0.1875,-0.1640625 0.123047,-0.7558594 0.533203,-1.3652344 1.230469,-1.8281251 0.694336,-0.46875 1.558593,-0.703125 2.589843,-0.703125 z m -0.609375,9.96093738 c 0.881836,0 1.646485,-0.21386718 2.296875,-0.64453128 0.65625,-0.4365234 0.984375,-1.0429687 0.984375,-1.8164062 v -1.9101563 c 0,-0.052734 -0.0293,-0.082031 -0.08203,-0.082031 h -2.414062 c -1.001953,0 -1.804688,0.2109375 -2.414063,0.6328125 -0.609375,0.421875 -0.914062,1.0019531 -0.914062,1.734375 0,0.6884765 0.237304,1.2070312 0.714843,1.5585937 0.47461,0.35156253 1.083985,0.52734378 1.828125,0.52734378 z M 29.500005,-10.662903 c 0.474609,0 0.881836,0.08203 1.21875,0.246094 0.117187,0.04687 0.158203,0.137695 0.128906,0.269531 l -0.1875,0.6796874 c -0.04102,0.140625 -0.128906,0.1845703 -0.269531,0.1289062 -0.28125,-0.1171875 -0.632813,-0.1669922 -1.054688,-0.1523437 -0.782226,0.017578 -1.429687,0.3164062 -1.945312,0.9023437 -0.509766,0.5800782 -0.761719,1.2861328 -0.761719,2.1210938 v 6.25781248 c 0,0.140625 -0.07031,0.2109375 -0.210938,0.2109375 h -0.691406 c -0.140625,0 -0.210937,-0.0703125 -0.210937,-0.2109375 V -10.369934 c 0,-0.140625 0.07031,-0.210938 0.210937,-0.210938 h 0.691406 c 0.140625,0 0.210938,0.07031 0.210938,0.210938 v 1.4296871 c 0,0.041016 0.0059,0.064453 0.02344,0.070312 0.02344,0.00879 0.04102,-0.011719 0.05859,-0.058594 0.295899,-0.5390625 0.679688,-0.9609375 1.148438,-1.2656251 0.46875,-0.310547 1.013672,-0.46875 1.640625,-0.46875 z m 7.441406,9.84374988 c 0.65625,0 1.21875,-0.14648438 1.6875,-0.44531248 0.46875,-0.3046875 0.834961,-0.7207031 1.101562,-1.2539063 0.07031,-0.1230468 0.158204,-0.1582031 0.269532,-0.1054687 l 0.550781,0.2695312 c 0.123047,0.070312 0.158203,0.1640625 0.105469,0.28125 -0.304688,0.6796875 -0.793946,1.2246094 -1.464844,1.62890628 -0.665039,0.40722656 -1.441406,0.609375 -2.332031,0.609375 -0.984375,0 -1.822266,-0.23730469 -2.507813,-0.71484375 -0.679687,-0.47460933 -1.148437,-1.12500003 -1.40625,-1.94531253 -0.111328,-0.3515625 -0.1875,-0.7412109 -0.234375,-1.171875 -0.04102,-0.4365234 -0.05859,-0.984375 -0.05859,-1.640625 0,-0.6855468 0.01172,-1.2070312 0.03516,-1.5585937 0.02344,-0.3515625 0.07031,-0.6708985 0.140625,-0.9609375 0.216797,-0.881836 0.673828,-1.5878906 1.371093,-2.1210938 0.694336,-0.5390626 1.546875,-0.8085936 2.554688,-0.8085936 1.148437,0 2.0625,0.301758 2.742187,0.9023436 0.685547,0.5947266 1.116211,1.4150391 1.289063,2.4609375 0.03809,0.2666016 0.06445,0.5800782 0.08203,0.9375 0.01465,0.3603516 0.02344,0.8056641 0.02344,1.3359375 0,0.140625 -0.07031,0.2109375 -0.210938,0.2109375 h -6.84375 c -0.06445,0 -0.09375,0.029297 -0.09375,0.082031 0,0.899414 0.03516,1.4941406 0.105469,1.78125 0.155273,0.6884765 0.503906,1.2304687 1.042969,1.6289062 0.539062,0.3984375 1.221679,0.59765628 2.050781,0.59765628 z M 33.894536,-7.5808719 c -0.07031,0.2666016 -0.123047,0.8144532 -0.152344,1.640625 0,0.055664 0.0293,0.082031 0.09375,0.082031 h 5.859375 c 0.05273,0 0.08203,-0.026367 0.08203,-0.082031 0,-0.703125 -0.03516,-1.2304687 -0.105468,-1.5820312 -0.158203,-0.6708985 -0.498047,-1.209961 -1.019532,-1.6171875 -0.515625,-0.413086 -1.148437,-0.6210938 -1.898437,-0.6210938 -0.758789,0 -1.391602,0.1992188 -1.898438,0.5976563 -0.500976,0.3984375 -0.820312,0.9257812 -0.960936,1.5820312 z m 12.688477,7.58203128 c -0.125977,0 -0.210938,-0.05273438 -0.257813,-0.1640625 l -3.480469,-10.18359388 -0.02344,-0.09375 c 0,-0.09375 0.06152,-0.140625 0.1875,-0.140625 h 0.796875 c 0.123047,0 0.210937,0.05566 0.257812,0.164063 l 2.847657,8.6953121 c 0.01465,0.032227 0.03516,0.046875 0.05859,0.046875 0.0293,0 0.05273,-0.014648 0.07031,-0.046875 l 2.859375,-8.6953121 c 0.03809,-0.108399 0.120117,-0.164063 0.246094,-0.164063 l 0.785156,0.02344 c 0.146484,0 0.202148,0.07617 0.164062,0.222656 l -3.46875,10.17187488 c -0.04102,0.11132812 -0.123047,0.1640625 -0.246093,0.1640625 z M 57.835942,-10.733216 c 1.078125,0 1.948242,0.333985 2.613281,0.9960941 0.66211,0.65625 0.996094,1.5234375 0.996094,2.6015625 v 6.92578128 c 0,0.140625 -0.07031,0.2109375 -0.210937,0.2109375 h -0.691407 c -0.140625,0 -0.210937,-0.0703125 -0.210937,-0.2109375 V -6.9246219 c 0,-0.8261718 -0.254883,-1.5029297 -0.761719,-2.0273437 -0.500976,-0.5214844 -1.157226,-0.7851563 -1.96875,-0.7851563 -0.84375,0 -1.523437,0.2548828 -2.039062,0.7617188 -0.515625,0.5097656 -0.773438,1.1777344 -0.773438,2.0039062 v 6.76171878 c 0,0.140625 -0.07031,0.2109375 -0.210937,0.2109375 h -0.691407 c -0.140625,0 -0.210937,-0.0703125 -0.210937,-0.2109375 V -10.369934 c 0,-0.140625 0.07031,-0.210938 0.210937,-0.210938 h 0.691407 c 0.140625,0 0.210937,0.07031 0.210937,0.210938 v 1.0312496 c 0,0.041016 0.0059,0.064453 0.02344,0.070312 0.02344,0.00879 0.04102,-0.00293 0.05859,-0.035156 0.304688,-0.459961 0.706055,-0.8115236 1.207032,-1.0546876 0.506836,-0.249023 1.092773,-0.375 1.757813,-0.375 z m 10.898438,9.91406288 c 0.65625,0 1.21875,-0.14648438 1.6875,-0.44531248 0.46875,-0.3046875 0.834961,-0.7207031 1.101562,-1.2539063 0.07031,-0.1230468 0.158203,-0.1582031 0.269531,-0.1054687 l 0.550782,0.2695312 c 0.123047,0.070312 0.158203,0.1640625 0.105468,0.28125 -0.304687,0.6796875 -0.793945,1.2246094 -1.464843,1.62890628 -0.665039,0.40722656 -1.441407,0.609375 -2.332032,0.609375 -0.984375,0 -1.822265,-0.23730469 -2.507812,-0.71484375 -0.679688,-0.47460933 -1.148438,-1.12500003 -1.40625,-1.94531253 -0.111328,-0.3515625 -0.1875,-0.7412109 -0.234375,-1.171875 -0.04102,-0.4365234 -0.05859,-0.984375 -0.05859,-1.640625 0,-0.6855468 0.01172,-1.2070312 0.03516,-1.5585937 0.02344,-0.3515625 0.07031,-0.6708985 0.140625,-0.9609375 0.216797,-0.881836 0.673829,-1.5878906 1.371094,-2.1210938 0.694336,-0.5390626 1.546875,-0.8085936 2.554688,-0.8085936 1.148437,0 2.0625,0.301758 2.742187,0.9023436 0.685547,0.5947266 1.116211,1.4150391 1.289063,2.4609375 0.03809,0.2666016 0.06445,0.5800782 0.08203,0.9375 0.01465,0.3603516 0.02344,0.8056641 0.02344,1.3359375 0,0.140625 -0.07031,0.2109375 -0.210937,0.2109375 h -6.84375 c -0.06445,0 -0.09375,0.029297 -0.09375,0.082031 0,0.899414 0.03516,1.4941406 0.105469,1.78125 0.155273,0.6884765 0.503906,1.2304687 1.042968,1.6289062 0.539063,0.3984375 1.22168,0.59765628 2.050782,0.59765628 z M 65.687505,-7.5808719 c -0.07031,0.2666016 -0.123047,0.8144532 -0.152344,1.640625 0,0.055664 0.0293,0.082031 0.09375,0.082031 h 5.859375 c 0.05273,0 0.08203,-0.026367 0.08203,-0.082031 0,-0.703125 -0.03516,-1.2304687 -0.105469,-1.5820312 -0.158203,-0.6708985 -0.498046,-1.209961 -1.019531,-1.6171875 -0.515625,-0.413086 -1.148437,-0.6210938 -1.898437,-0.6210938 -0.758789,0 -1.391602,0.1992188 -1.898438,0.5976563 -0.500976,0.3984375 -0.820312,0.9257812 -0.960936,1.5820312 z m 2.273437,-4.4062501 c -0.08789,0 -0.146484,-0.02344 -0.175781,-0.07031 -0.02344,-0.05274 -0.01758,-0.117188 0.02344,-0.1875 l 1.289063,-2.308594 c 0.03809,-0.09375 0.120117,-0.140625 0.246094,-0.140625 h 0.609375 c 0.08496,0 0.140625,0.02344 0.164062,0.07031 0.0293,0.04687 0.02637,0.105469 -0.01172,0.175782 l -1.40625,2.308593 c -0.07031,0.102539 -0.158203,0.152344 -0.257812,0.152344 z M 82.764653,0.00115938 c -0.125976,0 -0.210937,-0.05273438 -0.257812,-0.1640625 l -3.480469,-10.18359388 -0.02344,-0.09375 c 0,-0.09375 0.06152,-0.140625 0.1875,-0.140625 h 0.796875 c 0.123047,0 0.210938,0.05566 0.257813,0.164063 l 2.847656,8.6953121 c 0.01465,0.032227 0.03516,0.046875 0.05859,0.046875 0.0293,0 0.05273,-0.014648 0.07031,-0.046875 l 2.859375,-8.6953121 c 0.03809,-0.108399 0.120118,-0.164063 0.246094,-0.164063 l 0.785156,0.02344 c 0.146485,0 0.202149,0.07617 0.164063,0.222656 l -3.46875,10.17187488 c -0.04102,0.11132812 -0.123047,0.1640625 -0.246094,0.1640625 z M 93.217778,-10.756653 c 1.233399,0 2.170899,0.322266 2.8125,0.9609374 0.647461,0.6416015 0.972656,1.5 0.972656,2.578125 v 7.00781248 c 0,0.140625 -0.07031,0.2109375 -0.210937,0.2109375 h -0.691406 c -0.140625,0 -0.210938,-0.0703125 -0.210938,-0.2109375 V -1.1941531 c 0,-0.029297 -0.01172,-0.049805 -0.03516,-0.058594 -0.02344,-0.014648 -0.04687,-0.011719 -0.07031,0.011719 -0.36914,0.4628906 -0.84375,0.8144531 -1.429687,1.05468748 -0.580078,0.234375 -1.224609,0.3515625 -1.933594,0.3515625 -0.969726,0 -1.790039,-0.24023438 -2.460937,-0.7265625 -0.673828,-0.49218748 -1.007813,-1.24218748 -1.007813,-2.24999998 0,-1.0371094 0.386719,-1.8574219 1.160156,-2.4609375 0.773438,-0.600586 1.831055,-0.9023438 3.175782,-0.9023438 h 2.519531 c 0.05273,0 0.08203,-0.026367 0.08203,-0.082031 v -0.9492188 c 0,-0.7792968 -0.222656,-1.4003906 -0.667969,-1.8632812 -0.439453,-0.459961 -1.113281,-0.6914063 -2.027343,-0.6914063 -0.711914,0 -1.297852,0.1494141 -1.757813,0.4453125 -0.46289,0.2900391 -0.75,0.6796875 -0.867187,1.171875 -0.04102,0.140625 -0.123047,0.2050782 -0.246094,0.1875 l -0.738281,-0.1054687 c -0.158203,-0.029297 -0.219727,-0.084961 -0.1875,-0.1640625 0.123047,-0.7558594 0.533203,-1.3652344 1.230468,-1.8281251 0.694336,-0.46875 1.558594,-0.703125 2.589844,-0.703125 z m -0.609375,9.96093738 c 0.881836,0 1.646485,-0.21386718 2.296875,-0.64453128 0.65625,-0.4365234 0.984375,-1.0429687 0.984375,-1.8164062 v -1.9101563 c 0,-0.052734 -0.0293,-0.082031 -0.08203,-0.082031 H 93.39356 c -1.001953,0 -1.804687,0.2109375 -2.414062,0.6328125 -0.609375,0.421875 -0.914063,1.0019531 -0.914063,1.734375 0,0.6884765 0.237305,1.2070312 0.714844,1.5585937 0.47461,0.35156253 1.083985,0.52734378 1.828125,0.52734378 z M 104.32422,-10.662903 c 0.47461,0 0.88184,0.08203 1.21875,0.246094 0.11719,0.04687 0.15821,0.137695 0.12891,0.269531 l -0.1875,0.6796874 c -0.041,0.140625 -0.12891,0.1845703 -0.26953,0.1289062 -0.28125,-0.1171875 -0.63281,-0.1669922 -1.05469,-0.1523437 -0.78223,0.017578 -1.42969,0.3164062 -1.94531,0.9023437 -0.50977,0.5800782 -0.76172,1.2861328 -0.76172,2.1210938 v 6.25781248 c 0,0.140625 -0.0703,0.2109375 -0.21094,0.2109375 h -0.6914 c -0.14063,0 -0.21094,-0.0703125 -0.21094,-0.2109375 V -10.369934 c 0,-0.140625 0.0703,-0.210938 0.21094,-0.210938 h 0.6914 c 0.14063,0 0.21094,0.07031 0.21094,0.210938 v 1.4296871 c 0,0.041016 0.006,0.064453 0.0234,0.070312 0.0234,0.00879 0.041,-0.011719 0.0586,-0.058594 0.2959,-0.5390625 0.67969,-0.9609375 1.14844,-1.2656251 0.46875,-0.310547 1.01367,-0.46875 1.64062,-0.46875 z m 4.40918,-2.039063 c -0.30468,0 -0.55664,-0.09668 -0.75,-0.292968 -0.19629,-0.19336 -0.29297,-0.448243 -0.29297,-0.761719 0,-0.304688 0.0967,-0.553711 0.29297,-0.75 0.19336,-0.193359 0.44532,-0.292969 0.75,-0.292969 0.31055,0 0.56543,0.09961 0.76172,0.292969 0.19336,0.196289 0.29297,0.445312 0.29297,0.75 0,0.313476 -0.0996,0.568359 -0.29297,0.761719 -0.19629,0.196289 -0.45117,0.292968 -0.76172,0.292968 z m -0.39843,12.67968788 c -0.14063,0 -0.21094,-0.0703125 -0.21094,-0.2109375 V -10.393372 c 0,-0.140625 0.0703,-0.210937 0.21094,-0.210937 h 0.6914 c 0.14063,0 0.21094,0.07031 0.21094,0.210937 v 10.16015638 c 0,0.140625 -0.0703,0.2109375 -0.21094,0.2109375 z m 8.42285,-10.73437488 c 1.2334,0 2.1709,0.322266 2.8125,0.9609374 0.64746,0.6416015 0.97265,1.5 0.97265,2.578125 v 7.00781248 c 0,0.140625 -0.0703,0.2109375 -0.21093,0.2109375 h -0.69141 c -0.14063,0 -0.21094,-0.0703125 -0.21094,-0.2109375 V -1.1941531 c 0,-0.029297 -0.0117,-0.049805 -0.0351,-0.058594 -0.0234,-0.014648 -0.0469,-0.011719 -0.0703,0.011719 -0.36914,0.4628906 -0.84375,0.8144531 -1.42968,1.05468748 -0.58008,0.234375 -1.22461,0.3515625 -1.9336,0.3515625 -0.96972,0 -1.79004,-0.24023438 -2.46094,-0.7265625 -0.67382,-0.49218748 -1.00781,-1.24218748 -1.00781,-2.24999998 0,-1.0371094 0.38672,-1.8574219 1.16016,-2.4609375 0.77344,-0.600586 1.83105,-0.9023438 3.17578,-0.9023438 h 2.51953 c 0.0527,0 0.082,-0.026367 0.082,-0.082031 v -0.9492188 c 0,-0.7792968 -0.22265,-1.4003906 -0.66797,-1.8632812 -0.43945,-0.459961 -1.11328,-0.6914063 -2.02734,-0.6914063 -0.71191,0 -1.29785,0.1494141 -1.75781,0.4453125 -0.46289,0.2900391 -0.75,0.6796875 -0.86719,1.171875 -0.041,0.140625 -0.12305,0.2050782 -0.24609,0.1875 L 113.125,-8.0613406 c -0.1582,-0.029297 -0.21972,-0.084961 -0.1875,-0.1640625 0.12305,-0.7558594 0.53321,-1.3652344 1.23047,-1.8281249 0.69434,-0.46875 1.5586,-0.703125 2.58985,-0.703125 z m -0.60938,9.96093738 c 0.88184,0 1.64649,-0.21386718 2.29688,-0.64453128 0.65625,-0.4365234 0.98437,-1.0429687 0.98437,-1.8164062 v -1.9101563 c 0,-0.052734 -0.0293,-0.082031 -0.082,-0.082031 h -2.41406 c -1.00195,0 -1.80469,0.2109375 -2.41406,0.6328125 -0.60938,0.421875 -0.91407,1.0019531 -0.91407,1.734375 0,0.6884765 0.23731,1.2070312 0.71485,1.5585937 0.47461,0.35156253 1.08398,0.52734378 1.82812,0.52734378 z m 11.8916,-9.93750038 c 1.07813,0 1.94825,0.333985 2.61329,0.9960941 0.6621,0.65625 0.99609,1.5234375 0.99609,2.6015625 v 6.92578128 c 0,0.140625 -0.0703,0.2109375 -0.21094,0.2109375 h -0.6914 c -0.14063,0 -0.21094,-0.0703125 -0.21094,-0.2109375 V -6.9246219 c 0,-0.8261718 -0.25489,-1.5029297 -0.76172,-2.0273437 -0.50098,-0.5214844 -1.15723,-0.7851563 -1.96875,-0.7851563 -0.84375,0 -1.52344,0.2548828 -2.03906,0.7617188 -0.51563,0.5097656 -0.77344,1.1777344 -0.77344,2.0039062 v 6.76171878 c 0,0.140625 -0.0703,0.2109375 -0.21094,0.2109375 h -0.6914 c -0.14063,0 -0.21094,-0.0703125 -0.21094,-0.2109375 V -10.369934 c 0,-0.140625 0.0703,-0.210938 0.21094,-0.210938 h 0.6914 c 0.14063,0 0.21094,0.07031 0.21094,0.210938 v 1.0312496 c 0,0.041016 0.006,0.064453 0.0234,0.070312 0.0234,0.00879 0.041,-0.00293 0.0586,-0.035156 0.30469,-0.459961 0.70605,-0.8115236 1.20703,-1.0546876 0.50684,-0.249023 1.09277,-0.375 1.75781,-0.375 z m 11.52246,0.8906254 c 0,0.1347656 -0.0703,0.1992187 -0.21093,0.1992187 h -2.44922 c -0.0645,0 -0.0937,0.032227 -0.0937,0.09375 v 6.6328125 c 0,0.7119141 0.1582,1.2128907 0.48047,1.5 0.32812,0.2900391 0.84668,0.43359378 1.55859,0.43359378 h 0.49219 c 0.13183,0 0.19922,0.0703125 0.19922,0.2109375 v 0.5625 c 0,0.140625 -0.0674,0.2109375 -0.19922,0.2109375 l -0.63281,0.0234375 c -0.98438,0 -1.72852,-0.1875 -2.22657,-0.5625 -0.49218,-0.38085938 -0.74707,-1.07812498 -0.76172,-2.08593748 v -6.9257813 c 0,-0.061523 -0.0293,-0.09375 -0.082,-0.09375 h -1.2539 c -0.14063,0 -0.21094,-0.064453 -0.21094,-0.1992187 v -0.5273434 c 0,-0.140625 0.0703,-0.210938 0.21094,-0.210938 h 1.2539 c 0.0527,0 0.082,-0.02637 0.082,-0.08203 v -2.402344 c 0,-0.140625 0.0703,-0.210937 0.21094,-0.210937 h 0.67969 c 0.13184,0 0.19922,0.07031 0.19922,0.210937 v 2.402344 c 0,0.05566 0.0293,0.08203 0.0937,0.08203 h 2.44922 c 0.14062,0 0.21093,0.07031 0.21093,0.210938 z m 2.54883,14.0390625 c -0.10254,0 -0.15234,-0.070312 -0.15234,-0.2109375 V 3.4464719 c 0,-0.140625 0.0703,-0.2109375 0.21094,-0.2109375 h 0.082 c 0.53027,-0.017578 0.94336,-0.1054688 1.24219,-0.2695313 0.30468,-0.1582031 0.56543,-0.4541015 0.78515,-0.890625 0.2168,-0.430664 0.47461,-1.10156247 0.77344,-2.01562497 0.0234,-0.05566407 0.0234,-0.09375 0,-0.1171875 l -3.59766,-10.28906263 -0.0234,-0.09375 c 0,-0.09375 0.0645,-0.140625 0.19921,-0.140625 h 0.70313 c 0.13184,0 0.2168,0.05566 0.25781,0.164063 l 2.97656,8.9062496 c 0.0146,0.032227 0.0352,0.046875 0.0586,0.046875 0.0293,0 0.0527,-0.014648 0.0703,-0.046875 l 2.89453,-8.9062496 c 0.0469,-0.108399 0.13184,-0.164063 0.25781,-0.164063 h 0.71485 c 0.15527,0 0.21094,0.0791 0.16406,0.234375 l -3.96094,11.4140626 c -0.32812,0.9140625 -0.63281,1.584961 -0.91406,2.015625 -0.27539,0.4365235 -0.60644,0.7294922 -0.99609,0.8789063 -0.38379,0.1552734 -0.91993,0.234375 -1.60547,0.234375 z M -331.90039,44.24823 c 1.18653,0 2.14454,0.36914 2.8711,1.101562 0.72656,0.735352 1.08984,1.705078 1.08984,2.90625 0,1.195313 -0.36914,2.15625 -1.10156,2.882813 -0.73535,0.726562 -1.70508,1.089843 -2.90625,1.089843 h -4.37109 c -0.0557,0 -0.082,0.0293 -0.082,0.08203 v 6.46875 c 0,0.140625 -0.0703,0.210937 -0.21093,0.210937 h -0.69141 c -0.14062,0 -0.21094,-0.07031 -0.21094,-0.210937 V 44.459167 c 0,-0.140625 0.0703,-0.210937 0.21094,-0.210937 z m -0.082,7.03125 c 0.87305,0 1.58203,-0.272461 2.1211,-0.820313 0.53906,-0.553711 0.80859,-1.280273 0.80859,-2.179687 0,-0.905274 -0.26953,-1.634766 -0.80859,-2.191407 -0.53907,-0.55371 -1.24805,-0.832031 -2.1211,-0.832031 h -4.33593 c -0.0557,0 -0.082,0.0293 -0.082,0.08203 v 5.859375 c 0,0.05566 0.0264,0.08203 0.082,0.08203 z m 10.67871,-2.953125 c 0.47461,0 0.88184,0.08203 1.21875,0.246093 0.11719,0.04687 0.15821,0.137696 0.12891,0.269532 l -0.1875,0.679687 c -0.041,0.140625 -0.12891,0.184571 -0.26953,0.128906 -0.28125,-0.117187 -0.63281,-0.166992 -1.05469,-0.152343 -0.78223,0.01758 -1.42969,0.316406 -1.94531,0.902343 -0.50977,0.580079 -0.76172,1.286133 -0.76172,2.121094 v 6.257813 c 0,0.140625 -0.0703,0.210937 -0.21094,0.210937 h -0.6914 c -0.14063,0 -0.21094,-0.07031 -0.21094,-0.210937 V 48.619323 c 0,-0.140625 0.0703,-0.210937 0.21094,-0.210937 h 0.6914 c 0.14063,0 0.21094,0.07031 0.21094,0.210937 v 1.429688 c 0,0.04102 0.006,0.06445 0.0234,0.07031 0.0234,0.0088 0.041,-0.01172 0.0586,-0.05859 0.2959,-0.539063 0.67969,-0.960938 1.14844,-1.265625 0.46875,-0.310547 1.01367,-0.46875 1.64062,-0.46875 z m 4.40918,-2.039063 c -0.30468,0 -0.55664,-0.09668 -0.75,-0.292969 -0.19629,-0.193359 -0.29297,-0.448242 -0.29297,-0.761718 0,-0.304688 0.0967,-0.553711 0.29297,-0.75 0.19336,-0.19336 0.44532,-0.292969 0.75,-0.292969 0.31055,0 0.56543,0.09961 0.76172,0.292969 0.19336,0.196289 0.29297,0.445312 0.29297,0.75 0,0.313476 -0.0996,0.568359 -0.29297,0.761718 -0.19629,0.19629 -0.45117,0.292969 -0.76172,0.292969 z m -0.39843,12.679688 c -0.14063,0 -0.21094,-0.07031 -0.21094,-0.210938 V 48.595886 c 0,-0.140625 0.0703,-0.210938 0.21094,-0.210938 h 0.6914 c 0.14063,0 0.21094,0.07031 0.21094,0.210938 v 10.160156 c 0,0.140625 -0.0703,0.210938 -0.21094,0.210938 z m 15.41894,-10.710938 c 1.02246,0 1.83985,0.310547 2.44922,0.925781 0.61523,0.618165 0.92578,1.464844 0.92578,2.542969 v 7.054688 c 0,0.140625 -0.0674,0.210937 -0.19922,0.210937 h -0.67968 c -0.14063,0 -0.21094,-0.07031 -0.21094,-0.210937 v -6.84375 c 0,-0.826172 -0.24317,-1.479492 -0.72656,-1.957032 -0.47754,-0.483398 -1.10157,-0.726562 -1.875,-0.726562 -0.81446,0 -1.47071,0.240234 -1.96875,0.714844 -0.49219,0.46875 -0.73829,1.110351 -0.73829,1.921875 v 6.890625 c 0,0.140625 -0.0703,0.210937 -0.21093,0.210937 h -0.66797 c -0.14063,0 -0.21094,-0.07031 -0.21094,-0.210937 v -6.84375 c 0,-0.826172 -0.24023,-1.479492 -0.71484,-1.957032 -0.47754,-0.483398 -1.10157,-0.726562 -1.875,-0.726562 -0.82032,0 -1.47364,0.240234 -1.95703,0.714844 -0.48633,0.46875 -0.72657,1.110351 -0.72657,1.921875 v 6.890625 c 0,0.140625 -0.0703,0.210937 -0.21093,0.210937 h -0.69141 c -0.14063,0 -0.21094,-0.07031 -0.21094,-0.210937 V 48.619323 c 0,-0.140625 0.0703,-0.210937 0.21094,-0.210937 h 0.69141 c 0.14062,0 0.21093,0.07031 0.21093,0.210937 v 0.9375 c 0,0.03223 0.0117,0.05566 0.0352,0.07031 0.0293,0.01758 0.0527,0.0088 0.0703,-0.02344 0.28711,-0.445312 0.68262,-0.779296 1.1836,-1.007812 0.49804,-0.225586 1.06054,-0.339844 1.6875,-0.339844 0.73242,0 1.3623,0.161133 1.88671,0.480469 0.52149,0.313477 0.917,0.755859 1.1836,1.324219 0.0293,0.06445 0.0645,0.07031 0.10547,0.02344 0.29589,-0.600586 0.7207,-1.054687 1.27734,-1.359375 0.5625,-0.310547 1.21289,-0.46875 1.95703,-0.46875 z m 10.3711,-0.02344 c 1.23339,0 2.17089,0.322265 2.8125,0.960937 0.64746,0.641602 0.97265,1.5 0.97265,2.578125 v 7.007813 c 0,0.140625 -0.0703,0.210937 -0.21094,0.210937 h -0.6914 c -0.14063,0 -0.21094,-0.07031 -0.21094,-0.210937 v -0.984375 c 0,-0.0293 -0.0117,-0.0498 -0.0352,-0.05859 -0.0234,-0.01465 -0.0469,-0.01172 -0.0703,0.01172 -0.36914,0.46289 -0.84375,0.814453 -1.42969,1.054687 -0.58007,0.234375 -1.22461,0.351563 -1.93359,0.351563 -0.96973,0 -1.79004,-0.240235 -2.46094,-0.726563 -0.67383,-0.492187 -1.00781,-1.242187 -1.00781,-2.25 0,-1.037109 0.38672,-1.857422 1.16016,-2.460937 0.77343,-0.600586 1.83105,-0.902344 3.17578,-0.902344 h 2.51953 c 0.0527,0 0.082,-0.02637 0.082,-0.08203 v -0.949219 c 0,-0.779297 -0.22266,-1.400391 -0.66797,-1.863281 -0.43945,-0.459961 -1.11328,-0.691407 -2.02734,-0.691407 -0.71192,0 -1.29785,0.149415 -1.75781,0.445313 -0.4629,0.290039 -0.75,0.679687 -0.86719,1.171875 -0.041,0.140625 -0.12305,0.205078 -0.2461,0.1875 l -0.73828,-0.105469 c -0.1582,-0.0293 -0.21972,-0.08496 -0.1875,-0.164062 0.12305,-0.75586 0.53321,-1.365235 1.23047,-1.828125 0.69434,-0.46875 1.5586,-0.703125 2.58985,-0.703125 z m -0.60938,9.960937 c 0.88184,0 1.64648,-0.213867 2.29688,-0.644531 0.65625,-0.436523 0.98437,-1.042969 0.98437,-1.816406 v -1.910157 c 0,-0.05273 -0.0293,-0.08203 -0.082,-0.08203 h -2.41406 c -1.00196,0 -1.80469,0.210938 -2.41407,0.632813 -0.60937,0.421875 -0.91406,1.001953 -0.91406,1.734375 0,0.688476 0.23731,1.207031 0.71485,1.558593 0.4746,0.351563 1.08398,0.527344 1.82812,0.527344 z m 0.0469,-11.191406 c -0.0879,0 -0.14649,-0.02344 -0.17579,-0.07031 -0.0234,-0.05273 -0.0176,-0.117187 0.0234,-0.1875 l 1.28906,-2.308593 c 0.0381,-0.09375 0.12012,-0.140625 0.2461,-0.140625 h 0.60937 c 0.085,0 0.14063,0.02344 0.16407,0.07031 0.0293,0.04687 0.0264,0.105469 -0.0117,0.175781 l -1.40625,2.308594 c -0.0703,0.102539 -0.15821,0.152344 -0.25782,0.152344 z m 11.66894,1.324219 c 0.47461,0 0.88184,0.08203 1.21875,0.246093 0.11719,0.04687 0.1582,0.137696 0.12891,0.269532 l -0.1875,0.679687 c -0.041,0.140625 -0.12891,0.184571 -0.26953,0.128906 -0.28125,-0.117187 -0.63282,-0.166992 -1.05469,-0.152343 -0.78223,0.01758 -1.42969,0.316406 -1.94531,0.902343 -0.50977,0.580079 -0.76172,1.286133 -0.76172,2.121094 v 6.257813 c 0,0.140625 -0.0703,0.210937 -0.21094,0.210937 h -0.69141 c -0.14062,0 -0.21093,-0.07031 -0.21093,-0.210937 V 48.619323 c 0,-0.140625 0.0703,-0.210937 0.21093,-0.210937 h 0.69141 c 0.14062,0 0.21094,0.07031 0.21094,0.210937 v 1.429688 c 0,0.04102 0.006,0.06445 0.0234,0.07031 0.0234,0.0088 0.041,-0.01172 0.0586,-0.05859 0.2959,-0.539063 0.67969,-0.960938 1.14844,-1.265625 0.46875,-0.310547 1.01367,-0.46875 1.64062,-0.46875 z m 7.71387,-0.07031 c 1.07812,0 1.94824,0.333985 2.61328,0.996094 0.66211,0.65625 0.99609,1.523437 0.99609,2.601562 v 6.925782 c 0,0.140625 -0.0703,0.210937 -0.21093,0.210937 h -0.69141 c -0.14063,0 -0.21094,-0.07031 -0.21094,-0.210937 v -6.714844 c 0,-0.826172 -0.25488,-1.50293 -0.76172,-2.027344 -0.50097,-0.521484 -1.15722,-0.785156 -1.96875,-0.785156 -0.84375,0 -1.52343,0.254883 -2.03906,0.761719 -0.51562,0.509765 -0.77344,1.177734 -0.77344,2.003906 v 6.761719 c 0,0.140625 -0.0703,0.210937 -0.21093,0.210937 h -0.69141 c -0.14063,0 -0.21094,-0.07031 -0.21094,-0.210937 V 48.619323 c 0,-0.140625 0.0703,-0.210937 0.21094,-0.210937 h 0.69141 c 0.14062,0 0.21093,0.07031 0.21093,0.210937 v 1.03125 c 0,0.04102 0.006,0.06445 0.0234,0.07031 0.0234,0.0088 0.041,-0.0029 0.0586,-0.03516 0.30469,-0.459961 0.70606,-0.811524 1.20704,-1.054688 0.50683,-0.249023 1.09277,-0.375 1.75781,-0.375 z m 7.0957,10.734375 c -0.14062,0 -0.21094,-0.07031 -0.21094,-0.210937 V 48.619323 c 0,-0.140625 0.0703,-0.210937 0.21094,-0.210937 h 0.69141 c 0.14062,0 0.21093,0.07031 0.21093,0.210937 V 58.77948 c 0,0.140625 -0.0703,0.210937 -0.21093,0.210937 z m -0.21094,-11.988281 c -0.0879,0 -0.14648,-0.02344 -0.17578,-0.07031 -0.0234,-0.05273 -0.0176,-0.117187 0.0234,-0.1875 l 1.28906,-2.308593 c 0.0381,-0.09375 0.12012,-0.140625 0.2461,-0.140625 h 0.60937 c 0.085,0 0.14063,0.02344 0.16406,0.07031 0.0293,0.04687 0.0264,0.105469 -0.0117,0.175781 l -1.40625,2.308594 c -0.0703,0.102539 -0.1582,0.152344 -0.25781,0.152344 z m 16.56739,4.066406 c 0.085,0.328125 0.14062,0.697266 0.16406,1.101563 0.0293,0.407226 0.0469,0.922851 0.0469,1.546875 0,1.180664 -0.0762,2.0625 -0.22265,2.648437 -0.24317,0.852539 -0.69141,1.532227 -1.34766,2.039063 -0.65625,0.500976 -1.46191,0.75 -2.41406,0.75 -0.61817,0 -1.17188,-0.125977 -1.66406,-0.375 -0.49219,-0.249024 -0.88477,-0.603516 -1.17188,-1.066407 -0.0322,-0.0293 -0.0586,-0.04102 -0.082,-0.03516 -0.0176,0.0088 -0.0234,0.03223 -0.0234,0.07031 v 1.03125 c 0,0.140625 -0.0703,0.210937 -0.21094,0.210937 h -0.6914 c -0.14063,0 -0.21094,-0.07031 -0.21094,-0.210937 V 44.506042 c 0,-0.140625 0.0703,-0.210937 0.21094,-0.210937 h 0.6914 c 0.14063,0 0.21094,0.07031 0.21094,0.210937 v 5.15625 c 0,0.04687 0.0117,0.07617 0.0352,0.08203 0.0293,0.0088 0.0527,-0.01172 0.0703,-0.05859 0.28711,-0.459961 0.67969,-0.814453 1.17188,-1.066407 0.49218,-0.257812 1.04589,-0.386718 1.66406,-0.386718 0.97558,0 1.79297,0.257812 2.44922,0.773437 0.66211,0.509766 1.10449,1.195313 1.32422,2.0625 z m -1.17188,5.132813 c 0.0996,-0.28125 0.16992,-0.585938 0.21094,-0.914063 0.0381,-0.328125 0.0586,-0.858398 0.0586,-1.59375 0,-0.741211 -0.0234,-1.280273 -0.0703,-1.617187 -0.0469,-0.333985 -0.13477,-0.647461 -0.25781,-0.9375 -0.17285,-0.5625 -0.49805,-1.019532 -0.97266,-1.371094 -0.47754,-0.357422 -1.04297,-0.539063 -1.69922,-0.539063 -0.6416,0 -1.18359,0.181641 -1.6289,0.539063 -0.43946,0.351562 -0.73536,0.817383 -0.89063,1.394531 -0.10254,0.275391 -0.17285,0.583008 -0.21094,0.925781 -0.041,0.345704 -0.0586,0.887696 -0.0586,1.628907 0,0.720703 0.0147,1.248047 0.0469,1.582031 0.0381,0.336914 0.10547,0.638672 0.19922,0.902344 0.15528,0.585937 0.45118,1.063476 0.89063,1.429687 0.44531,0.360352 1.00195,0.539063 1.67578,0.539063 0.6709,0 1.24805,-0.178711 1.73437,-0.539063 0.49219,-0.366211 0.81446,-0.84375 0.97266,-1.429687 z m 8.20606,-7.96875 c 1.23339,0 2.17089,0.322265 2.8125,0.960937 0.64746,0.641602 0.97265,1.5 0.97265,2.578125 v 7.007813 c 0,0.140625 -0.0703,0.210937 -0.21094,0.210937 h -0.6914 c -0.14063,0 -0.21094,-0.07031 -0.21094,-0.210937 v -0.984375 c 0,-0.0293 -0.0117,-0.0498 -0.0352,-0.05859 -0.0234,-0.01465 -0.0469,-0.01172 -0.0703,0.01172 -0.36914,0.46289 -0.84375,0.814453 -1.42969,1.054687 -0.58007,0.234375 -1.2246,0.351563 -1.93359,0.351563 -0.96973,0 -1.79004,-0.240235 -2.46094,-0.726563 -0.67382,-0.492187 -1.00781,-1.242187 -1.00781,-2.25 0,-1.037109 0.38672,-1.857422 1.16016,-2.460937 0.77343,-0.600586 1.83105,-0.902344 3.17578,-0.902344 h 2.51953 c 0.0527,0 0.082,-0.02637 0.082,-0.08203 v -0.949219 c 0,-0.779297 -0.22266,-1.400391 -0.66797,-1.863281 -0.43945,-0.459961 -1.11328,-0.691407 -2.02734,-0.691407 -0.71192,0 -1.29785,0.149415 -1.75781,0.445313 -0.46289,0.290039 -0.75,0.679687 -0.86719,1.171875 -0.041,0.140625 -0.12305,0.205078 -0.2461,0.1875 l -0.73828,-0.105469 c -0.1582,-0.0293 -0.21972,-0.08496 -0.1875,-0.164062 0.12305,-0.75586 0.53321,-1.365235 1.23047,-1.828125 0.69434,-0.46875 1.5586,-0.703125 2.58985,-0.703125 z m -0.60938,9.960937 c 0.88184,0 1.64649,-0.213867 2.29688,-0.644531 0.65625,-0.436523 0.98437,-1.042969 0.98437,-1.816406 v -1.910157 c 0,-0.05273 -0.0293,-0.08203 -0.082,-0.08203 h -2.41406 c -1.00196,0 -1.80469,0.210938 -2.41407,0.632813 -0.60937,0.421875 -0.91406,1.001953 -0.91406,1.734375 0,0.688476 0.23731,1.207031 0.71485,1.558593 0.47461,0.351563 1.08398,0.527344 1.82812,0.527344 z m 11.71582,-9.867187 c 0.47461,0 0.88184,0.08203 1.21875,0.246093 0.11719,0.04687 0.1582,0.137696 0.12891,0.269532 l -0.1875,0.679687 c -0.041,0.140625 -0.12891,0.184571 -0.26953,0.128906 -0.28125,-0.117187 -0.63282,-0.166992 -1.05469,-0.152343 -0.78223,0.01758 -1.42969,0.316406 -1.94531,0.902343 -0.50977,0.580079 -0.76172,1.286133 -0.76172,2.121094 v 6.257813 c 0,0.140625 -0.0703,0.210937 -0.21094,0.210937 h -0.69141 c -0.14062,0 -0.21093,-0.07031 -0.21093,-0.210937 V 48.619323 c 0,-0.140625 0.0703,-0.210937 0.21093,-0.210937 h 0.69141 c 0.14062,0 0.21094,0.07031 0.21094,0.210937 v 1.429688 c 0,0.04102 0.006,0.06445 0.0234,0.07031 0.0234,0.0088 0.041,-0.01172 0.0586,-0.05859 0.2959,-0.539063 0.67969,-0.960938 1.14844,-1.265625 0.46875,-0.310547 1.01367,-0.46875 1.64062,-0.46875 z m 7.44141,9.84375 c 0.65625,0 1.21875,-0.146485 1.6875,-0.445313 0.46875,-0.304687 0.83496,-0.720703 1.10156,-1.253906 0.0703,-0.123047 0.1582,-0.158203 0.26953,-0.105469 l 0.55078,0.269531 c 0.12305,0.07031 0.15821,0.164063 0.10547,0.28125 -0.30469,0.679688 -0.79394,1.22461 -1.46484,1.628907 -0.66504,0.407226 -1.44141,0.609375 -2.33203,0.609375 -0.98438,0 -1.82227,-0.237305 -2.50782,-0.714844 -0.67968,-0.474609 -1.14843,-1.125 -1.40625,-1.945313 -0.11132,-0.351562 -0.1875,-0.74121 -0.23437,-1.171875 -0.041,-0.436523 -0.0586,-0.984375 -0.0586,-1.640625 0,-0.685546 0.0117,-1.207031 0.0352,-1.558593 0.0234,-0.351563 0.0703,-0.670899 0.14063,-0.960938 0.21679,-0.881836 0.67382,-1.58789 1.37109,-2.121094 0.69434,-0.539062 1.54687,-0.808593 2.55469,-0.808593 1.14843,0 2.0625,0.301758 2.74218,0.902343 0.68555,0.594727 1.11622,1.41504 1.28907,2.460938 0.0381,0.266602 0.0644,0.580078 0.082,0.9375 0.0146,0.360352 0.0234,0.805664 0.0234,1.335937 0,0.140625 -0.0703,0.210938 -0.21094,0.210938 h -6.84375 c -0.0645,0 -0.0937,0.0293 -0.0937,0.08203 0,0.899414 0.0351,1.494141 0.10547,1.78125 0.15527,0.688477 0.5039,1.230469 1.04297,1.628906 0.53906,0.398438 1.22168,0.597657 2.05078,0.597657 z m -3.04688,-6.761719 c -0.0703,0.266602 -0.12304,0.814453 -0.15234,1.640625 0,0.05566 0.0293,0.08203 0.0937,0.08203 h 5.85937 c 0.0527,0 0.082,-0.02637 0.082,-0.08203 0,-0.703125 -0.0351,-1.230469 -0.10546,-1.582031 -0.15821,-0.670899 -0.49805,-1.209961 -1.01954,-1.617188 -0.51562,-0.413086 -1.14843,-0.621094 -1.89843,-0.621094 -0.75879,0 -1.3916,0.199219 -1.89844,0.597657 -0.50098,0.398437 -0.82031,0.925781 -0.96094,1.582031 z m 12.69141,7.582031 c -0.12598,0 -0.21094,-0.05273 -0.25781,-0.164062 l -3.48047,-10.183594 -0.0234,-0.09375 c 0,-0.09375 0.0615,-0.140625 0.1875,-0.140625 h 0.79687 c 0.12305,0 0.21094,0.05566 0.25782,0.164062 l 2.84765,8.695313 c 0.0146,0.03223 0.0352,0.04687 0.0586,0.04687 0.0293,0 0.0527,-0.01465 0.0703,-0.04687 l 2.85937,-8.695313 c 0.0381,-0.108398 0.12012,-0.164062 0.2461,-0.164062 l 0.78515,0.02344 c 0.14649,0 0.20215,0.07617 0.16407,0.222657 l -3.46875,10.171875 c -0.041,0.111328 -0.12305,0.164062 -0.2461,0.164062 z m 11.25293,-10.734375 c 1.07812,0 1.94824,0.333985 2.61328,0.996094 0.66211,0.65625 0.99609,1.523437 0.99609,2.601562 v 6.925782 c 0,0.140625 -0.0703,0.210937 -0.21093,0.210937 h -0.69141 c -0.14063,0 -0.21094,-0.07031 -0.21094,-0.210937 v -6.714844 c 0,-0.826172 -0.25488,-1.50293 -0.76172,-2.027344 -0.50097,-0.521484 -1.15722,-0.785156 -1.96875,-0.785156 -0.84375,0 -1.52343,0.254883 -2.03906,0.761719 -0.51562,0.509765 -0.77344,1.177734 -0.77344,2.003906 v 6.761719 c 0,0.140625 -0.0703,0.210937 -0.21093,0.210937 h -0.69141 c -0.14063,0 -0.21094,-0.07031 -0.21094,-0.210937 V 48.619323 c 0,-0.140625 0.0703,-0.210937 0.21094,-0.210937 h 0.69141 c 0.14062,0 0.21093,0.07031 0.21093,0.210937 v 1.03125 c 0,0.04102 0.006,0.06445 0.0234,0.07031 0.0234,0.0088 0.041,-0.0029 0.0586,-0.03516 0.30469,-0.459961 0.70606,-0.811524 1.20704,-1.054688 0.50683,-0.249023 1.09277,-0.375 1.75781,-0.375 z m 10.62305,-0.02344 c 1.23339,0 2.17089,0.322265 2.8125,0.960937 0.64746,0.641602 0.97265,1.5 0.97265,2.578125 v 7.007813 c 0,0.140625 -0.0703,0.210937 -0.21094,0.210937 h -0.6914 c -0.14063,0 -0.21094,-0.07031 -0.21094,-0.210937 v -0.984375 c 0,-0.0293 -0.0117,-0.0498 -0.0352,-0.05859 -0.0234,-0.01465 -0.0469,-0.01172 -0.0703,0.01172 -0.36914,0.46289 -0.84375,0.814453 -1.42969,1.054687 -0.58007,0.234375 -1.22461,0.351563 -1.93359,0.351563 -0.96973,0 -1.79004,-0.240235 -2.46094,-0.726563 -0.67383,-0.492187 -1.00781,-1.242187 -1.00781,-2.25 0,-1.037109 0.38672,-1.857422 1.16016,-2.460937 0.77343,-0.600586 1.83105,-0.902344 3.17578,-0.902344 h 2.51953 c 0.0527,0 0.082,-0.02637 0.082,-0.08203 v -0.949219 c 0,-0.779297 -0.22266,-1.400391 -0.66797,-1.863281 -0.43945,-0.459961 -1.11328,-0.691407 -2.02734,-0.691407 -0.71192,0 -1.29785,0.149415 -1.75781,0.445313 -0.4629,0.290039 -0.75,0.679687 -0.86719,1.171875 -0.041,0.140625 -0.12305,0.205078 -0.2461,0.1875 l -0.73828,-0.105469 c -0.1582,-0.0293 -0.21972,-0.08496 -0.1875,-0.164062 0.12305,-0.75586 0.53321,-1.365235 1.23047,-1.828125 0.69434,-0.46875 1.5586,-0.703125 2.58985,-0.703125 z m -0.60938,9.960937 c 0.88184,0 1.64648,-0.213867 2.29688,-0.644531 0.65625,-0.436523 0.98437,-1.042969 0.98437,-1.816406 v -1.910157 c 0,-0.05273 -0.0293,-0.08203 -0.082,-0.08203 h -2.41406 c -1.00196,0 -1.80469,0.210938 -2.41407,0.632813 -0.60937,0.421875 -0.91406,1.001953 -0.91406,1.734375 0,0.688476 0.23731,1.207031 0.71485,1.558593 0.4746,0.351563 1.08398,0.527344 1.82812,0.527344 z m 0.0469,-11.191406 c -0.0879,0 -0.14649,-0.02344 -0.17579,-0.07031 -0.0234,-0.05273 -0.0176,-0.117187 0.0234,-0.1875 l 1.28906,-2.308593 c 0.0381,-0.09375 0.12012,-0.140625 0.2461,-0.140625 h 0.60937 c 0.085,0 0.14063,0.02344 0.16407,0.07031 0.0293,0.04687 0.0264,0.105469 -0.0117,0.175781 l -1.40625,2.308594 c -0.0703,0.102539 -0.15821,0.152344 -0.25782,0.152344 z m 14.53125,11.988281 c -0.12598,0 -0.21094,-0.05273 -0.25782,-0.164062 l -3.48047,-10.183594 -0.0234,-0.09375 c 0,-0.09375 0.0615,-0.140625 0.1875,-0.140625 h 0.79687 c 0.12305,0 0.21094,0.05566 0.25781,0.164062 l 2.84766,8.695313 c 0.0147,0.03223 0.0352,0.04687 0.0586,0.04687 0.0293,0 0.0527,-0.01465 0.0703,-0.04687 l 2.85937,-8.695313 c 0.0381,-0.108398 0.12012,-0.164062 0.2461,-0.164062 l 0.78515,0.02344 c 0.14649,0 0.20215,0.07617 0.16406,0.222657 l -3.46875,10.171875 c -0.041,0.111328 -0.12304,0.164062 -0.24609,0.164062 z m 10.45312,-10.757812 c 1.2334,0 2.1709,0.322265 2.8125,0.960937 0.64746,0.641602 0.97266,1.5 0.97266,2.578125 v 7.007813 c 0,0.140625 -0.0703,0.210937 -0.21094,0.210937 h -0.69141 c -0.14062,0 -0.21093,-0.07031 -0.21093,-0.210937 v -0.984375 c 0,-0.0293 -0.0117,-0.0498 -0.0352,-0.05859 -0.0234,-0.01465 -0.0469,-0.01172 -0.0703,0.01172 -0.36914,0.46289 -0.84375,0.814453 -1.42969,1.054687 -0.58008,0.234375 -1.22461,0.351563 -1.93359,0.351563 -0.96973,0 -1.79004,-0.240235 -2.46094,-0.726563 -0.67383,-0.492187 -1.00781,-1.242187 -1.00781,-2.25 0,-1.037109 0.38671,-1.857422 1.16015,-2.460937 0.77344,-0.600586 1.83106,-0.902344 3.17578,-0.902344 h 2.51953 c 0.0527,0 0.082,-0.02637 0.082,-0.08203 v -0.949219 c 0,-0.779297 -0.22266,-1.400391 -0.66797,-1.863281 -0.43946,-0.459961 -1.11328,-0.691407 -2.02735,-0.691407 -0.71191,0 -1.29785,0.149415 -1.75781,0.445313 -0.46289,0.290039 -0.75,0.679687 -0.86719,1.171875 -0.041,0.140625 -0.12304,0.205078 -0.24609,0.1875 l -0.73828,-0.105469 c -0.15821,-0.0293 -0.21973,-0.08496 -0.1875,-0.164062 0.12304,-0.75586 0.5332,-1.365235 1.23047,-1.828125 0.69433,-0.46875 1.55859,-0.703125 2.58984,-0.703125 z m -0.60937,9.960937 c 0.88183,0 1.64648,-0.213867 2.29687,-0.644531 0.65625,-0.436523 0.98438,-1.042969 0.98438,-1.816406 v -1.910157 c 0,-0.05273 -0.0293,-0.08203 -0.082,-0.08203 h -2.41406 c -1.00195,0 -1.80469,0.210938 -2.41406,0.632813 -0.60938,0.421875 -0.91406,1.001953 -0.91406,1.734375 0,0.688476 0.2373,1.207031 0.71484,1.558593 0.47461,0.351563 1.08398,0.527344 1.82813,0.527344 z m 11.71582,-9.867187 c 0.4746,0 0.88183,0.08203 1.21875,0.246093 0.11718,0.04687 0.1582,0.137696 0.1289,0.269532 l -0.1875,0.679687 c -0.041,0.140625 -0.1289,0.184571 -0.26953,0.128906 -0.28125,-0.117187 -0.63281,-0.166992 -1.05469,-0.152343 -0.78222,0.01758 -1.42968,0.316406 -1.94531,0.902343 -0.50977,0.580079 -0.76172,1.286133 -0.76172,2.121094 v 6.257813 c 0,0.140625 -0.0703,0.210937 -0.21094,0.210937 h -0.6914 c -0.14063,0 -0.21094,-0.07031 -0.21094,-0.210937 V 48.619323 c 0,-0.140625 0.0703,-0.210937 0.21094,-0.210937 h 0.6914 c 0.14063,0 0.21094,0.07031 0.21094,0.210937 v 1.429688 c 0,0.04102 0.006,0.06445 0.0234,0.07031 0.0234,0.0088 0.041,-0.01172 0.0586,-0.05859 0.2959,-0.539063 0.67969,-0.960938 1.14844,-1.265625 0.46875,-0.310547 1.01367,-0.46875 1.64063,-0.46875 z m 4.40918,-2.039063 c -0.30469,0 -0.55665,-0.09668 -0.75,-0.292969 -0.19629,-0.193359 -0.29297,-0.448242 -0.29297,-0.761718 0,-0.304688 0.0967,-0.553711 0.29297,-0.75 0.19335,-0.19336 0.44531,-0.292969 0.75,-0.292969 0.31054,0 0.56542,0.09961 0.76171,0.292969 0.19336,0.196289 0.29297,0.445312 0.29297,0.75 0,0.313476 -0.0996,0.568359 -0.29297,0.761718 -0.19629,0.19629 -0.45117,0.292969 -0.76171,0.292969 z m -0.39844,12.679688 c -0.14063,0 -0.21094,-0.07031 -0.21094,-0.210938 V 48.595886 c 0,-0.140625 0.0703,-0.210938 0.21094,-0.210938 h 0.6914 c 0.14063,0 0.21094,0.07031 0.21094,0.210938 v 10.160156 c 0,0.140625 -0.0703,0.210938 -0.21094,0.210938 z m 8.42285,-10.734375 c 1.2334,0 2.1709,0.322265 2.8125,0.960937 0.64746,0.641602 0.97266,1.5 0.97266,2.578125 v 7.007813 c 0,0.140625 -0.0703,0.210937 -0.21094,0.210937 h -0.69141 c -0.14062,0 -0.21094,-0.07031 -0.21094,-0.210937 v -0.984375 c 0,-0.0293 -0.0117,-0.0498 -0.0352,-0.05859 -0.0234,-0.01465 -0.0469,-0.01172 -0.0703,0.01172 -0.36915,0.46289 -0.84375,0.814453 -1.42969,1.054687 -0.58008,0.234375 -1.22461,0.351563 -1.9336,0.351563 -0.96972,0 -1.79003,-0.240235 -2.46093,-0.726563 -0.67383,-0.492187 -1.00782,-1.242187 -1.00782,-2.25 0,-1.037109 0.38672,-1.857422 1.16016,-2.460937 0.77344,-0.600586 1.83106,-0.902344 3.17578,-0.902344 h 2.51953 c 0.0527,0 0.082,-0.02637 0.082,-0.08203 v -0.949219 c 0,-0.779297 -0.22265,-1.400391 -0.66796,-1.863281 -0.43946,-0.459961 -1.11329,-0.691407 -2.02735,-0.691407 -0.71191,0 -1.29785,0.149415 -1.75781,0.445313 -0.46289,0.290039 -0.75,0.679687 -0.86719,1.171875 -0.041,0.140625 -0.12305,0.205078 -0.24609,0.1875 l -0.73828,-0.105469 c -0.15821,-0.0293 -0.21973,-0.08496 -0.1875,-0.164062 0.12304,-0.75586 0.5332,-1.365235 1.23047,-1.828125 0.69433,-0.46875 1.55859,-0.703125 2.58984,-0.703125 z m -0.60938,9.960937 c 0.88184,0 1.64649,-0.213867 2.29688,-0.644531 0.65625,-0.436523 0.98437,-1.042969 0.98437,-1.816406 v -1.910157 c 0,-0.05273 -0.0293,-0.08203 -0.082,-0.08203 h -2.41406 c -1.00195,0 -1.80469,0.210938 -2.41406,0.632813 -0.60938,0.421875 -0.91406,1.001953 -0.91406,1.734375 0,0.688476 0.2373,1.207031 0.71484,1.558593 0.47461,0.351563 1.08398,0.527344 1.82812,0.527344 z m 11.89161,-9.9375 c 1.07812,0 1.94824,0.333985 2.61328,0.996094 0.66211,0.65625 0.99609,1.523437 0.99609,2.601562 v 6.925782 c 0,0.140625 -0.0703,0.210937 -0.21094,0.210937 h -0.6914 c -0.14063,0 -0.21094,-0.07031 -0.21094,-0.210937 v -6.714844 c 0,-0.826172 -0.25488,-1.50293 -0.76172,-2.027344 -0.50098,-0.521484 -1.15723,-0.785156 -1.96875,-0.785156 -0.84375,0 -1.52344,0.254883 -2.03906,0.761719 -0.51563,0.509765 -0.77344,1.177734 -0.77344,2.003906 v 6.761719 c 0,0.140625 -0.0703,0.210937 -0.21094,0.210937 h -0.6914 c -0.14063,0 -0.21094,-0.07031 -0.21094,-0.210937 V 48.619323 c 0,-0.140625 0.0703,-0.210937 0.21094,-0.210937 h 0.6914 c 0.14063,0 0.21094,0.07031 0.21094,0.210937 v 1.03125 c 0,0.04102 0.006,0.06445 0.0234,0.07031 0.0234,0.0088 0.041,-0.0029 0.0586,-0.03516 0.30469,-0.459961 0.70606,-0.811524 1.20703,-1.054688 0.50684,-0.249023 1.09278,-0.375 1.75782,-0.375 z m 11.52539,0.890625 c 0,0.134766 -0.0703,0.199219 -0.21094,0.199219 h -2.44922 c -0.0644,0 -0.0937,0.03223 -0.0937,0.09375 v 6.632812 c 0,0.711915 0.1582,1.212891 0.48047,1.5 0.32812,0.29004 0.84668,0.433594 1.55859,0.433594 h 0.49219 c 0.13184,0 0.19922,0.07031 0.19922,0.210938 v 0.5625 c 0,0.140625 -0.0674,0.210937 -0.19922,0.210937 l -0.63281,0.02344 c -0.98438,0 -1.72852,-0.1875 -2.22656,-0.5625 -0.49219,-0.38086 -0.74708,-1.078125 -0.76172,-2.085938 v -6.925781 c 0,-0.06152 -0.0293,-0.09375 -0.082,-0.09375 h -1.25391 c -0.14063,0 -0.21094,-0.06445 -0.21094,-0.199219 v -0.527344 c 0,-0.140625 0.0703,-0.210937 0.21094,-0.210937 h 1.25391 c 0.0527,0 0.082,-0.02637 0.082,-0.08203 v -2.402344 c 0,-0.140625 0.0703,-0.210938 0.21093,-0.210938 h 0.67969 c 0.13184,0 0.19922,0.07031 0.19922,0.210938 v 2.402344 c 0,0.05566 0.0293,0.08203 0.0937,0.08203 h 2.44922 c 0.14062,0 0.21094,0.07031 0.21094,0.210937 z m 6.63574,-0.914062 c 1.2334,0 2.1709,0.322265 2.8125,0.960937 0.64746,0.641602 0.97265,1.5 0.97265,2.578125 v 7.007813 c 0,0.140625 -0.0703,0.210937 -0.21093,0.210937 h -0.69141 c -0.14062,0 -0.21094,-0.07031 -0.21094,-0.210937 v -0.984375 c 0,-0.0293 -0.0117,-0.0498 -0.0352,-0.05859 -0.0234,-0.01465 -0.0469,-0.01172 -0.0703,0.01172 -0.36914,0.46289 -0.84375,0.814453 -1.42968,1.054687 -0.58008,0.234375 -1.22461,0.351563 -1.9336,0.351563 -0.96972,0 -1.79004,-0.240235 -2.46093,-0.726563 -0.67383,-0.492187 -1.00782,-1.242187 -1.00782,-2.25 0,-1.037109 0.38672,-1.857422 1.16016,-2.460937 0.77344,-0.600586 1.83105,-0.902344 3.17578,-0.902344 h 2.51953 c 0.0527,0 0.082,-0.02637 0.082,-0.08203 v -0.949219 c 0,-0.779297 -0.22265,-1.400391 -0.66797,-1.863281 -0.43945,-0.459961 -1.11328,-0.691407 -2.02734,-0.691407 -0.71191,0 -1.29785,0.149415 -1.75781,0.445313 -0.46289,0.290039 -0.75,0.679687 -0.86719,1.171875 -0.041,0.140625 -0.12305,0.205078 -0.24609,0.1875 l -0.73828,-0.105469 c -0.15821,-0.0293 -0.21973,-0.08496 -0.1875,-0.164062 0.12304,-0.75586 0.5332,-1.365235 1.23046,-1.828125 0.69434,-0.46875 1.5586,-0.703125 2.58985,-0.703125 z m -0.60938,9.960937 c 0.88184,0 1.64649,-0.213867 2.29688,-0.644531 0.65625,-0.436523 0.98437,-1.042969 0.98437,-1.816406 v -1.910157 c 0,-0.05273 -0.0293,-0.08203 -0.082,-0.08203 h -2.41406 c -1.00195,0 -1.80469,0.210938 -2.41406,0.632813 -0.60938,0.421875 -0.91407,1.001953 -0.91407,1.734375 0,0.688476 0.23731,1.207031 0.71485,1.558593 0.47461,0.351563 1.08398,0.527344 1.82812,0.527344 z M -325.41699,236.56464 c 0.0703,-0.0937 0.15528,-0.14063 0.25782,-0.14063 h 0.71484 c 0.14062,0 0.21094,0.0703 0.21094,0.21094 v 14.27344 c 0,0.14062 -0.0703,0.21093 -0.21094,0.21093 h -0.70313 c -0.13476,0 -0.19921,-0.0703 -0.19921,-0.21093 v -12.32813 c 0,-0.0381 -0.0176,-0.0615 -0.0469,-0.0703 -0.0322,-0.006 -0.0527,0.009 -0.0586,0.0469 l -3.70313,5.71875 c -0.0703,0.0937 -0.15234,0.14063 -0.24609,0.14063 h -0.36328 c -0.0937,0 -0.17578,-0.0469 -0.2461,-0.14063 l -3.73828,-5.69531 c -0.0176,-0.0381 -0.041,-0.0498 -0.0703,-0.0352 -0.0234,0.009 -0.0352,0.0352 -0.0352,0.082 v 12.28125 c 0,0.14062 -0.0703,0.21093 -0.21093,0.21093 h -0.69141 c -0.14063,0 -0.21094,-0.0703 -0.21094,-0.21093 v -14.27344 c 0,-0.14063 0.0703,-0.21094 0.21094,-0.21094 h 0.72656 c 0.0996,0 0.1875,0.0469 0.25781,0.14063 l 4.11329,6.30468 c 0.0146,0.0176 0.0352,0.0234 0.0586,0.0234 0.0293,0 0.0527,-0.006 0.0703,-0.0234 z m 8.98828,14.71875 c -0.97851,0 -1.8164,-0.25782 -2.51953,-0.77344 -0.70312,-0.51563 -1.18066,-1.20703 -1.42968,-2.07422 -0.15821,-0.5625 -0.23438,-1.43555 -0.23438,-2.625 0,-1.19531 0.0762,-2.06543 0.23438,-2.61328 0.24902,-0.86719 0.7207,-1.55274 1.41796,-2.0625 0.69434,-0.51563 1.54688,-0.77344 2.55469,-0.77344 0.97559,0 1.81641,0.26367 2.51953,0.78516 0.70899,0.51562 1.18653,1.20117 1.42969,2.05078 0.0762,0.32812 0.13184,0.6914 0.16406,1.08984 0.0293,0.39844 0.0469,0.90821 0.0469,1.52344 0,0.6416 -0.0176,1.15723 -0.0469,1.54687 -0.0322,0.39258 -0.0879,0.75 -0.16406,1.07813 -0.24316,0.86719 -0.7207,1.55859 -1.42969,2.07422 -0.70312,0.51562 -1.55273,0.77344 -2.54297,0.77344 z m 0,-0.98438 c 0.74121,0 1.37403,-0.20508 1.89844,-0.62109 0.52149,-0.41309 0.86133,-0.95508 1.01953,-1.62891 0.0996,-0.375 0.15235,-1.11621 0.15235,-2.22656 0,-1.11621 -0.0439,-1.85742 -0.12891,-2.22656 -0.1582,-0.67969 -0.49805,-1.22168 -1.01953,-1.62891 -0.52442,-0.4043 -1.16602,-0.60938 -1.92188,-0.60938 -0.75879,0 -1.39453,0.20508 -1.91015,0.60938 -0.51563,0.40723 -0.85254,0.94922 -1.00781,1.62891 -0.10254,0.43945 -0.15235,1.18066 -0.15235,2.22656 0,1.05469 0.0498,1.79883 0.15235,2.22656 0.15527,0.68848 0.49218,1.23633 1.00781,1.64063 0.51562,0.40722 1.15136,0.60937 1.91015,0.60937 z m 11.66016,-9.91406 c 1.07813,0 1.94824,0.33398 2.61328,0.99609 0.66211,0.65625 0.9961,1.52344 0.9961,2.60156 v 6.92579 c 0,0.14062 -0.0703,0.21093 -0.21094,0.21093 h -0.69141 c -0.14062,0 -0.21094,-0.0703 -0.21094,-0.21093 v -6.71485 c 0,-0.82617 -0.25488,-1.50293 -0.76171,-2.02734 -0.50098,-0.52149 -1.15723,-0.78516 -1.96875,-0.78516 -0.84375,0 -1.52344,0.25489 -2.03907,0.76172 -0.51562,0.50977 -0.77343,1.17774 -0.77343,2.00391 v 6.76172 c 0,0.14062 -0.0703,0.21093 -0.21094,0.21093 h -0.69141 c -0.14062,0 -0.21094,-0.0703 -0.21094,-0.21093 v -10.16016 c 0,-0.14063 0.0703,-0.21094 0.21094,-0.21094 h 0.69141 c 0.14062,0 0.21094,0.0703 0.21094,0.21094 v 1.03125 c 0,0.041 0.006,0.0644 0.0234,0.0703 0.0234,0.009 0.041,-0.003 0.0586,-0.0352 0.30468,-0.45996 0.70605,-0.81153 1.20703,-1.05469 0.50683,-0.24902 1.09277,-0.375 1.75781,-0.375 z m 10.7666,10.89844 c -0.97851,0 -1.8164,-0.25782 -2.51953,-0.77344 -0.70312,-0.51563 -1.18066,-1.20703 -1.42969,-2.07422 -0.1582,-0.5625 -0.23437,-1.43555 -0.23437,-2.625 0,-1.19531 0.0762,-2.06543 0.23437,-2.61328 0.24903,-0.86719 0.72071,-1.55274 1.41797,-2.0625 0.69434,-0.51563 1.54688,-0.77344 2.55469,-0.77344 0.97559,0 1.81641,0.26367 2.51953,0.78516 0.70898,0.51562 1.18652,1.20117 1.42969,2.05078 0.0762,0.32812 0.13183,0.6914 0.16406,1.08984 0.0293,0.39844 0.0469,0.90821 0.0469,1.52344 0,0.6416 -0.0176,1.15723 -0.0469,1.54687 -0.0322,0.39258 -0.0879,0.75 -0.16406,1.07813 -0.24317,0.86719 -0.72071,1.55859 -1.42969,2.07422 -0.70312,0.51562 -1.55273,0.77344 -2.54297,0.77344 z m 0,-0.98438 c 0.74121,0 1.37403,-0.20508 1.89844,-0.62109 0.52148,-0.41309 0.86133,-0.95508 1.01953,-1.62891 0.0996,-0.375 0.15234,-1.11621 0.15234,-2.22656 0,-1.11621 -0.0439,-1.85742 -0.1289,-2.22656 -0.15821,-0.67969 -0.49805,-1.22168 -1.01953,-1.62891 -0.52442,-0.4043 -1.16602,-0.60938 -1.92188,-0.60938 -0.75879,0 -1.39453,0.20508 -1.91015,0.60938 -0.51563,0.40723 -0.85254,0.94922 -1.00782,1.62891 -0.10254,0.43945 -0.15234,1.18066 -0.15234,2.22656 0,1.05469 0.0498,1.79883 0.15234,2.22656 0.15528,0.68848 0.49219,1.23633 1.00782,1.64063 0.51562,0.40722 1.15136,0.60937 1.91015,0.60937 z m 11.34375,0.98438 c -0.99316,0 -1.83691,-0.25782 -2.53125,-0.77344 -0.69726,-0.51563 -1.16015,-1.20703 -1.39453,-2.07422 -0.1875,-0.6709 -0.28125,-1.54688 -0.28125,-2.625 0,-1.03711 0.0937,-1.91016 0.28125,-2.61328 0.2168,-0.84961 0.67969,-1.53516 1.38281,-2.05078 0.70313,-0.52149 1.54981,-0.78516 2.54297,-0.78516 0.99024,0 1.8457,0.25488 2.56641,0.76172 0.72656,0.50977 1.18652,1.13672 1.38281,1.88672 0.0527,0.19629 0.0937,0.39258 0.11719,0.58594 v 0.0469 c 0,0.10254 -0.0645,0.16406 -0.1875,0.1875 l -0.66797,0.082 h -0.0469 c -0.0937,0 -0.1582,-0.0615 -0.1875,-0.1875 l -0.0586,-0.29297 c -0.12598,-0.58593 -0.4541,-1.07812 -0.98437,-1.47656 -0.53321,-0.39844 -1.17774,-0.59766 -1.9336,-0.59766 -0.77344,0 -1.41797,0.20508 -1.93359,0.60938 -0.50977,0.40723 -0.8291,0.94629 -0.96094,1.61719 -0.13477,0.5332 -0.19922,1.27734 -0.19922,2.23828 0,0.98437 0.0645,1.72851 0.19922,2.22656 0.13184,0.68848 0.45117,1.23633 0.96094,1.64063 0.51562,0.40722 1.16015,0.60937 1.93359,0.60937 0.75586,0 1.40625,-0.19922 1.94531,-0.59766 0.53907,-0.39843 0.86133,-0.89648 0.97266,-1.5 l 0.0234,-0.10546 c 0.0234,-0.15528 0.10547,-0.2168 0.24609,-0.1875 l 0.65625,0.10546 c 0.14063,0.0234 0.20215,0.0996 0.1875,0.22266 l -0.082,0.38672 c -0.19629,0.78223 -0.65625,1.42383 -1.38281,1.92187 -0.72071,0.49219 -1.57617,0.73829 -2.56641,0.73829 z m 11.15332,-10.89844 c 1.07813,0 1.94824,0.33398 2.61328,0.99609 0.66211,0.65625 0.9961,1.52344 0.9961,2.60156 v 6.92579 c 0,0.14062 -0.0703,0.21093 -0.21094,0.21093 h -0.69141 c -0.14062,0 -0.21093,-0.0703 -0.21093,-0.21093 v -6.71485 c 0,-0.82617 -0.25489,-1.50293 -0.76172,-2.02734 -0.50098,-0.52149 -1.15723,-0.78516 -1.96875,-0.78516 -0.84375,0 -1.52344,0.25489 -2.03907,0.76172 -0.51562,0.50977 -0.77343,1.17774 -0.77343,2.00391 v 6.76172 c 0,0.14062 -0.0703,0.21093 -0.21094,0.21093 h -0.69141 c -0.14062,0 -0.21093,-0.0703 -0.21093,-0.21093 v -14.27344 c 0,-0.14063 0.0703,-0.21094 0.21093,-0.21094 h 0.69141 c 0.14062,0 0.21094,0.0703 0.21094,0.21094 v 5.14453 c 0,0.041 0.006,0.0644 0.0234,0.0703 0.0234,0.009 0.041,-0.003 0.0586,-0.0352 0.30469,-0.45996 0.70605,-0.81153 1.20703,-1.05469 0.50684,-0.24902 1.09277,-0.375 1.75781,-0.375 z m 11.10059,0.0703 c 0.47461,0 0.88183,0.082 1.21875,0.24609 0.11719,0.0469 0.1582,0.1377 0.1289,0.26954 l -0.1875,0.67968 c -0.041,0.14063 -0.1289,0.18457 -0.26953,0.12891 -0.28125,-0.11719 -0.63281,-0.16699 -1.05468,-0.15234 -0.78223,0.0176 -1.42969,0.3164 -1.94532,0.90234 -0.50976,0.58008 -0.76172,1.28613 -0.76172,2.12109 v 6.25782 c 0,0.14062 -0.0703,0.21093 -0.21093,0.21093 h -0.69141 c -0.14062,0 -0.21094,-0.0703 -0.21094,-0.21093 v -10.16016 c 0,-0.14063 0.0703,-0.21094 0.21094,-0.21094 h 0.69141 c 0.14062,0 0.21093,0.0703 0.21093,0.21094 v 1.42969 c 0,0.041 0.006,0.0644 0.0234,0.0703 0.0234,0.009 0.041,-0.0117 0.0586,-0.0586 0.29589,-0.53907 0.67968,-0.96094 1.14843,-1.26563 0.46875,-0.31055 1.01367,-0.46875 1.64063,-0.46875 z m 7.3125,10.82813 c -0.97852,0 -1.81641,-0.25782 -2.51953,-0.77344 -0.70313,-0.51563 -1.18067,-1.20703 -1.42969,-2.07422 -0.1582,-0.5625 -0.23438,-1.43555 -0.23438,-2.625 0,-1.19531 0.0762,-2.06543 0.23438,-2.61328 0.24902,-0.86719 0.7207,-1.55274 1.41797,-2.0625 0.69433,-0.51563 1.54687,-0.77344 2.55469,-0.77344 0.97558,0 1.8164,0.26367 2.51953,0.78516 0.70898,0.51562 1.18652,1.20117 1.42968,2.05078 0.0762,0.32812 0.13184,0.6914 0.16407,1.08984 0.0293,0.39844 0.0469,0.90821 0.0469,1.52344 0,0.6416 -0.0176,1.15723 -0.0469,1.54687 -0.0322,0.39258 -0.0879,0.75 -0.16407,1.07813 -0.24316,0.86719 -0.7207,1.55859 -1.42968,2.07422 -0.70313,0.51562 -1.55274,0.77344 -2.54297,0.77344 z m 0,-0.98438 c 0.74121,0 1.37402,-0.20508 1.89844,-0.62109 0.52148,-0.41309 0.86132,-0.95508 1.01953,-1.62891 0.0996,-0.375 0.15234,-1.11621 0.15234,-2.22656 0,-1.11621 -0.0439,-1.85742 -0.12891,-2.22656 -0.1582,-0.67969 -0.49804,-1.22168 -1.01953,-1.62891 -0.52441,-0.4043 -1.16601,-0.60938 -1.92187,-0.60938 -0.75879,0 -1.39453,0.20508 -1.91016,0.60938 -0.51562,0.40723 -0.85254,0.94922 -1.00781,1.62891 -0.10254,0.43945 -0.15234,1.18066 -0.15234,2.22656 0,1.05469 0.0498,1.79883 0.15234,2.22656 0.15527,0.68848 0.49219,1.23633 1.00781,1.64063 0.51563,0.40722 1.15137,0.60937 1.91016,0.60937 z m 17.99707,-9.91406 c 1.02246,0 1.83984,0.31055 2.44922,0.92578 0.61523,0.61816 0.92578,1.46484 0.92578,2.54297 v 7.05469 c 0,0.14062 -0.0674,0.21093 -0.19922,0.21093 h -0.67969 c -0.14062,0 -0.21094,-0.0703 -0.21094,-0.21093 v -6.84375 c 0,-0.82618 -0.24316,-1.4795 -0.72656,-1.95704 -0.47754,-0.48339 -1.10156,-0.72656 -1.875,-0.72656 -0.81445,0 -1.4707,0.24024 -1.96875,0.71485 -0.49219,0.46875 -0.73828,1.11035 -0.73828,1.92187 v 6.89063 c 0,0.14062 -0.0703,0.21093 -0.21094,0.21093 h -0.66797 c -0.14062,0 -0.21093,-0.0703 -0.21093,-0.21093 v -6.84375 c 0,-0.82618 -0.24024,-1.4795 -0.71485,-1.95704 -0.47754,-0.48339 -1.10156,-0.72656 -1.875,-0.72656 -0.82031,0 -1.47363,0.24024 -1.95703,0.71485 -0.48633,0.46875 -0.72656,1.11035 -0.72656,1.92187 v 6.89063 c 0,0.14062 -0.0703,0.21093 -0.21094,0.21093 h -0.6914 c -0.14063,0 -0.21094,-0.0703 -0.21094,-0.21093 v -10.16016 c 0,-0.14063 0.0703,-0.21094 0.21094,-0.21094 h 0.6914 c 0.14063,0 0.21094,0.0703 0.21094,0.21094 v 0.9375 c 0,0.0322 0.0117,0.0557 0.0352,0.0703 0.0293,0.0176 0.0527,0.009 0.0703,-0.0234 0.28711,-0.44531 0.68262,-0.77929 1.18359,-1.00781 0.49805,-0.22558 1.06055,-0.33984 1.6875,-0.33984 0.73242,0 1.36231,0.16113 1.88672,0.48047 0.52149,0.31347 0.91699,0.75586 1.18359,1.32422 0.0293,0.0644 0.0645,0.0703 0.10547,0.0234 0.2959,-0.60058 0.72071,-1.05468 1.27735,-1.35937 0.5625,-0.31055 1.21289,-0.46875 1.95703,-0.46875 z m 11.02734,0 c 1.07813,0 1.94824,0.33398 2.61328,0.99609 0.66211,0.65625 0.9961,1.52344 0.9961,2.60156 v 6.92579 c 0,0.14062 -0.0703,0.21093 -0.21094,0.21093 h -0.69141 c -0.14062,0 -0.21093,-0.0703 -0.21093,-0.21093 v -6.71485 c 0,-0.82617 -0.25489,-1.50293 -0.76172,-2.02734 -0.50098,-0.52149 -1.15723,-0.78516 -1.96875,-0.78516 -0.84375,0 -1.52344,0.25489 -2.03907,0.76172 -0.51562,0.50977 -0.77343,1.17774 -0.77343,2.00391 v 6.76172 c 0,0.14062 -0.0703,0.21093 -0.21094,0.21093 h -0.69141 c -0.14062,0 -0.21093,-0.0703 -0.21093,-0.21093 v -10.16016 c 0,-0.14063 0.0703,-0.21094 0.21093,-0.21094 h 0.69141 c 0.14062,0 0.21094,0.0703 0.21094,0.21094 v 1.03125 c 0,0.041 0.006,0.0644 0.0234,0.0703 0.0234,0.009 0.041,-0.003 0.0586,-0.0352 0.30469,-0.45996 0.70605,-0.81153 1.20703,-1.05469 0.50684,-0.24902 1.09277,-0.375 1.75781,-0.375 z m 7.09278,10.73437 c -0.14063,0 -0.21094,-0.0703 -0.21094,-0.21093 v -10.16016 c 0,-0.14063 0.0703,-0.21094 0.21094,-0.21094 h 0.6914 c 0.14063,0 0.21094,0.0703 0.21094,0.21094 v 10.16016 c 0,0.14062 -0.0703,0.21093 -0.21094,0.21093 z m -0.21094,-11.98828 c -0.0879,0 -0.14649,-0.0234 -0.17578,-0.0703 -0.0234,-0.0527 -0.0176,-0.11719 0.0234,-0.1875 l 1.28907,-2.30859 c 0.0381,-0.0937 0.12011,-0.14063 0.24609,-0.14063 h 0.60938 c 0.085,0 0.14062,0.0234 0.16406,0.0703 0.0293,0.0469 0.0264,0.10547 -0.0117,0.17578 l -1.40625,2.3086 c -0.0703,0.10254 -0.1582,0.15234 -0.25781,0.15234 z m 16.56738,4.06641 c 0.085,0.32812 0.14063,0.69726 0.16406,1.10156 0.0293,0.40723 0.0469,0.92285 0.0469,1.54688 0,1.18066 -0.0762,2.0625 -0.22266,2.64843 -0.24316,0.85254 -0.6914,1.53223 -1.34765,2.03907 -0.65625,0.50097 -1.46192,0.75 -2.41407,0.75 -0.61816,0 -1.17187,-0.12598 -1.66406,-0.375 -0.49219,-0.24903 -0.88476,-0.60352 -1.17187,-1.06641 -0.0322,-0.0293 -0.0586,-0.041 -0.082,-0.0352 -0.0176,0.009 -0.0234,0.0322 -0.0234,0.0703 v 1.03125 c 0,0.14062 -0.0703,0.21093 -0.21094,0.21093 h -0.69141 c -0.14062,0 -0.21093,-0.0703 -0.21093,-0.21093 v -14.27344 c 0,-0.14063 0.0703,-0.21094 0.21093,-0.21094 h 0.69141 c 0.14062,0 0.21094,0.0703 0.21094,0.21094 v 5.15625 c 0,0.0469 0.0117,0.0762 0.0351,0.082 0.0293,0.009 0.0527,-0.0117 0.0703,-0.0586 0.28711,-0.45996 0.67968,-0.81446 1.17187,-1.06641 0.49219,-0.25781 1.0459,-0.38672 1.66406,-0.38672 0.97559,0 1.79297,0.25781 2.44922,0.77344 0.66211,0.50976 1.10449,1.19531 1.32422,2.0625 z m -1.17187,5.13281 c 0.0996,-0.28125 0.16992,-0.58594 0.21093,-0.91406 0.0381,-0.32813 0.0586,-0.8584 0.0586,-1.59375 0,-0.74121 -0.0234,-1.28027 -0.0703,-1.61719 -0.0469,-0.33398 -0.13476,-0.64746 -0.25781,-0.9375 -0.17285,-0.5625 -0.49804,-1.01953 -0.97265,-1.37109 -0.47754,-0.35742 -1.04297,-0.53907 -1.69922,-0.53907 -0.6416,0 -1.1836,0.18165 -1.62891,0.53907 -0.43945,0.35156 -0.73535,0.81738 -0.89062,1.39453 -0.10254,0.27539 -0.17286,0.58301 -0.21094,0.92578 -0.041,0.3457 -0.0586,0.8877 -0.0586,1.62891 0,0.7207 0.0147,1.24804 0.0469,1.58203 0.0381,0.33691 0.10547,0.63867 0.19922,0.90234 0.15527,0.58594 0.45117,1.06348 0.89062,1.42969 0.44532,0.36035 1.00196,0.53906 1.67578,0.53906 0.6709,0 1.24805,-0.17871 1.73438,-0.53906 0.49219,-0.36621 0.81445,-0.84375 0.97266,-1.42969 z m 8.20898,-7.96875 c 1.2334,0 2.1709,0.32227 2.8125,0.96094 0.64746,0.6416 0.97266,1.5 0.97266,2.57812 v 7.00782 c 0,0.14062 -0.0703,0.21093 -0.21094,0.21093 h -0.69141 c -0.14062,0 -0.21093,-0.0703 -0.21093,-0.21093 V 249.924 c 0,-0.0293 -0.0117,-0.0498 -0.0352,-0.0586 -0.0234,-0.0146 -0.0469,-0.0117 -0.0703,0.0117 -0.36914,0.46289 -0.84375,0.81445 -1.42969,1.05468 -0.58008,0.23438 -1.22461,0.35157 -1.93359,0.35157 -0.96973,0 -1.79004,-0.24024 -2.46094,-0.72657 -0.67383,-0.49218 -1.00781,-1.24218 -1.00781,-2.25 0,-1.03711 0.38671,-1.85742 1.16015,-2.46093 0.77344,-0.60059 1.83106,-0.90235 3.17578,-0.90235 h 2.51953 c 0.0527,0 0.082,-0.0264 0.082,-0.082 v -0.94922 c 0,-0.77929 -0.22266,-1.40039 -0.66797,-1.86328 -0.43946,-0.45996 -1.11328,-0.69141 -2.02735,-0.69141 -0.71191,0 -1.29785,0.14942 -1.75781,0.44532 -0.46289,0.29004 -0.75,0.67968 -0.86719,1.17187 -0.041,0.14063 -0.12304,0.20508 -0.24609,0.1875 l -0.73828,-0.10547 c -0.15821,-0.0293 -0.21973,-0.085 -0.1875,-0.16406 0.12304,-0.75586 0.5332,-1.36523 1.23047,-1.82812 0.69433,-0.46875 1.55859,-0.70313 2.58984,-0.70313 z m -0.60937,9.96094 c 0.88183,0 1.64648,-0.21387 2.29687,-0.64453 0.65625,-0.43653 0.98438,-1.04297 0.98438,-1.81641 v -1.91016 c 0,-0.0527 -0.0293,-0.082 -0.082,-0.082 h -2.41406 c -1.00195,0 -1.80469,0.21094 -2.41406,0.63282 -0.60938,0.42187 -0.91406,1.00195 -0.91406,1.73437 0,0.68848 0.2373,1.20703 0.71484,1.55859 0.47461,0.35157 1.08398,0.52735 1.82813,0.52735 z m 11.71582,-9.86719 c 0.4746,0 0.88183,0.082 1.21875,0.24609 0.11718,0.0469 0.1582,0.1377 0.1289,0.26954 l -0.1875,0.67968 c -0.041,0.14063 -0.1289,0.18457 -0.26953,0.12891 -0.28125,-0.11719 -0.63281,-0.16699 -1.05469,-0.15234 -0.78222,0.0176 -1.42968,0.3164 -1.94531,0.90234 -0.50977,0.58008 -0.76172,1.28613 -0.76172,2.12109 v 6.25782 c 0,0.14062 -0.0703,0.21093 -0.21094,0.21093 h -0.6914 c -0.14063,0 -0.21094,-0.0703 -0.21094,-0.21093 v -10.16016 c 0,-0.14063 0.0703,-0.21094 0.21094,-0.21094 h 0.6914 c 0.14063,0 0.21094,0.0703 0.21094,0.21094 v 1.42969 c 0,0.041 0.006,0.0644 0.0234,0.0703 0.0234,0.009 0.041,-0.0117 0.0586,-0.0586 0.2959,-0.53907 0.67969,-0.96094 1.14844,-1.26563 0.46875,-0.31055 1.01367,-0.46875 1.64063,-0.46875 z m 7.4414,9.84375 c 0.65625,0 1.21875,-0.14648 1.6875,-0.44531 0.46875,-0.30469 0.83496,-0.7207 1.10156,-1.25391 0.0703,-0.12304 0.15821,-0.1582 0.26954,-0.10547 l 0.55078,0.26953 c 0.12304,0.0703 0.1582,0.16407 0.10547,0.28125 -0.30469,0.67969 -0.79395,1.22461 -1.46485,1.62891 -0.66504,0.40723 -1.4414,0.60938 -2.33203,0.60938 -0.98437,0 -1.82227,-0.23731 -2.50781,-0.71485 -0.67969,-0.47461 -1.14844,-1.125 -1.40625,-1.94531 -0.11133,-0.35156 -0.1875,-0.74121 -0.23438,-1.17188 -0.041,-0.43652 -0.0586,-0.98437 -0.0586,-1.64062 0,-0.68555 0.0117,-1.20703 0.0352,-1.55859 0.0234,-0.35157 0.0703,-0.6709 0.14062,-0.96094 0.2168,-0.88184 0.67383,-1.58789 1.37109,-2.1211 0.69434,-0.53906 1.54688,-0.80859 2.55469,-0.80859 1.14844,0 2.0625,0.30176 2.74219,0.90234 0.68555,0.59473 1.11621,1.41504 1.28906,2.46094 0.0381,0.2666 0.0644,0.58008 0.082,0.9375 0.0146,0.36035 0.0234,0.80567 0.0234,1.33594 0,0.14062 -0.0703,0.21094 -0.21094,0.21094 h -6.84375 c -0.0645,0 -0.0937,0.0293 -0.0937,0.082 0,0.89941 0.0352,1.49414 0.10547,1.78125 0.15528,0.68848 0.50391,1.23047 1.04297,1.6289 0.53906,0.39844 1.22168,0.59766 2.05078,0.59766 z m -3.04687,-6.76172 c -0.0703,0.2666 -0.12305,0.81446 -0.15235,1.64063 0,0.0557 0.0293,0.082 0.0937,0.082 h 5.85938 c 0.0527,0 0.082,-0.0264 0.082,-0.082 0,-0.70313 -0.0352,-1.23047 -0.10547,-1.58203 -0.1582,-0.6709 -0.49805,-1.20996 -1.01953,-1.61719 -0.51563,-0.41309 -1.14844,-0.6211 -1.89844,-0.6211 -0.75879,0 -1.3916,0.19922 -1.89844,0.59766 -0.50097,0.39844 -0.82031,0.92578 -0.96093,1.58203 z m 12.68847,7.58203 c -0.12597,0 -0.21093,-0.0527 -0.25781,-0.16406 l -3.48047,-10.18359 -0.0234,-0.0937 c 0,-0.0937 0.0615,-0.14063 0.1875,-0.14063 h 0.79688 c 0.12305,0 0.21094,0.0557 0.25781,0.16406 l 2.84766,8.69532 c 0.0146,0.0322 0.0351,0.0469 0.0586,0.0469 0.0293,0 0.0527,-0.0147 0.0703,-0.0469 l 2.85938,-8.69532 c 0.0381,-0.10839 0.12012,-0.16406 0.24609,-0.16406 l 0.78516,0.0234 c 0.14648,0 0.20215,0.0762 0.16406,0.22266 l -3.46875,10.17187 c -0.041,0.11133 -0.12304,0.16406 -0.24609,0.16406 z m 11.25586,-10.73437 c 1.07813,0 1.94824,0.33398 2.61328,0.99609 0.66211,0.65625 0.9961,1.52344 0.9961,2.60156 v 6.92579 c 0,0.14062 -0.0703,0.21093 -0.21094,0.21093 h -0.69141 c -0.14062,0 -0.21093,-0.0703 -0.21093,-0.21093 v -6.71485 c 0,-0.82617 -0.25489,-1.50293 -0.76172,-2.02734 -0.50098,-0.52149 -1.15723,-0.78516 -1.96875,-0.78516 -0.84375,0 -1.52344,0.25489 -2.03906,0.76172 -0.51563,0.50977 -0.77344,1.17774 -0.77344,2.00391 v 6.76172 c 0,0.14062 -0.0703,0.21093 -0.21094,0.21093 h -0.69141 c -0.14062,0 -0.21093,-0.0703 -0.21093,-0.21093 v -10.16016 c 0,-0.14063 0.0703,-0.21094 0.21093,-0.21094 h 0.69141 c 0.14063,0 0.21094,0.0703 0.21094,0.21094 v 1.03125 c 0,0.041 0.006,0.0644 0.0234,0.0703 0.0234,0.009 0.041,-0.003 0.0586,-0.0352 0.30469,-0.45996 0.70605,-0.81153 1.20703,-1.05469 0.50684,-0.24902 1.09277,-0.375 1.75781,-0.375 z m 10.89844,9.91406 c 0.65625,0 1.21875,-0.14648 1.6875,-0.44531 0.46875,-0.30469 0.83496,-0.7207 1.10156,-1.25391 0.0703,-0.12304 0.15821,-0.1582 0.26953,-0.10547 l 0.55079,0.26953 c 0.12304,0.0703 0.1582,0.16407 0.10546,0.28125 -0.30468,0.67969 -0.79394,1.22461 -1.46484,1.62891 -0.66504,0.40723 -1.44141,0.60938 -2.33203,0.60938 -0.98438,0 -1.82227,-0.23731 -2.50781,-0.71485 -0.67969,-0.47461 -1.14844,-1.125 -1.40625,-1.94531 -0.11133,-0.35156 -0.1875,-0.74121 -0.23438,-1.17188 -0.041,-0.43652 -0.0586,-0.98437 -0.0586,-1.64062 0,-0.68555 0.0117,-1.20703 0.0352,-1.55859 0.0234,-0.35157 0.0703,-0.6709 0.14063,-0.96094 0.2168,-0.88184 0.67383,-1.58789 1.37109,-2.1211 0.69434,-0.53906 1.54688,-0.80859 2.55469,-0.80859 1.14844,0 2.0625,0.30176 2.74219,0.90234 0.68554,0.59473 1.11621,1.41504 1.28906,2.46094 0.0381,0.2666 0.0644,0.58008 0.082,0.9375 0.0146,0.36035 0.0234,0.80567 0.0234,1.33594 0,0.14062 -0.0703,0.21094 -0.21094,0.21094 h -6.84375 c -0.0644,0 -0.0937,0.0293 -0.0937,0.082 0,0.89941 0.0352,1.49414 0.10547,1.78125 0.15527,0.68848 0.50391,1.23047 1.04297,1.6289 0.53906,0.39844 1.22168,0.59766 2.05078,0.59766 z m -3.04687,-6.76172 c -0.0703,0.2666 -0.12305,0.81446 -0.15235,1.64063 0,0.0557 0.0293,0.082 0.0937,0.082 h 5.85938 c 0.0527,0 0.082,-0.0264 0.082,-0.082 0,-0.70313 -0.0352,-1.23047 -0.10547,-1.58203 -0.1582,-0.6709 -0.49805,-1.20996 -1.01953,-1.61719 -0.51563,-0.41309 -1.14844,-0.6211 -1.89844,-0.6211 -0.75879,0 -1.3916,0.19922 -1.89844,0.59766 -0.50097,0.39844 -0.82031,0.92578 -0.96093,1.58203 z m 2.27343,-4.40625 c -0.0879,0 -0.14648,-0.0234 -0.17578,-0.0703 -0.0234,-0.0527 -0.0176,-0.11719 0.0234,-0.1875 l 1.28906,-2.30859 c 0.0381,-0.0937 0.12012,-0.14063 0.2461,-0.14063 h 0.60937 c 0.085,0 0.14063,0.0234 0.16406,0.0703 0.0293,0.0469 0.0264,0.10547 -0.0117,0.17578 l -1.40625,2.3086 c -0.0703,0.10254 -0.1582,0.15234 -0.25781,0.15234 z m 14.80078,11.98828 c -0.12597,0 -0.21093,-0.0527 -0.25781,-0.16406 l -3.48047,-10.18359 -0.0234,-0.0937 c 0,-0.0937 0.0615,-0.14063 0.1875,-0.14063 h 0.79687 c 0.12305,0 0.21094,0.0557 0.25781,0.16406 l 2.84766,8.69532 c 0.0147,0.0322 0.0352,0.0469 0.0586,0.0469 0.0293,0 0.0527,-0.0147 0.0703,-0.0469 l 2.85937,-8.69532 c 0.0381,-0.10839 0.12012,-0.16406 0.24609,-0.16406 l 0.78516,0.0234 c 0.14648,0 0.20215,0.0762 0.16406,0.22266 l -3.46875,10.17187 c -0.041,0.11133 -0.12304,0.16406 -0.24609,0.16406 z m 10.45313,-10.75781 c 1.2334,0 2.1709,0.32227 2.8125,0.96094 0.64746,0.6416 0.97266,1.5 0.97266,2.57812 v 7.00782 c 0,0.14062 -0.0703,0.21093 -0.21094,0.21093 h -0.69141 c -0.14062,0 -0.21094,-0.0703 -0.21094,-0.21093 V 249.924 c 0,-0.0293 -0.0117,-0.0498 -0.0352,-0.0586 -0.0234,-0.0146 -0.0469,-0.0117 -0.0703,0.0117 -0.36915,0.46289 -0.84375,0.81445 -1.42969,1.05468 -0.58008,0.23438 -1.22461,0.35157 -1.9336,0.35157 -0.96972,0 -1.79004,-0.24024 -2.46093,-0.72657 -0.67383,-0.49218 -1.00782,-1.24218 -1.00782,-2.25 0,-1.03711 0.38672,-1.85742 1.16016,-2.46093 0.77344,-0.60059 1.83105,-0.90235 3.17578,-0.90235 h 2.51953 c 0.0527,0 0.082,-0.0264 0.082,-0.082 v -0.94922 c 0,-0.77929 -0.22265,-1.40039 -0.66796,-1.86328 -0.43946,-0.45996 -1.11329,-0.69141 -2.02735,-0.69141 -0.71191,0 -1.29785,0.14942 -1.75781,0.44532 -0.46289,0.29004 -0.75,0.67968 -0.86719,1.17187 -0.041,0.14063 -0.12305,0.20508 -0.24609,0.1875 l -0.73828,-0.10547 c -0.15821,-0.0293 -0.21973,-0.085 -0.1875,-0.16406 0.12304,-0.75586 0.5332,-1.36523 1.23047,-1.82812 0.69433,-0.46875 1.55859,-0.70313 2.58984,-0.70313 z m -0.60938,9.96094 c 0.88184,0 1.64649,-0.21387 2.29688,-0.64453 0.65625,-0.43653 0.98437,-1.04297 0.98437,-1.81641 v -1.91016 c 0,-0.0527 -0.0293,-0.082 -0.082,-0.082 h -2.41406 c -1.00195,0 -1.80469,0.21094 -2.41406,0.63282 -0.60938,0.42187 -0.91406,1.00195 -0.91406,1.73437 0,0.68848 0.2373,1.20703 0.71484,1.55859 0.47461,0.35157 1.08398,0.52735 1.82812,0.52735 z m 11.71582,-9.86719 c 0.47461,0 0.88184,0.082 1.21875,0.24609 0.11719,0.0469 0.15821,0.1377 0.12891,0.26954 l -0.1875,0.67968 c -0.041,0.14063 -0.12891,0.18457 -0.26953,0.12891 -0.28125,-0.11719 -0.63281,-0.16699 -1.05469,-0.15234 -0.78222,0.0176 -1.42969,0.3164 -1.94531,0.90234 -0.50977,0.58008 -0.76172,1.28613 -0.76172,2.12109 v 6.25782 c 0,0.14062 -0.0703,0.21093 -0.21094,0.21093 h -0.6914 c -0.14063,0 -0.21094,-0.0703 -0.21094,-0.21093 v -10.16016 c 0,-0.14063 0.0703,-0.21094 0.21094,-0.21094 h 0.6914 c 0.14063,0 0.21094,0.0703 0.21094,0.21094 v 1.42969 c 0,0.041 0.006,0.0644 0.0234,0.0703 0.0234,0.009 0.041,-0.0117 0.0586,-0.0586 0.2959,-0.53907 0.67969,-0.96094 1.14844,-1.26563 0.46875,-0.31055 1.01367,-0.46875 1.64062,-0.46875 z m 4.40918,-2.03906 c -0.30468,0 -0.55664,-0.0967 -0.75,-0.29297 -0.19629,-0.19336 -0.29296,-0.44824 -0.29296,-0.76172 0,-0.30469 0.0967,-0.55371 0.29296,-0.75 0.19336,-0.19336 0.44532,-0.29297 0.75,-0.29297 0.31055,0 0.56543,0.0996 0.76172,0.29297 0.19336,0.19629 0.29297,0.44531 0.29297,0.75 0,0.31348 -0.0996,0.56836 -0.29297,0.76172 -0.19629,0.19629 -0.45117,0.29297 -0.76172,0.29297 z m -0.39843,12.67969 c -0.14063,0 -0.21094,-0.0703 -0.21094,-0.21094 v -10.16016 c 0,-0.14062 0.0703,-0.21094 0.21094,-0.21094 h 0.6914 c 0.14063,0 0.21094,0.0703 0.21094,0.21094 v 10.16016 c 0,0.14062 -0.0703,0.21094 -0.21094,0.21094 z m 8.422848,-10.73438 c 1.233398,0 2.170898,0.32227 2.8125,0.96094 0.647461,0.6416 0.972656,1.5 0.972656,2.57812 v 7.00782 c 0,0.14062 -0.07031,0.21093 -0.210937,0.21093 h -0.691407 c -0.140625,0 -0.210937,-0.0703 -0.210937,-0.21093 V 249.924 c 0,-0.0293 -0.01172,-0.0498 -0.03516,-0.0586 -0.02344,-0.0146 -0.04687,-0.0117 -0.07031,0.0117 -0.369141,0.46289 -0.84375,0.81445 -1.429687,1.05468 -0.580079,0.23438 -1.22461,0.35157 -1.933594,0.35157 -0.969727,0 -1.790039,-0.24024 -2.460938,-0.72657 -0.673828,-0.49218 -1.007812,-1.24218 -1.007812,-2.25 0,-1.03711 0.386719,-1.85742 1.160156,-2.46093 0.773438,-0.60059 1.831055,-0.90235 3.175781,-0.90235 h 2.519532 c 0.05273,0 0.08203,-0.0264 0.08203,-0.082 v -0.94922 c 0,-0.77929 -0.222656,-1.40039 -0.667969,-1.86328 -0.439453,-0.45996 -1.113281,-0.69141 -2.027344,-0.69141 -0.711914,0 -1.297851,0.14942 -1.757812,0.44532 -0.462891,0.29004 -0.75,0.67968 -0.867188,1.17187 -0.04102,0.14063 -0.123047,0.20508 -0.246093,0.1875 l -0.738282,-0.10547 c -0.158203,-0.0293 -0.219726,-0.085 -0.1875,-0.16406 0.123047,-0.75586 0.533203,-1.36523 1.230469,-1.82812 0.694336,-0.46875 1.558594,-0.70313 2.589844,-0.70313 z m -0.609375,9.96094 c 0.881836,0 1.646484,-0.21387 2.296875,-0.64453 0.65625,-0.43653 0.984375,-1.04297 0.984375,-1.81641 v -1.91016 c 0,-0.0527 -0.0293,-0.082 -0.08203,-0.082 h -2.414063 c -1.001953,0 -1.804687,0.21094 -2.414062,0.63282 -0.609375,0.42187 -0.914063,1.00195 -0.914063,1.73437 0,0.68848 0.237305,1.20703 0.714844,1.55859 0.474609,0.35157 1.083984,0.52735 1.828125,0.52735 z m 11.891601,-9.9375 c 1.078125,0 1.948243,0.33398 2.613282,0.99609 0.662109,0.65625 0.996093,1.52344 0.996093,2.60156 v 6.92579 c 0,0.14062 -0.07031,0.21093 -0.210937,0.21093 h -0.691406 c -0.140625,0 -0.210938,-0.0703 -0.210938,-0.21093 v -6.71485 c 0,-0.82617 -0.254883,-1.50293 -0.761719,-2.02734 -0.500976,-0.52149 -1.157226,-0.78516 -1.96875,-0.78516 -0.84375,0 -1.523437,0.25489 -2.039062,0.76172 -0.515625,0.50977 -0.773438,1.17774 -0.773438,2.00391 v 6.76172 c 0,0.14062 -0.07031,0.21093 -0.210937,0.21093 h -0.691406 c -0.140625,0 -0.210938,-0.0703 -0.210938,-0.21093 v -10.16016 c 0,-0.14063 0.07031,-0.21094 0.210938,-0.21094 h 0.691406 c 0.140625,0 0.210937,0.0703 0.210937,0.21094 v 1.03125 c 0,0.041 0.0059,0.0644 0.02344,0.0703 0.02344,0.009 0.04102,-0.003 0.05859,-0.0352 0.304687,-0.45996 0.706054,-0.81153 1.207031,-1.05469 0.506836,-0.24902 1.092773,-0.375 1.757812,-0.375 z m 11.525391,0.89062 c 0,0.13477 -0.07031,0.19922 -0.210937,0.19922 h -2.449219 c -0.06445,0 -0.09375,0.0322 -0.09375,0.0937 v 6.63281 c 0,0.71192 0.158203,1.2129 0.480469,1.5 0.328125,0.29004 0.846679,0.4336 1.558593,0.4336 h 0.492188 c 0.131836,0 0.199219,0.0703 0.199219,0.21094 v 0.5625 c 0,0.14062 -0.06738,0.21093 -0.199219,0.21093 l -0.632813,0.0234 c -0.984375,0 -1.728515,-0.1875 -2.226562,-0.5625 -0.492188,-0.38086 -0.747071,-1.07812 -0.761719,-2.08594 v -6.92578 c 0,-0.0615 -0.0293,-0.0937 -0.08203,-0.0937 h -1.253906 c -0.140625,0 -0.210938,-0.0645 -0.210938,-0.19922 v -0.52734 c 0,-0.14063 0.07031,-0.21094 0.210938,-0.21094 h 1.253906 c 0.05273,0 0.08203,-0.0264 0.08203,-0.082 v -2.40234 c 0,-0.14063 0.07031,-0.21094 0.210938,-0.21094 h 0.679687 c 0.131836,0 0.199219,0.0703 0.199219,0.21094 v 2.40234 c 0,0.0557 0.0293,0.082 0.09375,0.082 h 2.449219 c 0.140625,0 0.210937,0.0703 0.210937,0.21094 z m 2.545898,14.03907 c -0.102539,0 -0.152343,-0.0703 -0.152343,-0.21094 v -0.53906 c 0,-0.14063 0.07031,-0.21094 0.210937,-0.21094 h 0.08203 c 0.530274,-0.0176 0.94336,-0.10547 1.242188,-0.26953 0.304687,-0.15821 0.56543,-0.4541 0.785156,-0.89063 0.216797,-0.43066 0.47461,-1.10156 0.773438,-2.01562 0.02344,-0.0557 0.02344,-0.0937 0,-0.11719 l -3.597657,-10.28906 -0.02344,-0.0937 c 0,-0.0937 0.06445,-0.14063 0.199219,-0.14063 h 0.703125 c 0.131836,0 0.216797,0.0557 0.257812,0.16406 l 2.976563,8.90625 c 0.01465,0.0322 0.03516,0.0469 0.05859,0.0469 0.0293,0 0.05273,-0.0147 0.07031,-0.0469 l 2.894531,-8.90625 c 0.04687,-0.10839 0.131836,-0.16406 0.257813,-0.16406 h 0.714843 c 0.155274,0 0.210938,0.0791 0.164063,0.23438 l -3.960938,11.41406 c -0.328125,0.91406 -0.632812,1.58496 -0.914062,2.01562 -0.275391,0.43653 -0.606445,0.7295 -0.996094,0.87891 -0.383789,0.15527 -0.919922,0.23438 -1.605469,0.23438 z m 0,0"
       style="fill:#231f20;fill-opacity:1;fill-rule:nonzero;stroke:none"
       aria-label="Barevn varianty&#10;Primrn barevn varianta&#10;Monochromn barevn varianty"
       transform="matrix(1.3333333,0,0,1.3333333,5169.4151,167.00627)" />
    <path
       id="path323"
       d="m 5097.4011,274.51212 v 8.8231 c 0,0.86143 0.073,1.45378 0.2227,1.78108 0.148,0.32731 0.44,0.54216 0.8746,0.64457 l 2.0894,0.46585 v 2.47585 h -5.276 -4.4894 v -2.47585 l 2.124,-0.46585 c 0.4347,-0.10241 0.72,-0.3273 0.8574,-0.67067 0.136,-0.34337 0.2053,-0.99596 0.2053,-1.9598 v -25.18216 c 0,-0.89556 -0.075,-1.49796 -0.2227,-1.80719 -0.1493,-0.30923 -0.452,-0.51605 -0.908,-0.61846 l -2.056,-0.46585 v -2.47585 h 9.7654 v 2.47585 l -2.1587,0.46585 c -0.3653,0.0683 -0.628,0.25702 -0.788,0.56625 -0.16,0.31124 -0.24,0.99998 -0.24,2.06421 v 12.48768 z"
       style="fill:#100f0d;fill-opacity:1;fill-rule:nonzero;stroke:none;stroke-width:1.63625"
       inkscape:export-filename="../../development/knihkupka/knihkupka.github.io/assets/images/android-chrome-192x192.png"
       inkscape:export-xdpi="196.64897"
       inkscape:export-ydpi="196.64897" />
    <path
       id="path324"
       d="m 5116.9827,288.70238 v -2.06421 l 1.4,-0.39558 c 0.3107,-0.0863 0.5147,-0.26907 0.612,-0.54818 0.097,-0.27911 0.1453,-0.79717 0.1453,-1.55819 v -12.38527 c 0,-1.05218 -0.059,-1.74895 -0.1746,-2.08429 -0.116,-0.33734 -0.3894,-0.55019 -0.816,-0.63653 l -1.4294,-0.30722 0.204,-2.10839 4.0534,-0.48392 0.3493,0.30722 0.204,3.90955 h 0.088 c 0.5253,-1.37748 1.2493,-2.47384 2.172,-3.2931 0.924,-0.82127 1.9,-1.2309 2.9307,-1.2309 1.0306,0 1.9,0.28514 2.6106,0.85741 0.7094,0.57027 1.248,1.41162 1.6174,2.52404 0.3692,1.11243 0.5546,2.4879 0.5546,4.12843 v 11.15436 c 0,0.64256 0.059,1.08231 0.1747,1.31724 0.116,0.23293 0.36,0.39357 0.7293,0.48192 l 1.3707,0.3514 v 2.06421 h -7.144 v -2.02004 l 1.2827,-0.35139 c 0.3693,-0.11647 0.6065,-0.29317 0.7146,-0.5261 0.1067,-0.23493 0.16,-0.67468 0.16,-1.31724 v -9.8813 c 0,-1.37547 -0.092,-2.47384 -0.2774,-3.2931 -0.1839,-0.81926 -0.4906,-1.41161 -0.9186,-1.77908 -0.428,-0.36545 -1.0013,-0.54818 -1.72,-0.54818 -0.8161,0 -1.5266,0.24899 -2.128,0.74697 -0.6026,0.49799 -1.0693,1.2068 -1.4,2.12847 -0.3306,0.92167 -0.496,1.99795 -0.496,3.22884 v 9.22068 c 0,0.64456 0.048,1.09837 0.1454,1.36142 0.097,0.26304 0.292,0.43974 0.5839,0.52609 l 1.5454,0.48392 v 2.02004 z"
       style="fill:#100f0d;fill-opacity:1;fill-rule:nonzero;stroke:none;stroke-width:1.63625" />
    <path
       id="path325"
       d="m 5134.9009,288.81341 v -2.15256 l 1.6627,-0.39356 c 0.388,-0.0883 0.636,-0.27911 0.7426,-0.57228 0.1067,-0.29116 0.1614,-0.84737 0.1614,-1.66864 v -11.98768 c 0,-1.05419 -0.064,-1.75699 -0.1907,-2.10839 -0.1267,-0.35139 -0.412,-0.57026 -0.86,-0.65861 l -1.3987,-0.30723 0.204,-2.19473 4.6067,-0.35139 0.3493,0.21887 v 17.56587 c 0,0.55621 0.049,1.01001 0.1467,1.36141 0.097,0.3514 0.3587,0.58433 0.7867,0.7028 l 1.6333,0.43774 v 2.10838 z"
       style="fill:#100f0d;fill-opacity:1;fill-rule:nonzero;stroke:none;stroke-width:1.63625" />
    <path
       id="path326"
       d="m 5138.4,261.58711 c -0.564,0 -1.0307,-0.27107 -1.4,-0.81323 -0.3693,-0.54015 -0.5533,-1.23491 -0.5533,-2.08429 0,-0.84938 0.184,-1.55218 0.5533,-2.10839 0.3693,-0.55621 0.836,-0.83532 1.4,-0.83532 0.5827,0 1.0587,0.27108 1.4293,0.81323 0.368,0.54216 0.5534,1.23692 0.5534,2.0863 0,0.84938 -0.1854,1.55218 -0.5534,2.10839 -0.3706,0.55621 -0.8466,0.83331 -1.4293,0.83331"
       style="fill:#100f0d;fill-opacity:1;fill-rule:nonzero;stroke:none;stroke-width:1.63625" />
    <path
       id="path327"
       d="m 5109.7643,328.56373 c -0.5053,0 -0.948,-0.0884 -1.3267,-0.26305 -0.3786,-0.1767 -0.7533,-0.49798 -1.1226,-0.96785 -0.3694,-0.46786 -0.7974,-1.14054 -1.2827,-2.01803 l -4.928,-8.82711 v -0.3514 l 4.636,-6.27897 c 0.252,-0.32329 0.3787,-0.66063 0.3787,-1.01002 0,-0.3534 -0.1267,-0.55621 -0.3787,-0.61444 l -1.312,-0.30923 0.2627,-2.02004 h 6.532 v 1.97586 l -0.8467,0.35341 c -0.292,0.11646 -0.6067,0.29919 -0.948,0.54818 -0.34,0.24899 -0.704,0.62247 -1.0933,1.11845 l -4.344,5.53401 4.84,8.29901 c 0.3306,0.55621 0.656,1.00399 0.9773,1.33933 0.32,0.33734 0.704,0.50601 1.152,0.50601 0.116,0 0.252,-0.0301 0.408,-0.0883 0.1547,-0.0582 0.3973,-0.14658 0.7293,-0.26305 l 0.2907,1.58029 c -0.3693,0.55621 -0.7867,0.98793 -1.2533,1.29515 -0.4667,0.30722 -0.924,0.46184 -1.3707,0.46184 m -14.1427,-0.39558 v -2.10838 l 1.6627,-0.39558 c 0.388,-0.0863 0.636,-0.2771 0.7427,-0.57027 0.108,-0.29115 0.1613,-0.84737 0.1613,-1.66863 v -23.53763 c 0,-1.02407 -0.4133,-9.89536 -0.5587,-10.20258 -0.1453,-0.30722 -0.472,-0.85138 -1.016,-0.96785 l -1.3026,-0.014 0.1466,-2.15859 4.7814,-0.21887 0.336,0.41365 0.396,36.86262 c -0.071,0.7028 -0.017,1.19274 0.089,1.46985 0.1066,0.27911 0.316,0.47589 0.6267,0.59235 l 1.0506,0.3514 v 2.15256 z"
       style="fill:#100f0d;fill-opacity:1;fill-rule:nonzero;stroke:none;stroke-width:1.63625" />
    <path
       id="path328"
       d="m 5119.3283,328.82697 c -1.536,0 -2.6973,-0.63653 -3.484,-1.90959 -0.7867,-1.27507 -1.1813,-3.14049 -1.1813,-5.59827 V 311.2611 c 0,-1.05218 -0.059,-1.74092 -0.1747,-2.0622 -0.1173,-0.32329 -0.3893,-0.54216 -0.816,-0.66063 l -1.284,-0.30722 0.2333,-2.10638 4.4027,-0.48392 0.3507,0.30722 v 14.09607 c 0,1.40559 0.087,2.51801 0.2626,3.33727 0.1747,0.82127 0.4667,1.40559 0.8747,1.75699 0.408,0.3514 0.9627,0.5281 1.6613,0.5281 0.8174,0 1.516,-0.24899 2.1,-0.74697 0.5827,-0.49798 1.0347,-1.20881 1.356,-2.13047 0.3214,-0.92167 0.4814,-1.99795 0.4814,-3.22684 v -8.30102 c 0,-1.02407 -0.055,-1.70478 -0.16,-2.04212 -0.108,-0.33533 -0.384,-0.56224 -0.832,-0.68071 l -1.312,-0.30722 0.2333,-2.10638 4.432,-0.48392 0.3507,0.30722 v 17.82892 c 0,0.70279 0.063,1.17868 0.1893,1.42767 0.1253,0.249 0.3733,0.43172 0.7427,0.54819 l 1.4586,0.39557 v 2.06421 l -4.52,0.26305 -0.408,-3.55615 h -0.088 c -0.5053,0.90761 -1.0105,1.64655 -1.516,2.21682 -0.5053,0.57027 -1.0306,0.99596 -1.5746,1.27306 -0.544,0.27911 -1.1374,0.41766 -1.7787,0.41766"
       style="fill:#100f0d;fill-opacity:1;fill-rule:nonzero;stroke:none;stroke-width:1.63625" />
    <path
       id="path329"
       d="m 5138.6175,325.6654 c 0.8547,0 1.5893,-0.35742 2.2013,-1.07628 0.612,-0.71685 1.0787,-1.74895 1.4,-3.09631 0.32,-1.34536 0.4814,-2.95576 0.4814,-4.82921 0,-1.87345 -0.1374,-3.43968 -0.4094,-4.69869 -0.272,-1.25901 -0.6746,-2.20276 -1.2093,-2.83327 -0.5347,-0.6285 -1.2107,-0.94376 -2.0267,-0.94376 -0.856,0 -1.5893,0.26305 -2.2013,0.78914 -0.6133,0.5281 -1.084,1.26704 -1.4147,2.21883 -0.3306,0.95178 -0.496,2.10035 -0.496,3.44771 v 9.13433 c 0.3894,0.55622 0.928,1.01002 1.6187,1.35941 0.6893,0.3514 1.3747,0.5281 2.056,0.5281 m -8.6307,11.76881 v -2.10838 l 1.3987,-0.3514 c 0.292,-0.0582 0.5053,-0.24096 0.6413,-0.54818 0.136,-0.30722 0.2054,-0.81323 0.2054,-1.51603 v -21.82481 c 0,-1.11243 -0.069,-1.84333 -0.2054,-2.19473 -0.136,-0.3514 -0.428,-0.57027 -0.8746,-0.65862 l -1.3414,-0.26505 0.2334,-2.15056 3.9946,-0.43975 0.408,0.26506 0.176,3.95172 h 0.087 c 0.4667,-1.0542 0.9627,-1.91161 1.488,-2.57023 0.5239,-0.65862 1.1027,-1.14857 1.7347,-1.46984 0.632,-0.32128 1.316,-0.48393 2.056,-0.48393 1.1853,0 2.196,0.43975 3.032,1.31724 0.836,0.8795 1.4826,2.13851 1.94,3.77702 0.456,1.64053 0.684,3.60032 0.684,5.88541 0,2.63448 -0.2667,4.88945 -0.8014,6.7609 -0.5346,1.87546 -1.312,3.30113 -2.332,4.28303 -1.0213,0.9799 -2.2506,1.46985 -3.6893,1.46985 -0.72,0 -1.4333,-0.13052 -2.144,-0.39558 -0.7093,-0.26304 -1.2867,-0.61444 -1.7347,-1.05419 v 5.66654 c 0,0.70079 0.068,1.21483 0.204,1.53611 0.1359,0.32128 0.38,0.52609 0.7294,0.61444 l 1.7786,0.43975 v 2.06421 z"
       style="fill:#100f0d;fill-opacity:1;fill-rule:nonzero;stroke:none;stroke-width:1.63625" />
    <path
       id="path330"
       d="m 5167.3961,328.30048 c -0.5052,0 -0.948,-0.0883 -1.3267,-0.26305 -0.3786,-0.1767 -0.7533,-0.49798 -1.1226,-0.96785 -0.3694,-0.46786 -0.7974,-1.14053 -1.2827,-2.01802 l -4.928,-8.82711 v -0.3514 l 4.636,-6.27898 c 0.252,-0.32328 0.3787,-0.66063 0.3787,-1.01001 0,-0.35341 -0.1267,-0.55622 -0.3787,-0.61445 l -1.312,-0.30923 0.2627,-2.02003 h 6.532 v 1.97586 l -0.8467,0.3534 c -0.292,0.11646 -0.6067,0.29919 -0.948,0.54818 -0.34,0.24899 -0.704,0.62248 -1.0933,1.11845 l -4.344,5.53401 4.84,8.29901 c 0.3306,0.55621 0.656,1.004 0.9773,1.33933 0.32,0.33734 0.704,0.50601 1.152,0.50601 0.116,0 0.252,-0.0301 0.408,-0.0883 0.1547,-0.0582 0.3973,-0.14658 0.7293,-0.26305 l 0.2907,1.58029 c -0.3693,0.55621 -0.7867,0.98793 -1.2533,1.29515 -0.4667,0.30722 -0.924,0.46184 -1.3707,0.46184"
       style="fill:#100f0d;fill-opacity:1;fill-rule:nonzero;stroke:none;stroke-width:1.63625" />
    <path
       id="path331"
       d="m 5175.6888,325.1385 c 0.6027,0 1.1413,-0.20481 1.6187,-0.61444 0.476,-0.40963 0.8546,-0.96584 1.1373,-1.66864 0.2813,-0.70279 0.4227,-1.49394 0.4227,-2.37143 v -3.11841 c -1.244,0 -2.28,0.16064 -3.1054,0.48393 -0.8266,0.32128 -1.4386,0.8052 -1.8373,1.44776 -0.3987,0.64456 -0.5973,1.46382 -0.5973,2.45978 0,1.0542 0.2133,1.88149 0.6413,2.48187 0.4267,0.59838 1.0013,0.89958 1.72,0.89958 m -1.108,3.03005 c -1.2253,0 -2.212,-0.54215 -2.96,-1.62446 -0.748,-1.0823 -1.1227,-2.51801 -1.1227,-4.30512 0,-1.6084 0.268,-2.91158 0.8027,-3.90754 0.5347,-0.99396 1.4133,-1.74896 2.6387,-2.261 1.224,-0.51203 2.8666,-0.84134 4.928,-0.98793 v -2.98587 c 0,-1.20078 -0.112,-2.18068 -0.336,-2.94371 -0.224,-0.75902 -0.564,-1.32327 -1.02,-1.69073 -0.4574,-0.36344 -1.0547,-0.54818 -1.7934,-0.54818 -0.5253,0 -1.0453,0.1245 -1.56,0.37349 -0.516,0.24899 -0.8893,0.56424 -1.1226,0.94375 0.1746,0.43975 0.32,0.81926 0.4373,1.14255 0.1173,0.32328 0.1987,0.58432 0.248,0.79114 0.048,0.20482 0.073,0.37951 0.073,0.5261 0,0.55621 -0.152,1.02407 -0.452,1.40559 -0.3026,0.37951 -0.676,0.57026 -1.1226,0.57026 -0.5254,0 -0.9334,-0.19678 -1.2254,-0.59235 -0.292,-0.39557 -0.4373,-0.95982 -0.4373,-1.69073 0,-1.02407 0.2573,-1.96983 0.772,-2.83327 0.516,-0.86343 1.196,-1.55819 2.0413,-2.08629 0.8467,-0.5261 1.764,-0.78914 2.756,-0.78914 1.2254,0 2.24,0.28513 3.0467,0.8554 0.8067,0.57228 1.4093,1.44173 1.808,2.61239 0.3987,1.17266 0.5987,2.65054 0.5987,4.43564 v 10.5841 c 0,0.64457 0.112,1.12648 0.3346,1.44776 0.224,0.32329 0.5494,0.48393 0.9774,0.48393 0.2133,0 0.4266,-0.0281 0.6413,-0.0884 0.2133,-0.0582 0.456,-0.14457 0.7293,-0.26304 l 0.2907,1.66864 c -0.3493,0.49798 -0.7773,0.91564 -1.2827,1.25097 -0.5053,0.33734 -0.972,0.50601 -1.4,0.50601 -0.836,0 -1.4826,-0.32931 -1.9386,-0.98793 -0.4574,-0.65862 -0.7334,-1.63249 -0.8307,-2.91961 -0.3693,0.87749 -0.7787,1.60238 -1.2253,2.17264 -0.4467,0.57027 -0.9427,1.004 -1.4867,1.29516 -0.544,0.29316 -1.1467,0.43974 -1.808,0.43974"
       style="fill:#100f0d;fill-opacity:1;fill-rule:nonzero;stroke:none;stroke-width:1.63625" />
    <path
       id="path332"
       d="m 5100.9143,272.28005 c 0,0 8.2373,-0.32931 12.592,-5.06615 4.356,-4.73684 3.872,-20.40516 3.872,-20.40516 0,0 -4.0187,13.89727 -6.4373,17.53976 -2.42,3.6445 -10.7414,5.781 -10.7414,5.781 z"
       style="fill:#e5c9a4;fill-opacity:1;fill-rule:nonzero;stroke:none;stroke-width:1.63625" />
    <path
       id="path333"
       d="m 5100.9143,272.33326 c 0,0 8.2373,0.32931 12.592,5.06615 4.356,4.73684 2.7827,20.87704 2.7827,20.87704 0,0 -3.5147,-12.50574 -5.9334,-16.14823 -2.42,-3.6445 -10.156,-7.64441 -10.156,-7.64441 z"
       style="fill:#e5c9a4;fill-opacity:1;fill-rule:nonzero;stroke:none;stroke-width:1.63625" />
    <path
       id="path334"
       d="m 5099.3416,270.79233 c -0.208,0 -0.5107,0.58031 -0.5107,1.48792 0,0.90761 0.3027,1.48791 0.5107,1.48791 0.208,0 0.5107,-0.5803 0.5107,-1.48791 0,-0.90761 -0.3027,-1.48792 -0.5107,-1.48792 m 0,4.5762 c -0.8827,0 -1.5733,-1.3574 -1.5733,-3.08828 0,-1.73089 0.6906,-3.08829 1.5733,-3.08829 0.8827,0 1.5733,1.3574 1.5733,3.08829 0,1.73088 -0.6906,3.08828 -1.5733,3.08828"
       style="fill:#100f0d;fill-opacity:1;fill-rule:nonzero;stroke:none;stroke-width:1.63625" />
    <path
       id="path335"
       d="m 5098.8224,274.29808 v -4.03606 h 1.396 c 0,0 5.7213,-2.45376 9.1653,-7.32714 3.4454,-4.87539 7.1987,-17.50362 7.24,-18.50762 0.041,-1.006 -0.2306,-1.14053 -0.7373,-0.71082 -0.5067,0.43171 -4.6453,11.61218 -8.3893,16.94941 -3.58,5.1023 -9.1267,9.00181 -9.1267,9.00181 0,0 0.043,0.0663 -0.4973,0.88151 -0.54,0.81323 -0.4187,2.90154 0.176,3.71678 0.5933,0.81524 0.3786,0.63854 0.3786,0.63854 0,0 5.0227,4.06216 8.2947,9.16646 3.272,5.1043 9.6613,17.36106 10.0667,18.11807 0.104,0.19276 0.3426,-0.01 0.216,-0.44979 -0.2507,-0.87749 -5.604,-14.1784 -8.876,-19.4574 -3.272,-5.281 -7.9107,-7.98375 -7.9107,-7.98375 z"
       style="fill:#100f0d;fill-opacity:1;fill-rule:nonzero;stroke:none;stroke-width:1.63625" />
    <path
       id="path336"
       d="m 5150.0625,326.15133 c 0,0 0.8853,-2.45979 2.7,-2.45979 1.8147,0 2.4707,2.45979 2.4707,2.45979 l -0.292,-48.88846 c 0,0 0.132,-6.52194 -1.8547,-6.62034 -2.3413,-0.11646 -2.972,3.03206 -2.8293,6.62034 0.1466,3.65253 -0.1947,48.88846 -0.1947,48.88846"
       style="fill:#e5c9a4;fill-opacity:1;fill-rule:nonzero;stroke:none;stroke-width:1.63625" />
    <path
       id="path337"
       d="m 5146.2815,328.52959 c 0.1067,-0.29317 0.1613,-43.66569 0.1613,-44.40061 V 260.3524 c 0,-1.02608 -0.073,-1.69474 -0.22,-2.00196 -0.1466,-0.30923 -0.492,-0.52208 -1.0373,-0.63854 l -1.2867,-0.30923 0.1747,-2.20075 4.7667,-0.22088 0.3213,0.48392 v 14.0017 0.39758 c 0.448,-1.23291 1.12,-2.22485 2.0173,-2.97182 0.896,-0.74898 1.8507,-1.12448 2.8654,-1.12448 1.032,0 1.904,0.28715 2.616,0.85942 0.712,0.57228 1.252,1.41764 1.6226,2.53207 0.3707,1.11645 0.556,2.49593 0.556,4.13847 v 11.18448 c 0,0.64457 0.048,43.93677 0.1454,44.15764 0.097,0.21888 -3.1334,0.25703 -3.0254,0.0221 0.1067,-0.23493 0.1614,-43.53516 0.1614,-44.17973 v -9.9074 c 0,-1.37949 -0.093,-2.47987 -0.2787,-3.30314 -0.1853,-0.82127 -0.492,-1.41563 -0.9213,-1.7831 -0.428,-0.36545 -1.004,-0.55018 -1.724,-0.55018 -0.8187,0 -1.5307,0.25099 -2.1347,0.74898 -0.604,0.49998 -1.072,1.21081 -1.4027,2.13449 -0.332,0.92568 -0.4973,2.00397 -0.4973,3.23687 v 9.24678 c 0,0.64657 0.048,43.95885 0.1467,44.22391 0.096,0.26505 -3.1347,0.29316 -3.0267,0"
       style="fill:#100f0d;fill-opacity:1;fill-rule:nonzero;stroke:none;stroke-width:1.63625" />
  </g>
</svg>
